  0
SECTION
  2
HEADER
  9
$ACADVER
  1
AC1021
  9
$ACADMAINTVER
 70
    25
  9
$DWGCODEPAGE
  3
ANSI_1252
  9
$COMMENTS
  1
File was created by Mastercam X5
  9
$INSBASE
 10
0.0
 20
0.0
 30
0.0
  9
$EXTMIN
 10
-0.1999999999999986
 20
10.0
 30
0.0
  9
$EXTMAX
 10
16.0
 20
20.0
 30
0.0
  9
$LIMMIN
 10
0.0
 20
0.0
  9
$LIMMAX
 10
12.0
 20
9.0
  9
$ORTHOMODE
 70
     0
  9
$REGENMODE
 70
     1
  9
$FILLMODE
 70
     1
  9
$QTEXTMODE
 70
     0
  9
$MIRRTEXT
 70
     1
  9
$LTSCALE
 40
1.0
  9
$ATTMODE
 70
     1
  9
$TEXTSIZE
 40
0.2
  9
$TRACEWID
 40
0.05
  9
$TEXTSTYLE
  7
Standard
  9
$CLAYER
  8
0
  9
$CELTYPE
  6
ByLayer
  9
$CECOLOR
 62
   256
  9
$CELTSCALE
 40
1.0
  9
$DISPSILH
 70
     0
  9
$DIMSCALE
 40
1.0
  9
$DIMASZ
 40
0.18
  9
$DIMEXO
 40
0.0625
  9
$DIMDLI
 40
0.38
  9
$DIMRND
 40
0.0
  9
$DIMDLE
 40
0.0
  9
$DIMEXE
 40
0.18
  9
$DIMTP
 40
0.0
  9
$DIMTM
 40
0.0
  9
$DIMTXT
 40
0.18
  9
$DIMCEN
 40
0.09
  9
$DIMTSZ
 40
0.0
  9
$DIMTOL
 70
     0
  9
$DIMLIM
 70
     0
  9
$DIMTIH
 70
     1
  9
$DIMTOH
 70
     1
  9
$DIMSE1
 70
     0
  9
$DIMSE2
 70
     0
  9
$DIMTAD
 70
     0
  9
$DIMZIN
 70
     0
  9
$DIMBLK
  1

  9
$DIMASO
 70
     1
  9
$DIMSHO
 70
     1
  9
$DIMPOST
  1

  9
$DIMAPOST
  1

  9
$DIMALT
 70
     0
  9
$DIMALTD
 70
     2
  9
$DIMALTF
 40
25.4
  9
$DIMLFAC
 40
1.0
  9
$DIMTOFL
 70
     0
  9
$DIMTVP
 40
0.0
  9
$DIMTIX
 70
     0
  9
$DIMSOXD
 70
     0
  9
$DIMSAH
 70
     0
  9
$DIMBLK1
  1

  9
$DIMBLK2
  1

  9
$DIMSTYLE
  2
Standard
  9
$DIMCLRD
 70
     0
  9
$DIMCLRE
 70
     0
  9
$DIMCLRT
 70
     0
  9
$DIMTFAC
 40
1.0
  9
$DIMGAP
 40
0.09
  9
$DIMJUST
 70
     0
  9
$DIMSD1
 70
     0
  9
$DIMSD2
 70
     0
  9
$DIMTOLJ
 70
     1
  9
$DIMTZIN
 70
     0
  9
$DIMALTZ
 70
     0
  9
$DIMALTTZ
 70
     0
  9
$DIMUPT
 70
     0
  9
$DIMDEC
 70
     4
  9
$DIMTDEC
 70
     4
  9
$DIMALTU
 70
     2
  9
$DIMALTTD
 70
     2
  9
$DIMTXSTY
  7
Standard
  9
$DIMAUNIT
 70
     0
  9
$DIMADEC
 70
     0
  9
$DIMALTRND
 40
0.0
  9
$DIMAZIN
 70
     0
  9
$DIMDSEP
 70
    46
  9
$DIMATFIT
 70
     3
  9
$DIMFRAC
 70
     0
  9
$DIMLDRBLK
  1

  9
$DIMLUNIT
 70
     2
  9
$DIMLWD
 70
    -2
  9
$DIMLWE
 70
    -2
  9
$DIMTMOVE
 70
     0
  9
$DIMFXL
 40
1.0
  9
$DIMFXLON
 70
     0
  9
$DIMJOGANG
 40
0.7853981633974483
  9
$DIMTFILL
 70
     0
  9
$DIMTFILLCLR
 70
     0
  9
$DIMARCSYM
 70
     0
  9
$DIMLTYPE
  6

  9
$DIMLTEX1
  6

  9
$DIMLTEX2
  6

  9
$LUNITS
 70
     2
  9
$LUPREC
 70
     4
  9
$SKETCHINC
 40
0.1
  9
$FILLETRAD
 40
0.5
  9
$AUNITS
 70
     0
  9
$AUPREC
 70
     0
  9
$MENU
  1
.
  9
$ELEVATION
 40
0.0
  9
$PELEVATION
 40
0.0
  9
$THICKNESS
 40
0.0
  9
$LIMCHECK
 70
     0
  9
$CHAMFERA
 40
0.5
  9
$CHAMFERB
 40
0.5
  9
$CHAMFERC
 40
1.0
  9
$CHAMFERD
 40
0.0
  9
$SKPOLY
 70
     0
  9
$TDCREATE
 40
2453737.5
  9
$TDUCREATE
 40
2453737.666666667
  9
$TDUPDATE
 40
2460797.505684016
  9
$TDUUPDATE
 40
2460797.672350683
  9
$TDINDWG
 40
0.0000000116
  9
$TDUSRTIMER
 40
0.0000000116
  9
$USRTIMER
 70
     1
  9
$ANGBASE
 50
0.0
  9
$ANGDIR
 70
     0
  9
$PDMODE
 70
     2
  9
$PDSIZE
 40
0.1
  9
$PLINEWID
 40
0.0
  9
$SPLFRAME
 70
     0
  9
$SPLINETYPE
 70
     6
  9
$SPLINESEGS
 70
     8
  9
$HANDSEED
  5
28F
  9
$SURFTAB1
 70
     6
  9
$SURFTAB2
 70
     6
  9
$SURFTYPE
 70
     6
  9
$SURFU
 70
     6
  9
$SURFV
 70
     6
  9
$UCSBASE
  2

  9
$UCSNAME
  2

  9
$UCSORG
 10
0.0
 20
0.0
 30
0.0
  9
$UCSXDIR
 10
1.0
 20
0.0
 30
0.0
  9
$UCSYDIR
 10
0.0
 20
1.0
 30
0.0
  9
$UCSORTHOREF
  2

  9
$UCSORTHOVIEW
 70
     0
  9
$UCSORGTOP
 10
0.0
 20
0.0
 30
0.0
  9
$UCSORGBOTTOM
 10
0.0
 20
0.0
 30
0.0
  9
$UCSORGLEFT
 10
0.0
 20
0.0
 30
0.0
  9
$UCSORGRIGHT
 10
0.0
 20
0.0
 30
0.0
  9
$UCSORGFRONT
 10
0.0
 20
0.0
 30
0.0
  9
$UCSORGBACK
 10
0.0
 20
0.0
 30
0.0
  9
$PUCSBASE
  2

  9
$PUCSNAME
  2

  9
$PUCSORG
 10
0.0
 20
0.0
 30
0.0
  9
$PUCSXDIR
 10
1.0
 20
0.0
 30
0.0
  9
$PUCSYDIR
 10
0.0
 20
1.0
 30
0.0
  9
$PUCSORTHOREF
  2

  9
$PUCSORTHOVIEW
 70
     0
  9
$PUCSORGTOP
 10
0.0
 20
0.0
 30
0.0
  9
$PUCSORGBOTTOM
 10
0.0
 20
0.0
 30
0.0
  9
$PUCSORGLEFT
 10
0.0
 20
0.0
 30
0.0
  9
$PUCSORGRIGHT
 10
0.0
 20
0.0
 30
0.0
  9
$PUCSORGFRONT
 10
0.0
 20
0.0
 30
0.0
  9
$PUCSORGBACK
 10
0.0
 20
0.0
 30
0.0
  9
$USERI1
 70
     0
  9
$USERI2
 70
     0
  9
$USERI3
 70
     0
  9
$USERI4
 70
     0
  9
$USERI5
 70
     0
  9
$USERR1
 40
0.0
  9
$USERR2
 40
0.0
  9
$USERR3
 40
0.0
  9
$USERR4
 40
0.0
  9
$USERR5
 40
0.0
  9
$WORLDVIEW
 70
     1
  9
$SHADEDGE
 70
     3
  9
$SHADEDIF
 70
    70
  9
$TILEMODE
 70
     1
  9
$MAXACTVP
 70
    64
  9
$PINSBASE
 10
0.0
 20
0.0
 30
0.0
  9
$PLIMCHECK
 70
     0
  9
$PEXTMIN
 10
1.000000000000000E+20
 20
1.000000000000000E+20
 30
1.000000000000000E+20
  9
$PEXTMAX
 10
-1.000000000000000E+20
 20
-1.000000000000000E+20
 30
-1.000000000000000E+20
  9
$PLIMMIN
 10
0.0
 20
0.0
  9
$PLIMMAX
 10
12.0
 20
9.0
  9
$UNITMODE
 70
     0
  9
$VISRETAIN
 70
     1
  9
$PLINEGEN
 70
     0
  9
$PSLTSCALE
 70
     1
  9
$TREEDEPTH
 70
  3020
  9
$CMLSTYLE
  2
Standard
  9
$CMLJUST
 70
     0
  9
$CMLSCALE
 40
1.0
  9
$PROXYGRAPHICS
 70
     1
  9
$MEASUREMENT
 70
     0
  9
$CELWEIGHT
370
    -1
  9
$ENDCAPS
280
     0
  9
$JOINSTYLE
280
     0
  9
$LWDISPLAY
290
     0
  9
$INSUNITS
 70
     1
  9
$HYPERLINKBASE
  1

  9
$STYLESHEET
  1

  9
$XEDIT
290
     1
  9
$CEPSNTYPE
380
     0
  9
$PSTYLEMODE
290
     1
  9
$FINGERPRINTGUID
  2
{4CDAEBC1-0D9A-4A02-B2BA-74263DE978C1}
  9
$VERSIONGUID
  2
{FAEB1C32-E019-11D5-929B-00C0DF256EC4}
  9
$EXTNAMES
290
     1
  9
$PSVPSCALE
 40
0.0
  9
$OLESTARTUP
290
     0
  9
$SORTENTS
280
   127
  9
$INDEXCTL
280
     0
  9
$HIDETEXT
280
     1
  9
$XCLIPFRAME
290
     0
  9
$HALOGAP
280
     0
  9
$OBSCOLOR
 70
   257
  9
$OBSLTYPE
280
     0
  9
$INTERSECTIONDISPLAY
280
     0
  9
$INTERSECTIONCOLOR
 70
   257
  9
$DIMASSOC
280
     2
  9
$PROJECTNAME
  1

  9
$CAMERADISPLAY
290
     0
  9
$LENSLENGTH
 40
50.0
  9
$CAMERAHEIGHT
 40
0.0
  9
$STEPSPERSEC
 40
2.0
  9
$STEPSIZE
 40
6.0
  9
$3DDWFPREC
 40
2.0
  9
$PSOLWIDTH
 40
0.25
  9
$PSOLHEIGHT
 40
4.0
  9
$LOFTANG1
 40
1.570796326794897
  9
$LOFTANG2
 40
1.570796326794897
  9
$LOFTMAG1
 40
0.0
  9
$LOFTMAG2
 40
0.0
  9
$LOFTPARAM
 70
     7
  9
$LOFTNORMALS
280
     1
  9
$LATITUDE
 40
37.795
  9
$LONGITUDE
 40
-122.394
  9
$NORTHDIRECTION
 40
0.0
  9
$TIMEZONE
 70
 -8000
  9
$LIGHTGLYPHDISPLAY
280
     1
  9
$TILEMODELIGHTSYNCH
280
     1
  9
$SOLIDHIST
280
     1
  9
$SHOWHIST
280
     1
  9
$DWFFRAME
280
     2
  9
$DGNFRAME
280
     2
  9
$REALWORLDSCALE
290
     1
  9
$INTERFERECOLOR
 62
   256
  9
$CSHADOW
280
     0
  9
$SHADOWPLANELOCATION
 40
0.0
  0
ENDSEC
  0
SECTION
  2
CLASSES
  0
CLASS
  1
ACDBDICTIONARYWDFLT
  2
AcDbDictionaryWithDefault
  3
ObjectDBX Classes
 90
        0
 91
        4
280
     0
281
     0
  0
CLASS
  1
VISUALSTYLE
  2
AcDbVisualStyle
  3
ObjectDBX Classes
 90
     4095
 91
        4
280
     0
281
     0
  0
CLASS
  1
MATERIAL
  2
AcDbMaterial
  3
ObjectDBX Classes
 90
     1153
 91
        4
280
     0
281
     0
  0
ENDSEC
  0
SECTION
  2
TABLES
  0
TABLE
  2
VPORT
  5
8
330
0
100
AcDbSymbolTable
 70
     1
  0
VPORT
  5
29
330
8
100
AcDbSymbolTableRecord
100
AcDbViewportTableRecord
  2
*Active
 70
     0
 10
0.0
 20
0.0
 11
1.0
 21
1.0
 12
10.42990654205607
 22
4.5
 13
0.0
 23
0.0
 14
0.5
 24
0.5
 15
0.5
 25
0.5
 16
0.0
 26
0.0
 36
1.0
 17
0.0
 27
0.0
 37
0.0
 40
9.0
 41
1.972972972850329
 42
50.0
 43
0.0
 44
0.0
 50
0.0
 51
0.0
 71
     0
 72
   100
 73
     1
 74
     3
 75
     0
 76
     0
 77
     0
 78
     0
281
     0
 65
     1
110
0.0
120
0.0
130
0.0
111
1.0
121
0.0
131
0.0
112
0.0
122
1.0
132
0.0
 79
     0
146
0.0
 60
     3
 61
     5
292
     1
282
     1
141
0.0
142
0.0
 63
   250
  0
ENDTAB
  0
TABLE
  2
LTYPE
  5
5
330
0
100
AcDbSymbolTable
 70
     5
  0
LTYPE
  5
14
330
5
100
AcDbSymbolTableRecord
100
AcDbLinetypeTableRecord
  2
ByBlock
 70
     0
  3

 72
    65
 73
     0
 40
0.0
  0
LTYPE
  5
15
330
5
100
AcDbSymbolTableRecord
100
AcDbLinetypeTableRecord
  2
ByLayer
 70
     0
  3

 72
    65
 73
     0
 40
0.0
  0
LTYPE
  5
16
330
5
100
AcDbSymbolTableRecord
100
AcDbLinetypeTableRecord
  2
Continuous
 70
     0
  3
Solid line
 72
    65
 73
     0
 40
0.0
  0
LTYPE
  5
40
330
5
100
AcDbSymbolTableRecord
100
AcDbLinetypeTableRecord
  2
Continuous2
 70
     0
  3
Solid Line
 72
    65
 73
     0
 40
0.0
  0
LTYPE
  5
41
330
5
100
AcDbSymbolTableRecord
100
AcDbLinetypeTableRecord
  2
DASHED
 70
     0
  3
__ __ __ __ __ __ __ __ __ __ __ __ __ __ __ __
 72
    83
 73
     2
 40
0.5
 49
0.375
 74
     0
 49
-0.125
 74
     0
  0
LTYPE
  5
42
330
5
100
AcDbSymbolTableRecord
100
AcDbLinetypeTableRecord
  2
CENTER
 70
     0
  3
____ _ ____ _ ____ _ ____ _ ____ _ ____ _ ____ _
 72
    83
 73
     4
 40
1.0
 49
0.625
 74
     0
 49
-0.125
 74
     0
 49
0.125
 74
     0
 49
-0.125
 74
     0
  0
LTYPE
  5
43
330
5
100
AcDbSymbolTableRecord
100
AcDbLinetypeTableRecord
  2
PHANTOM
 70
     0
  3
___ _ _ ___ _ _ ___ _ _ ___ _ _ ___ _ _ ___ _ _ 
 72
    83
 73
     6
 40
1.0
 49
0.5
 74
     0
 49
-0.1
 74
     0
 49
0.1
 74
     0
 49
-0.1
 74
     0
 49
0.1
 74
     0
 49
-0.1
 74
     0
  0
ENDTAB
  0
TABLE
  2
LAYER
  5
2
330
0
100
AcDbSymbolTable
 70
     2
  0
LAYER
  5
10
330
2
100
AcDbSymbolTableRecord
100
AcDbLayerTableRecord
  2
0
 70
     0
 62
     7
  6
Continuous
370
    -3
390
F
347
3E
  0
LAYER
  5
44
330
2
100
AcDbSymbolTableRecord
100
AcDbLayerTableRecord
  2
Title Block
 70
     0
 62
     1
  6
Continuous
370
    -3
390
F
347
3E
  0
ENDTAB
  0
TABLE
  2
STYLE
  5
3
330
0
100
AcDbSymbolTable
 70
     4
  0
STYLE
  5
11
330
3
100
AcDbSymbolTableRecord
100
AcDbTextStyleTableRecord
  2
Standard
 70
     0
 40
0.0
 41
1.0
 50
0.0
 71
     0
 42
0.2
  3
txt
  4

  0
STYLE
  5
71
330
3
100
AcDbSymbolTableRecord
100
AcDbTextStyleTableRecord
  2
MCStick_A0.800000_S0.000000
 70
     0
 40
0.0
 41
0.8
 50
0.0
 71
     0
 42
0.2
  3
Simplex
  4

  0
STYLE
  5
83
330
3
100
AcDbSymbolTableRecord
100
AcDbTextStyleTableRecord
  2
MCStick_A0.500000_S0.000000
 70
     0
 40
0.0
 41
0.5
 50
0.0
 71
     0
 42
0.2
  3
Simplex
  4

  0
STYLE
  5
8C
330
3
100
AcDbSymbolTableRecord
100
AcDbTextStyleTableRecord
  2
MCStick_A0.700000_S0.000000
 70
     0
 40
0.0
 41
0.7
 50
0.0
 71
     0
 42
0.2
  3
Simplex
  4

  0
ENDTAB
  0
TABLE
  2
VIEW
  5
6
330
0
100
AcDbSymbolTable
 70
     0
  0
ENDTAB
  0
TABLE
  2
UCS
  5
7
330
0
100
AcDbSymbolTable
 70
     0
  0
ENDTAB
  0
TABLE
  2
APPID
  5
9
330
0
100
AcDbSymbolTable
 70
     2
  0
APPID
  5
12
330
9
100
AcDbSymbolTableRecord
100
AcDbRegAppTableRecord
  2
ACAD
 70
     0
  0
APPID
  5
3F
330
9
100
AcDbSymbolTableRecord
100
AcDbRegAppTableRecord
  2
Mastercam X5
 70
     0
  0
ENDTAB
  0
TABLE
  2
DIMSTYLE
  5
A
330
0
100
AcDbSymbolTable
 70
     1
100
AcDbDimStyleTable
  0
DIMSTYLE
105
27
330
A
100
AcDbSymbolTableRecord
100
AcDbDimStyleTableRecord
  2
Standard
 70
     0
178
     0
340
11
  0
ENDTAB
  0
TABLE
  2
BLOCK_RECORD
  5
1
330
0
100
AcDbSymbolTable
 70
     3
  0
BLOCK_RECORD
  5
1F
330
1
100
AcDbSymbolTableRecord
100
AcDbBlockTableRecord
  2
*Model_Space
340
22
 70
     0
280
     1
281
     0
  0
BLOCK_RECORD
  5
1B
330
1
100
AcDbSymbolTableRecord
100
AcDbBlockTableRecord
  2
*Paper_Space
340
1E
 70
     0
280
     1
281
     0
  0
BLOCK_RECORD
  5
23
330
1
100
AcDbSymbolTableRecord
100
AcDbBlockTableRecord
  2
*Paper_Space0
340
26
 70
     0
280
     1
281
     0
  0
BLOCK_RECORD
  5
8E
330
1
100
AcDbSymbolTableRecord
100
AcDbBlockTableRecord
  2
Oda1751012_THREADED_ENDCAP1
340
0
 70
     0
280
     1
281
     0
  0
BLOCK_RECORD
  5
13C
330
1
100
AcDbSymbolTableRecord
100
AcDbBlockTableRecord
  2
Oda1751011_HOUSING1
340
0
 70
     0
280
     1
281
     0
  0
ENDTAB
  0
ENDSEC
  0
SECTION
  2
BLOCKS
  0
BLOCK
  5
20
330
1F
100
AcDbEntity
  8
0
100
AcDbBlockBegin
  2
*Model_Space
 70
     0
 10
0.0
 20
0.0
 30
0.0
  3
*Model_Space
  1

  0
ENDBLK
  5
21
330
1F
100
AcDbEntity
  8
0
100
AcDbBlockEnd
  0
BLOCK
  5
1C
330
1B
100
AcDbEntity
 67
     1
  8
0
100
AcDbBlockBegin
  2
*Paper_Space
 70
     0
 10
0.0
 20
0.0
 30
0.0
  3
*Paper_Space
  1

  0
ENDBLK
  5
1D
330
1B
100
AcDbEntity
 67
     1
  8
0
100
AcDbBlockEnd
  0
BLOCK
  5
24
330
23
100
AcDbEntity
  8
0
100
AcDbBlockBegin
  2
*Paper_Space0
 70
     0
 10
0.0
 20
0.0
 30
0.0
  3
*Paper_Space0
  1

  0
ENDBLK
  5
25
330
23
100
AcDbEntity
  8
0
100
AcDbBlockEnd
  0
BLOCK
  5
8F
330
8E
100
AcDbEntity
  8
0
100
AcDbBlockBegin
  2
Oda1751012_THREADED_ENDCAP1
 70
     0
 10
0.0
 20
0.0
 30
0.0
  3
Oda1751012_THREADED_ENDCAP1
  1

  0
CIRCLE
  5
91
330
8E
100
AcDbEntity
  8
0
  6
Continuous2
 62
     3
420
    65280
370
    -3
100
AcDbCircle
 10
5.5
 20
15.5
 30
0.0
 40
2.15
  0
CIRCLE
  5
93
330
8E
100
AcDbEntity
  8
0
  6
DASHED
 62
     3
420
    65280
370
    -3
100
AcDbCircle
 10
5.5
 20
15.5
 30
0.0
 40
2.015000000000001
  0
CIRCLE
  5
95
330
8E
100
AcDbEntity
  8
0
  6
DASHED
 62
     3
420
    65280
370
    -3
100
AcDbCircle
 10
5.5
 20
15.5
 30
0.0
 40
1.865
  0
CIRCLE
  5
97
330
8E
100
AcDbEntity
  8
0
  6
DASHED
 62
     3
420
    65280
370
    -3
100
AcDbCircle
 10
5.5
 20
15.5
 30
0.0
 40
1.83375
  0
CIRCLE
  5
99
330
8E
100
AcDbEntity
  8
0
  6
DASHED
 62
     3
420
    65280
370
    -3
100
AcDbCircle
 10
5.5
 20
15.5
 30
0.0
 40
0.9000000000000004
  0
POINT
  5
9B
330
8E
100
AcDbEntity
  8
0
  6
Continuous2
 62
     3
420
    65280
370
    -3
100
AcDbPoint
 10
5.5
 20
15.5
 30
0.0
  0
CIRCLE
  5
9D
330
8E
100
AcDbEntity
  8
0
  6
Continuous2
 62
     3
420
    65280
370
    -3
100
AcDbCircle
 10
5.5
 20
15.5
 30
0.0
 40
0.3949999999999996
  0
CIRCLE
  5
9F
330
8E
100
AcDbEntity
  8
0
  6
Continuous2
 62
     3
420
    65280
370
    -3
100
AcDbCircle
 10
5.5
 20
15.5
 30
0.0
 40
0.5300000000000002
  0
CIRCLE
  5
A1
330
8E
100
AcDbEntity
  8
0
  6
DASHED
 62
     3
420
    65280
370
    -3
100
AcDbCircle
 10
5.5
 20
15.5
 30
0.0
 40
0.7000000000000002
  0
LINE
  5
A3
330
8E
100
AcDbEntity
  8
0
  6
Continuous2
 62
     3
420
    65280
370
    -3
100
AcDbLine
 10
9.31
 20
16.0620806540878
 30
0.0
 11
9.31
 21
17.59
 31
0.0
  0
LINE
  5
A5
330
8E
100
AcDbEntity
  8
0
  6
Continuous2
 62
     3
420
    65280
370
    -3
100
AcDbLine
 10
9.370000000000001
 20
17.65
 30
0.0
 11
9.55
 21
17.65
 31
0.0
  0
LINE
  5
A7
330
8E
100
AcDbEntity
  8
0
  6
Continuous2
 62
     3
420
    65280
370
    -3
100
AcDbLine
 10
9.31
 20
17.59
 30
0.0
 11
9.370000000000001
 21
17.65
 31
0.0
  0
LINE
  5
A9
330
8E
100
AcDbEntity
  8
0
  6
Continuous2
 62
     3
420
    65280
370
    -3
100
AcDbLine
 10
9.559999999999999
 20
17.545
 30
0.0
 11
9.56
 21
17.64
 31
0.0
  0
LINE
  5
AB
330
8E
100
AcDbEntity
  8
0
  6
Continuous2
 62
     3
420
    65280
370
    -3
100
AcDbLine
 10
9.84
 20
17.33375
 30
0.0
 11
9.84
 21
16.43125
 31
0.0
  0
LINE
  5
AD
330
8E
100
AcDbEntity
  8
0
  6
Continuous2
 62
     3
420
    65280
370
    -3
100
AcDbLine
 10
10.115
 20
16.4
 30
0.0
 11
9.87125
 21
16.4
 31
0.0
  0
LINE
  5
AF
330
8E
100
AcDbEntity
  8
0
  6
Continuous2
 62
     3
420
    65280
370
    -3
100
AcDbLine
 10
10.145
 20
16.04403371016846
 30
0.0
 11
10.145
 21
16.37
 31
0.0
  0
LINE
  5
B1
330
8E
100
AcDbEntity
  8
0
  6
Continuous2
 62
     3
420
    65280
370
    -3
100
AcDbLine
 10
9.87125
 20
17.365
 30
0.0
 11
10.115
 21
17.365
 31
0.0
  0
LINE
  5
B3
330
8E
100
AcDbEntity
  8
0
  6
Continuous2
 62
     3
420
    65280
370
    -3
100
AcDbLine
 10
10.145
 20
17.395
 30
0.0
 11
10.145
 21
17.448
 31
0.0
  0
ARC
  5
B5
330
8E
100
AcDbEntity
  8
0
  6
Continuous2
 62
     3
420
    65280
370
    -3
100
AcDbCircle
 10
9.87125
 20
17.33375
 30
0.0
 40
0.03125
100
AcDbArc
 50
90.0
 51
180.0000000000004
  0
ARC
  5
B7
330
8E
100
AcDbEntity
  8
0
  6
Continuous2
 62
     3
420
    65280
370
    -3
100
AcDbCircle
 10
9.87125
 20
16.43125
 30
0.0
 40
0.03125
100
AcDbArc
 50
179.9999999999998
 51
269.9999999999999
  0
LINE
  5
B9
330
8E
100
AcDbEntity
  8
0
  6
Continuous2
 62
     3
420
    65280
370
    -3
100
AcDbLine
 10
10.115
 20
16.4
 30
0.0
 11
10.145
 21
16.37
 31
0.0
  0
LINE
  5
BB
330
8E
100
AcDbEntity
  8
0
  6
Continuous2
 62
     3
420
    65280
370
    -3
100
AcDbLine
 10
10.115
 20
17.365
 30
0.0
 11
10.145
 21
17.395
 31
0.0
  0
LINE
  5
BD
330
8E
100
AcDbEntity
  8
0
  6
Continuous2
 62
     3
420
    65280
370
    -3
100
AcDbLine
 10
10.145
 20
17.395
 30
0.0
 11
10.145
 21
16.37
 31
0.0
  0
LINE
  5
BF
330
8E
100
AcDbEntity
  8
0
  6
Continuous2
 62
     3
420
    65280
370
    -3
100
AcDbLine
 10
10.115
 20
17.365
 30
0.0
 11
10.115
 21
16.4
 31
0.0
  0
LINE
  5
C1
330
8E
100
AcDbEntity
  8
0
  6
Continuous2
 62
     3
420
    65280
370
    -3
100
AcDbLine
 10
9.50999994277954
 20
16.04500001072883
 30
0.0
 11
9.50999994277954
 21
16.05
 31
0.0
  0
LINE
  5
C3
330
8E
100
AcDbEntity
  8
0
  6
Continuous2
 62
     3
420
    65280
370
    -3
100
AcDbLine
 10
9.369985991116582
 20
16.00078417047387
 30
0.0
 11
10.08501400888342
 21
15.98533019378238
 31
0.0
  0
LINE
  5
C5
330
8E
100
AcDbEntity
  8
0
  6
Continuous2
 62
     3
420
    65280
370
    -3
100
AcDbLine
 10
9.309999999999999
 20
16.0620806540878
 30
0.0
 11
9.31
 21
14.9379193459122
 31
0.0
  0
LINE
  5
C7
330
8E
100
AcDbEntity
  8
0
  6
Continuous2
 62
     3
420
    65280
370
    -3
100
AcDbLine
 10
9.31
 20
16.0620806540878
 30
0.0
 11
9.369985991116582
 21
16.00078417047387
 31
0.0
  0
LINE
  5
C9
330
8E
100
AcDbEntity
  8
0
  6
Continuous2
 62
     3
420
    65280
370
    -3
100
AcDbLine
 10
9.369985991116582
 20
16.00078417047387
 30
0.0
 11
9.369985991116584
 21
14.99921582952613
 31
0.0
  0
LINE
  5
CB
330
8E
100
AcDbEntity
  8
0
  6
Continuous2
 62
     3
420
    65280
370
    -3
100
AcDbLine
 10
10.08501400888342
 20
15.98533019378238
 30
0.0
 11
10.145
 21
16.04403371016846
 31
0.0
  0
LINE
  5
CD
330
8E
100
AcDbEntity
  8
0
  6
Continuous2
 62
     3
420
    65280
370
    -3
100
AcDbLine
 10
10.08501400888342
 20
15.98533019378238
 30
0.0
 11
10.08501400888342
 21
15.01466980621762
 31
0.0
  0
LINE
  5
CF
330
8E
100
AcDbEntity
  8
0
  6
Continuous2
 62
     3
420
    65280
370
    -3
100
AcDbLine
 10
10.145
 20
14.95596628983154
 30
0.0
 11
10.145
 21
16.04403371016846
 31
0.0
  0
LINE
  5
D1
330
8E
100
AcDbEntity
  8
0
  6
Continuous2
 62
     3
420
    65280
370
    -3
100
AcDbLine
 10
10.1303
 20
17.4627
 30
0.0
 11
9.729
 21
17.4627
 31
0.0
  0
LINE
  5
D3
330
8E
100
AcDbEntity
  8
0
  6
Continuous2
 62
     3
420
    65280
370
    -3
100
AcDbLine
 10
10.095
 20
17.498
 30
0.0
 11
9.729
 21
17.498
 31
0.0
  0
LINE
  5
D5
330
8E
100
AcDbEntity
  8
0
  6
Continuous2
 62
     3
420
    65280
370
    -3
100
AcDbLine
 10
10.145
 20
17.448
 30
0.0
 11
10.095
 21
17.498
 31
0.0
  0
LINE
  5
D7
330
8E
100
AcDbEntity
  8
0
  6
Continuous2
 62
     3
420
    65280
370
    -3
100
AcDbLine
 10
9.59
 20
17.432
 30
0.0
 11
9.59
 21
17.52
 31
0.0
  0
LINE
  5
D9
330
8E
100
AcDbEntity
  8
0
  6
Continuous2
 62
     3
420
    65280
370
    -3
100
AcDbLine
 10
9.729
 20
17.498
 30
0.0
 11
9.729
 21
17.432
 31
0.0
  0
LINE
  5
DB
330
8E
100
AcDbEntity
  8
0
  6
Continuous2
 62
     3
420
    65280
370
    -3
100
AcDbLine
 10
9.71399999828905
 20
17.417
 30
0.0
 11
9.605
 21
17.417
 31
0.0
  0
ARC
  5
DD
330
8E
100
AcDbEntity
  8
0
  6
Continuous2
 62
     3
420
    65280
370
    -3
100
AcDbCircle
 10
9.605
 20
17.432
 30
0.0
 40
0.015
100
AcDbArc
 50
180.0
 51
269.9999999999999
  0
ARC
  5
DF
330
8E
100
AcDbEntity
  8
0
  6
Continuous2
 62
     3
420
    65280
370
    -3
100
AcDbCircle
 10
9.713999999999999
 20
17.432
 30
0.0
 40
0.015
100
AcDbArc
 50
269.9999999999999
 51
359.9999999999999
  0
LINE
  5
E1
330
8E
100
AcDbEntity
  8
0
  6
Continuous2
 62
     3
420
    65280
370
    -3
100
AcDbLine
 10
9.31
 20
14.9379193459122
 30
0.0
 11
9.31
 21
13.41
 31
0.0
  0
LINE
  5
E3
330
8E
100
AcDbEntity
  8
0
  6
Continuous2
 62
     3
420
    65280
370
    -3
100
AcDbLine
 10
9.370000000000001
 20
13.35
 30
0.0
 11
9.55
 21
13.35
 31
0.0
  0
LINE
  5
E5
330
8E
100
AcDbEntity
  8
0
  6
Continuous2
 62
     3
420
    65280
370
    -3
100
AcDbLine
 10
9.31
 20
13.41
 30
0.0
 11
9.370000000000001
 21
13.35
 31
0.0
  0
LINE
  5
E7
330
8E
100
AcDbEntity
  8
0
  6
Continuous2
 62
     3
420
    65280
370
    -3
100
AcDbLine
 10
9.84
 20
13.66625
 30
0.0
 11
9.84
 21
14.56875
 31
0.0
  0
LINE
  5
E9
330
8E
100
AcDbEntity
  8
0
  6
Continuous2
 62
     3
420
    65280
370
    -3
100
AcDbLine
 10
10.115
 20
14.6
 30
0.0
 11
9.87125
 21
14.6
 31
0.0
  0
LINE
  5
EB
330
8E
100
AcDbEntity
  8
0
  6
Continuous2
 62
     3
420
    65280
370
    -3
100
AcDbLine
 10
10.145
 20
14.95596628983154
 30
0.0
 11
10.145
 21
14.63
 31
0.0
  0
LINE
  5
ED
330
8E
100
AcDbEntity
  8
0
  6
Continuous2
 62
     3
420
    65280
370
    -3
100
AcDbLine
 10
9.87125
 20
13.635
 30
0.0
 11
10.115
 21
13.635
 31
0.0
  0
ARC
  5
EF
330
8E
100
AcDbEntity
  8
0
  6
Continuous2
 62
     3
420
    65280
370
    -3
100
AcDbCircle
 10
9.87125
 20
13.66625
 30
0.0
 40
0.0312499999999996
100
AcDbArc
 50
179.9999999999988
 51
270.0000000000007
  0
ARC
  5
F1
330
8E
100
AcDbEntity
  8
0
  6
Continuous2
 62
     3
420
    65280
370
    -3
100
AcDbCircle
 10
9.87125
 20
14.56875
 30
0.0
 40
0.0312499999999996
100
AcDbArc
 50
89.99999999999919
 51
180.0000000000012
  0
LINE
  5
F3
330
8E
100
AcDbEntity
  8
0
  6
Continuous2
 62
     3
420
    65280
370
    -3
100
AcDbLine
 10
10.115
 20
14.6
 30
0.0
 11
10.145
 21
14.63
 31
0.0
  0
LINE
  5
F5
330
8E
100
AcDbEntity
  8
0
  6
Continuous2
 62
     3
420
    65280
370
    -3
100
AcDbLine
 10
10.115
 20
13.635
 30
0.0
 11
10.145
 21
13.605
 31
0.0
  0
LINE
  5
F7
330
8E
100
AcDbEntity
  8
0
  6
Continuous2
 62
     3
420
    65280
370
    -3
100
AcDbLine
 10
10.145
 20
13.605
 30
0.0
 11
10.145
 21
14.63
 31
0.0
  0
LINE
  5
F9
330
8E
100
AcDbEntity
  8
0
  6
Continuous2
 62
     3
420
    65280
370
    -3
100
AcDbLine
 10
10.115
 20
13.635
 30
0.0
 11
10.115
 21
14.6
 31
0.0
  0
LINE
  5
FB
330
8E
100
AcDbEntity
  8
0
  6
Continuous2
 62
     3
420
    65280
370
    -3
100
AcDbLine
 10
9.50999994277954
 20
14.95499998927116
 30
0.0
 11
9.50999994277954
 21
14.95
 31
0.0
  0
LINE
  5
FD
330
8E
100
AcDbEntity
  8
0
  6
Continuous2
 62
     3
420
    65280
370
    -3
100
AcDbLine
 10
9.369985991116582
 20
14.99921582952613
 30
0.0
 11
10.08501400888342
 21
15.01466980621762
 31
0.0
  0
LINE
  5
FF
330
8E
100
AcDbEntity
  8
0
  6
Continuous2
 62
     3
420
    65280
370
    -3
100
AcDbLine
 10
9.31
 20
14.9379193459122
 30
0.0
 11
9.369985991116582
 21
14.99921582952613
 31
0.0
  0
LINE
  5
101
330
8E
100
AcDbEntity
  8
0
  6
Continuous2
 62
     3
420
    65280
370
    -3
100
AcDbLine
 10
10.08501400888342
 20
15.01466980621762
 30
0.0
 11
10.145
 21
14.95596628983154
 31
0.0
  0
LINE
  5
103
330
8E
100
AcDbEntity
  8
0
  6
Continuous2
 62
     3
420
    65280
370
    -3
100
AcDbLine
 10
10.145
 20
13.605
 30
0.0
 11
10.145
 21
13.552
 31
0.0
  0
LINE
  5
105
330
8E
100
AcDbEntity
  8
0
  6
Continuous2
 62
     3
420
    65280
370
    -3
100
AcDbLine
 10
10.145
 20
13.552
 30
0.0
 11
10.095
 21
13.502
 31
0.0
  0
LINE
  5
107
330
8E
100
AcDbEntity
  8
0
  6
Continuous2
 62
     3
420
    65280
370
    -3
100
AcDbLine
 10
10.1303
 20
13.5373
 30
0.0
 11
9.729
 21
13.5373
 31
0.0
  0
LINE
  5
109
330
8E
100
AcDbEntity
  8
0
  6
Continuous2
 62
     3
420
    65280
370
    -3
100
AcDbLine
 10
9.59
 20
13.568
 30
0.0
 11
9.59
 21
13.48
 31
0.0
  0
LINE
  5
10B
330
8E
100
AcDbEntity
  8
0
  6
Continuous2
 62
     3
420
    65280
370
    -3
100
AcDbLine
 10
9.71399999828905
 20
13.583
 30
0.0
 11
9.605
 21
13.583
 31
0.0
  0
ARC
  5
10D
330
8E
100
AcDbEntity
  8
0
  6
Continuous2
 62
     3
420
    65280
370
    -3
100
AcDbCircle
 10
9.604999999999999
 20
13.568
 30
0.0
 40
0.0149999999999997
100
AcDbArc
 50
89.9999999999983
 51
180.0000000000008
  0
ARC
  5
10F
330
8E
100
AcDbEntity
  8
0
  6
Continuous2
 62
     3
420
    65280
370
    -3
100
AcDbCircle
 10
9.713999999999999
 20
13.568
 30
0.0
 40
0.0149999999999997
100
AcDbArc
 50
359.9999999999991
 51
90.0000000000017
  0
LINE
  5
111
330
8E
100
AcDbEntity
  8
0
  6
Continuous2
 62
     3
420
    65280
370
    -3
100
AcDbLine
 10
9.559999999999999
 20
13.455
 30
0.0
 11
9.56
 21
13.36
 31
0.0
  0
LINE
  5
113
330
8E
100
AcDbEntity
  8
0
  6
Continuous2
 62
     3
420
    65280
370
    -3
100
AcDbLine
 10
10.095
 20
13.502
 30
0.0
 11
9.729
 21
13.502
 31
0.0
  0
LINE
  5
115
330
8E
100
AcDbEntity
  8
0
  6
Continuous2
 62
     3
420
    65280
370
    -3
100
AcDbLine
 10
9.729
 20
13.502
 30
0.0
 11
9.729
 21
13.568
 31
0.0
  0
LINE
  5
117
330
8E
100
AcDbEntity
  8
0
  6
Continuous2
 62
     3
420
    65280
370
    -3
100
AcDbLine
 10
9.55
 20
13.35
 30
0.0
 11
9.56
 21
13.36
 31
0.0
  0
LINE
  5
119
330
8E
100
AcDbEntity
  8
0
  6
Continuous2
 62
     3
420
    65280
370
    -3
100
AcDbLine
 10
9.56
 20
17.64
 30
0.0
 11
9.55
 21
17.65
 31
0.0
  0
LINE
  5
11B
330
8E
100
AcDbEntity
  8
0
  6
Continuous2
 62
     3
420
    65280
370
    -3
100
AcDbLine
 10
9.579999999999998
 20
17.53
 30
0.0
 11
9.575
 21
17.53
 31
0.0
  0
ARC
  5
11D
330
8E
100
AcDbEntity
  8
0
  6
Continuous2
 62
     3
420
    65280
370
    -3
100
AcDbCircle
 10
9.575
 20
17.545
 30
0.0
 40
0.015
100
AcDbArc
 50
180.0
 51
269.9999999999999
  0
LINE
  5
11F
330
8E
100
AcDbEntity
  8
0
  6
Continuous2
 62
     3
420
    65280
370
    -3
100
AcDbLine
 10
9.579999999999998
 20
17.53
 30
0.0
 11
9.59
 21
17.52
 31
0.0
  0
LINE
  5
121
330
8E
100
AcDbEntity
  8
0
  6
Continuous2
 62
     3
420
    65280
370
    -3
100
AcDbLine
 10
9.579999999999998
 20
13.47
 30
0.0
 11
9.575
 21
13.47
 31
0.0
  0
ARC
  5
123
330
8E
100
AcDbEntity
  8
0
  6
Continuous2
 62
     3
420
    65280
370
    -3
100
AcDbCircle
 10
9.575
 20
13.455
 30
0.0
 40
0.015
100
AcDbArc
 50
89.99999999999831
 51
180.0000000000016
  0
LINE
  5
125
330
8E
100
AcDbEntity
  8
0
  6
Continuous2
 62
     3
420
    65280
370
    -3
100
AcDbLine
 10
9.579999999999998
 20
13.47
 30
0.0
 11
9.59
 21
13.48
 31
0.0
  0
TEXT
  5
173
330
8E
100
AcDbEntity
  8
0
  6
Continuous2
 62
     3
420
    65280
370
    -3
100
AcDbText
 10
6.914947296643762
 20
12.87345356762281
 30
0.0
 40
0.1
  1
3/4-14 NPT
 41
0.5
  7
MCStick_A0.500000_S0.000000
 72
     1
 11
7.161375868072333
 21
12.92345356762281
 31
0.0
100
AcDbText
 73
     2
  0
LEADER
  5
174
330
8E
100
AcDbEntity
  8
0
  6
Continuous2
 62
     3
420
    65280
370
    -3
100
AcDbLeader
  3
Standard
 76
     3
 10
5.5
 20
14.97
 30
0.0
 10
6.817256848464489
 20
12.91215549069973
 30
0.0
 10
6.86725684846449
 20
12.91215549069973
 30
0.0
  0
TEXT
  5
177
330
8E
100
AcDbEntity
  8
0
  6
Continuous2
 62
     3
420
    65280
370
    -3
100
AcDbText
 10
10.95360163511928
 20
17.29102381026162
 30
0.0
 40
0.1
  1
GROOVE 0.965 WD 0.305 DP
 41
0.5
  7
MCStick_A0.500000_S0.000000
 72
     1
 11
11.51431592083356
 21
17.34102381026162
 31
0.0
100
AcDbText
 73
     2
  0
LEADER
  5
178
330
8E
100
AcDbEntity
  8
0
  6
Continuous2
 62
     3
420
    65280
370
    -3
100
AcDbLeader
  3
Standard
 76
     3
 10
10.115
 20
16.8825
 30
0.0
 10
10.81029494044141
 20
17.32972573333854
 30
0.0
 10
10.86029494044141
 20
17.32972573333854
 30
0.0
  0
TEXT
  5
17B
330
8E
100
AcDbEntity
  8
0
  6
Continuous2
 62
     3
420
    65280
370
    -3
100
AcDbText
 10
10.79109101695367
 20
18.56845016321586
 30
0.0
 40
0.1
  1
4"-16 UN THD
 41
0.5
  7
MCStick_A0.500000_S0.000000
 72
     1
 11
11.08156720742986
 21
18.61845016321586
 31
0.0
100
AcDbText
 73
     2
  0
LEADER
  5
17C
330
8E
100
AcDbEntity
  8
0
  6
Continuous2
 62
     3
420
    65280
370
    -3
100
AcDbLeader
  3
Standard
 76
     3
 10
9.912
 20
17.498
 30
0.0
 10
10.69989916821418
 20
18.60715208629279
 30
0.0
 10
10.74989916821418
 20
18.60715208629279
 30
0.0
  0
TEXT
  5
25B
330
8E
100
AcDbEntity
  8
0
  6
Continuous2
 62
     3
420
    65280
370
    -3
100
AcDbText
 10
9.937853551050617
 20
12.65333846255363
 30
0.0
 40
0.1
  1
CHAM 0.010 x 45 DEG.
 41
0.5
  7
MCStick_A0.500000_S0.000000
 72
     1
 11
10.393805932003
 21
12.70333846255363
 31
0.0
100
AcDbText
 73
     2
  0
LEADER
  5
25C
330
8E
100
AcDbEntity
  8
0
  6
Continuous2
 62
     3
420
    65280
370
    -3
100
AcDbLeader
  3
Standard
 76
     3
 10
9.59
 20
13.48
 30
0.0
 10
9.822235932002997
 20
12.69204038563055
 30
0.0
 10
9.872235932002997
 20
12.69204038563055
 30
0.0
  0
TEXT
  5
25F
330
8E
100
AcDbEntity
  8
0
  6
Continuous2
 62
     3
420
    65280
370
    -3
100
AcDbText
 10
8.66603024211948
 20
13.23531761595686
 30
0.0
 40
0.1
  1
R 0.015
 41
0.5
  7
MCStick_A0.500000_S0.000000
 72
     1
 11
8.819601670690908
 21
13.28531761595686
 31
0.0
100
AcDbText
 73
     2
  0
LEADER
  5
260
330
8E
100
AcDbEntity
  8
0
  6
Continuous2
 62
     3
420
    65280
370
    -3
100
AcDbLeader
  3
Standard
 76
     3
 10
9.559999999999999
 20
13.455
 30
0.0
 10
9.05244618049483
 20
13.27401953903378
 30
0.0
 10
9.00244618049483
 20
13.27401953903378
 30
0.0
  0
TEXT
  5
263
330
8E
100
AcDbEntity
  8
0
  6
Continuous2
 62
     3
420
    65280
370
    -3
100
AcDbText
 10
9.378364689395156
 20
13.97514805238235
 30
0.0
 40
0.1
  1
R 0.032
 41
0.5
  7
MCStick_A0.500000_S0.000000
 72
     1
 11
9.531936117966584
 21
14.02514805238235
 31
0.0
100
AcDbText
 73
     2
  0
LEADER
  5
264
330
8E
100
AcDbEntity
  8
0
  6
Continuous2
 62
     3
420
    65280
370
    -3
100
AcDbLeader
  3
Standard
 76
     3
 10
9.713999999999999
 20
13.583
 30
0.0
 10
9.777231608162662
 20
14.01384997545927
 30
0.0
 10
9.727231608162661
 20
14.01384997545927
 30
0.0
  0
TEXT
  5
266
330
8E
100
AcDbEntity
  8
0
  6
Continuous2
 62
     3
420
    65280
370
    -3
100
AcDbText
 10
11.1016204392574
 20
16.80226309082615
 30
0.0
 40
0.1
  1
TYP.
 41
0.5
  7
MCStick_A0.500000_S0.000000
 72
     1
 11
11.17423948687645
 21
16.85226309082615
 31
0.0
100
AcDbText
 73
     2
  0
TEXT
  5
269
330
8E
100
AcDbEntity
  8
0
  6
Continuous2
 62
     3
420
    65280
370
    -3
100
AcDbText
 10
10.70033952340084
 20
16.8112936792928
 30
0.0
 40
0.1
  1
R 0.030
 41
0.5
  7
MCStick_A0.500000_S0.000000
 72
     1
 11
10.85391095197227
 21
16.8612936792928
 31
0.0
100
AcDbText
 73
     2
  0
LEADER
  5
26A
330
8E
100
AcDbEntity
  8
0
  6
Continuous2
 62
     3
420
    65280
370
    -3
100
AcDbLeader
  3
Standard
 76
     3
 10
9.87125
 20
16.43125
 30
0.0
 10
10.60861546177619
 20
16.84999560236973
 30
0.0
 10
10.65861546177619
 20
16.84999560236973
 30
0.0
  0
ENDBLK
  5
90
330
8E
100
AcDbEntity
  8
0
100
AcDbBlockEnd
  0
BLOCK
  5
13D
330
13C
100
AcDbEntity
  8
0
100
AcDbBlockBegin
  2
Oda1751011_HOUSING1
 70
     0
 10
0.0
 20
0.0
 30
0.0
  3
Oda1751011_HOUSING1
  1

  0
ENDBLK
  5
13E
330
13C
100
AcDbEntity
  8
0
100
AcDbBlockEnd
  0
ENDSEC
  0
SECTION
  2
ENTITIES
  0
LINE
  5
45
330
1F
100
AcDbEntity
  8
Title Block
  6
Continuous2
 62
     7
420
 16777215
370
    -3
100
AcDbLine
 10
0.0
 20
10.0
 30
0.0
 11
16.0
 21
10.0
 31
0.0
  0
LINE
  5
46
330
1F
100
AcDbEntity
  8
Title Block
  6
Continuous2
 62
     7
420
 16777215
370
    -3
100
AcDbLine
 10
16.0
 20
20.0
 30
0.0
 11
0.0
 21
20.0
 31
0.0
  0
LINE
  5
47
330
1F
100
AcDbEntity
  8
Title Block
  6
Continuous2
 62
     7
420
 16777215
370
    -3
100
AcDbLine
 10
0.6200000000000045
 20
10.38
 30
0.0
 11
15.38
 21
10.38
 31
0.0
  0
LINE
  5
48
330
1F
100
AcDbEntity
  8
Title Block
  6
Continuous2
 62
     7
420
 16777215
370
    -3
100
AcDbLine
 10
15.38
 20
19.62
 30
0.0
 11
0.6200000000000045
 21
19.62
 31
0.0
  0
LINE
  5
49
330
1F
100
AcDbEntity
  8
Title Block
  6
Continuous2
 62
     7
420
 16777215
370
    -3
100
AcDbLine
 10
7.849999999999994
 20
10.23
 30
0.0
 11
8.150000000000006
 21
10.23
 31
0.0
  0
LINE
  5
4A
330
1F
100
AcDbEntity
  8
Title Block
  6
Continuous2
 62
     7
420
 16777215
370
    -3
100
AcDbLine
 10
7.849999999999994
 20
10.23
 30
0.0
 11
8.0
 21
10.38
 31
0.0
  0
LINE
  5
4B
330
1F
100
AcDbEntity
  8
Title Block
  6
Continuous2
 62
     7
420
 16777215
370
    -3
100
AcDbLine
 10
8.150000000000006
 20
10.23
 30
0.0
 11
8.0
 21
10.38
 31
0.0
  0
LINE
  5
4C
330
1F
100
AcDbEntity
  8
Title Block
  6
Continuous2
 62
     7
420
 16777215
370
    -3
100
AcDbLine
 10
7.849999999999994
 20
19.77
 30
0.0
 11
8.150000000000006
 21
19.77
 31
0.0
  0
LINE
  5
4D
330
1F
100
AcDbEntity
  8
Title Block
  6
Continuous2
 62
     7
420
 16777215
370
    -3
100
AcDbLine
 10
7.849999999999994
 20
19.77
 30
0.0
 11
8.0
 21
19.62
 31
0.0
  0
LINE
  5
4E
330
1F
100
AcDbEntity
  8
Title Block
  6
Continuous2
 62
     7
420
 16777215
370
    -3
100
AcDbLine
 10
8.150000000000006
 20
19.77
 30
0.0
 11
8.0
 21
19.62
 31
0.0
  0
LINE
  5
4F
330
1F
100
AcDbEntity
  8
Title Block
  6
Continuous2
 62
     7
420
 16777215
370
    -3
100
AcDbLine
 10
0.0
 20
20.0
 30
0.0
 11
0.0
 21
10.0
 31
0.0
  0
LINE
  5
50
330
1F
100
AcDbEntity
  8
Title Block
  6
Continuous2
 62
     7
420
 16777215
370
    -3
100
AcDbLine
 10
0.6200000000000045
 20
19.62
 30
0.0
 11
0.6200000000000045
 21
10.38
 31
0.0
  0
LINE
  5
51
330
1F
100
AcDbEntity
  8
Title Block
  6
Continuous2
 62
     7
420
 16777215
370
    -3
100
AcDbLine
 10
0.480000000000004
 20
14.85
 30
0.0
 11
0.480000000000004
 21
15.15
 31
0.0
  0
LINE
  5
52
330
1F
100
AcDbEntity
  8
Title Block
  6
Continuous2
 62
     7
420
 16777215
370
    -3
100
AcDbLine
 10
0.480000000000004
 20
14.85
 30
0.0
 11
0.6200000000000045
 21
15.0
 31
0.0
  0
LINE
  5
53
330
1F
100
AcDbEntity
  8
Title Block
  6
Continuous2
 62
     7
420
 16777215
370
    -3
100
AcDbLine
 10
0.480000000000004
 20
15.15
 30
0.0
 11
0.6200000000000045
 21
15.0
 31
0.0
  0
LINE
  5
54
330
1F
100
AcDbEntity
  8
Title Block
  6
Continuous2
 62
     7
420
 16777215
370
    -3
100
AcDbLine
 10
8.0
 20
10.13
 30
0.0
 11
8.0
 21
10.23
 31
0.0
  0
LINE
  5
55
330
1F
100
AcDbEntity
  8
Title Block
  6
Continuous2
 62
     7
420
 16777215
370
    -3
100
AcDbLine
 10
0.3799999999999955
 20
15.0
 30
0.0
 11
0.480000000000004
 21
15.0
 31
0.0
  0
LINE
  5
56
330
1F
100
AcDbEntity
  8
Title Block
  6
Continuous2
 62
     7
420
 16777215
370
    -3
100
AcDbLine
 10
8.0
 20
19.87
 30
0.0
 11
8.0
 21
19.77
 31
0.0
  0
LINE
  5
57
330
1F
100
AcDbEntity
  8
Title Block
  6
Continuous2
 62
     7
420
 16777215
370
    -3
100
AcDbLine
 10
16.0
 20
10.0
 30
0.0
 11
16.0
 21
20.0
 31
0.0
  0
LINE
  5
58
330
1F
100
AcDbEntity
  8
Title Block
  6
Continuous2
 62
     7
420
 16777215
370
    -3
100
AcDbLine
 10
15.38
 20
10.38
 30
0.0
 11
15.38
 21
19.62
 31
0.0
  0
LINE
  5
59
330
1F
100
AcDbEntity
  8
Title Block
  6
Continuous2
 62
     7
420
 16777215
370
    -3
100
AcDbLine
 10
15.52
 20
14.85
 30
0.0
 11
15.52
 21
15.15
 31
0.0
  0
LINE
  5
5A
330
1F
100
AcDbEntity
  8
Title Block
  6
Continuous2
 62
     7
420
 16777215
370
    -3
100
AcDbLine
 10
15.52
 20
14.85
 30
0.0
 11
15.38
 21
15.0
 31
0.0
  0
LINE
  5
5B
330
1F
100
AcDbEntity
  8
Title Block
  6
Continuous2
 62
     7
420
 16777215
370
    -3
100
AcDbLine
 10
15.52
 20
15.15
 30
0.0
 11
15.38
 21
15.0
 31
0.0
  0
LINE
  5
5C
330
1F
100
AcDbEntity
  8
Title Block
  6
Continuous2
 62
     7
420
 16777215
370
    -3
100
AcDbLine
 10
9.129999999999995
 20
12.13
 30
0.0
 11
15.38
 21
12.13
 31
0.0
  0
LINE
  5
5D
330
1F
100
AcDbEntity
  8
Title Block
  6
Continuous2
 62
     7
420
 16777215
370
    -3
100
AcDbLine
 10
9.129999999999995
 20
11.01
 30
0.0
 11
15.38
 21
11.01
 31
0.0
  0
LINE
  5
5E
330
1F
100
AcDbEntity
  8
Title Block
  6
Continuous2
 62
     7
420
 16777215
370
    -3
100
AcDbLine
 10
11.13
 20
10.63
 30
0.0
 11
15.38
 21
10.63
 31
0.0
  0
LINE
  5
5F
330
1F
100
AcDbEntity
  8
Title Block
  6
Continuous2
 62
     7
420
 16777215
370
    -3
100
AcDbLine
 10
11.13
 20
11.63
 30
0.0
 11
15.38
 21
11.63
 31
0.0
  0
LINE
  5
60
330
1F
100
AcDbEntity
  8
Title Block
  6
Continuous2
 62
     7
420
 16777215
370
    -3
100
AcDbLine
 10
9.129999999999995
 20
10.38
 30
0.0
 11
9.129999999999995
 21
12.13
 31
0.0
  0
LINE
  5
61
330
1F
100
AcDbEntity
  8
Title Block
  6
Continuous2
 62
     7
420
 16777215
370
    -3
100
AcDbLine
 10
11.13
 20
10.38
 30
0.0
 11
11.13
 21
12.13
 31
0.0
  0
LINE
  5
62
330
1F
100
AcDbEntity
  8
Title Block
  6
Continuous2
 62
     7
420
 16777215
370
    -3
100
AcDbLine
 10
9.129999999999995
 20
10.695
 30
0.0
 11
11.13
 21
10.695
 31
0.0
  0
LINE
  5
63
330
1F
100
AcDbEntity
  8
Title Block
  6
Continuous2
 62
     7
420
 16777215
370
    -3
100
AcDbLine
 10
11.51000000000001
 20
10.63
 30
0.0
 11
11.51000000000001
 21
11.01
 31
0.0
  0
LINE
  5
64
330
1F
100
AcDbEntity
  8
Title Block
  6
Continuous2
 62
     7
420
 16777215
370
    -3
100
AcDbLine
 10
12.13
 20
10.38
 30
0.0
 11
12.13
 21
10.63
 31
0.0
  0
LINE
  5
65
330
1F
100
AcDbEntity
  8
Title Block
  6
Continuous2
 62
     7
420
 16777215
370
    -3
100
AcDbLine
 10
12.63
 20
10.63
 30
0.0
 11
12.63
 21
11.01
 31
0.0
  0
LINE
  5
66
330
1F
100
AcDbEntity
  8
Title Block
  6
Continuous2
 62
     7
420
 16777215
370
    -3
100
AcDbLine
 10
13.63
 20
10.38
 30
0.0
 11
13.63
 21
10.63
 31
0.0
  0
LINE
  5
67
330
1F
100
AcDbEntity
  8
Title Block
  6
Continuous2
 62
     7
420
 16777215
370
    -3
100
AcDbLine
 10
15.0
 20
10.63
 30
0.0
 11
15.0
 21
11.01
 31
0.0
  0
LINE
  5
68
330
1F
100
AcDbEntity
  8
Title Block
  6
Continuous2
 62
     7
420
 16777215
370
    -3
100
AcDbLine
 10
9.879999999999995
 20
19.37
 30
0.0
 11
15.38
 21
19.37
 31
0.0
  0
LINE
  5
69
330
1F
100
AcDbEntity
  8
Title Block
  6
Continuous2
 62
     7
420
 16777215
370
    -3
100
AcDbLine
 10
9.879999999999995
 20
19.12
 30
0.0
 11
15.38
 21
19.12
 31
0.0
  0
LINE
  5
6A
330
1F
100
AcDbEntity
  8
Title Block
  6
Continuous2
 62
     7
420
 16777215
370
    -3
100
AcDbLine
 10
9.879999999999995
 20
19.62
 30
0.0
 11
9.879999999999995
 21
18.5727
 31
0.0
  0
LINE
  5
6B
330
1F
100
AcDbEntity
  8
Title Block
  6
Continuous2
 62
     7
420
 16777215
370
    -3
100
AcDbLine
 10
10.38
 20
19.12
 30
0.0
 11
10.38
 21
19.37
 31
0.0
  0
LINE
  5
6C
330
1F
100
AcDbEntity
  8
Title Block
  6
Continuous2
 62
     7
420
 16777215
370
    -3
100
AcDbLine
 10
10.76000000000001
 20
19.12
 30
0.0
 11
10.76000000000001
 21
19.37
 31
0.0
  0
LINE
  5
6D
330
1F
100
AcDbEntity
  8
Title Block
  6
Continuous2
 62
     7
420
 16777215
370
    -3
100
AcDbLine
 10
15.62
 20
15.0
 30
0.0
 11
15.52
 21
15.0
 31
0.0
  0
LINE
  5
6E
330
1F
100
AcDbEntity
  8
Title Block
  6
Continuous2
 62
     7
420
 16777215
370
    -3
100
AcDbLine
 10
13.5
 20
19.12
 30
0.0
 11
13.5
 21
19.37
 31
0.0
  0
LINE
  5
6F
330
1F
100
AcDbEntity
  8
Title Block
  6
Continuous2
 62
     7
420
 16777215
370
    -3
100
AcDbLine
 10
14.38
 20
19.12
 30
0.0
 11
14.38
 21
19.37
 31
0.0
  0
TEXT
  5
70
330
1F
100
AcDbEntity
  8
0
  6
Continuous2
 62
     3
420
    65280
370
    -3
100
AcDbText
 10
-0.05
 20
10.0
 30
0.0
 40
0.15
  1
USER
 50
90.0
 41
0.8
  7
MCStick_A0.800000_S0.000000
100
AcDbText
  0
TEXT
  5
72
330
1F
100
AcDbEntity
  8
0
  6
Continuous2
 62
     3
420
    65280
370
    -3
100
AcDbText
 10
-0.05
 20
13.0
 30
0.0
 40
0.15
  1
REVDATE
 50
90.0
 41
0.8
  7
MCStick_A0.800000_S0.000000
100
AcDbText
  0
TEXT
  5
73
330
1F
100
AcDbEntity
  8
0
  6
Continuous2
 62
     3
420
    65280
370
    -3
100
AcDbText
 10
-0.05
 20
16.0
 30
0.0
 40
0.15
  1
FNAME
 50
90.0
 41
0.8
  7
MCStick_A0.800000_S0.000000
100
AcDbText
  0
TEXT
  5
74
330
1F
100
AcDbEntity
  8
Title Block
  6
Continuous2
 62
     7
420
 16777215
370
    -3
100
AcDbText
 10
11.1823
 20
10.4725
 30
0.0
 40
0.065
  1
SCALE
 41
0.8
  7
MCStick_A0.800000_S0.000000
100
AcDbText
  0
TEXT
  5
75
330
1F
100
AcDbEntity
  8
Title Block
  6
Continuous2
 62
     7
420
 16777215
370
    -3
100
AcDbText
 10
11.2179
 20
10.8959
 30
0.0
 40
0.065
  1
SIZE
 41
0.8
  7
MCStick_A0.800000_S0.000000
100
AcDbText
  0
TEXT
  5
76
330
1F
100
AcDbEntity
  8
Title Block
  6
Continuous2
 62
     7
420
 16777215
370
    -3
100
AcDbText
 10
12.70099999999999
 20
10.8959
 30
0.0
 40
0.065
  1
DWG NO.
 41
0.8
  7
MCStick_A0.800000_S0.000000
100
AcDbText
  0
TEXT
  5
77
330
1F
100
AcDbEntity
  8
Title Block
  6
Continuous2
 62
     7
420
 16777215
370
    -3
100
AcDbText
 10
13.6828
 20
10.4725
 30
0.0
 40
0.065
  1
SHEET
 41
0.8
  7
MCStick_A0.800000_S0.000000
100
AcDbText
  0
TEXT
  5
78
330
1F
100
AcDbEntity
  8
Title Block
  6
Continuous2
 62
     7
420
 16777215
370
    -3
100
AcDbText
 10
15.0805
 20
10.8959
 30
0.0
 40
0.065
  1
REV
 41
0.8
  7
MCStick_A0.800000_S0.000000
100
AcDbText
  0
TEXT
  5
79
330
1F
100
AcDbEntity
  8
Title Block
  6
Continuous2
 62
     7
420
 16777215
370
    -3
100
AcDbText
 10
9.988699999999994
 20
19.2103
 30
0.0
 40
0.065
  1
ZONE
 41
0.8
  7
MCStick_A0.800000_S0.000000
100
AcDbText
  0
TEXT
  5
7A
330
1F
100
AcDbEntity
  8
Title Block
  6
Continuous2
 62
     7
420
 16777215
370
    -3
100
AcDbText
 10
10.4601
 20
19.2103
 30
0.0
 40
0.065
  1
REV
 41
0.8
  7
MCStick_A0.800000_S0.000000
100
AcDbText
  0
TEXT
  5
7B
330
1F
100
AcDbEntity
  8
Title Block
  6
Continuous2
 62
     7
420
 16777215
370
    -3
100
AcDbText
 10
11.762
 20
19.2103
 30
0.0
 40
0.065
  1
DESCRIPTION
 41
0.8
  7
MCStick_A0.800000_S0.000000
100
AcDbText
  0
TEXT
  5
7C
330
1F
100
AcDbEntity
  8
Title Block
  6
Continuous2
 62
     7
420
 16777215
370
    -3
100
AcDbText
 10
12.5902
 20
19.4525
 30
0.0
 40
0.065
  1
REVISIONS
 41
0.8
  7
MCStick_A0.800000_S0.000000
100
AcDbText
  0
TEXT
  5
7D
330
1F
100
AcDbEntity
  8
Title Block
  6
Continuous2
 62
     7
420
 16777215
370
    -3
100
AcDbText
 10
14.62139999999999
 20
19.2103
 30
0.0
 40
0.065
  1
APPROVED
 41
0.8
  7
MCStick_A0.800000_S0.000000
100
AcDbText
  0
TEXT
  5
7E
330
1F
100
AcDbEntity
  8
Title Block
  6
Continuous2
 62
     7
420
 16777215
370
    -3
100
AcDbText
 10
13.82769999999999
 20
19.2103
 30
0.0
 40
0.065
  1
DATE
 41
0.8
  7
MCStick_A0.800000_S0.000000
100
AcDbText
  0
TEXT
  5
7F
330
1F
100
AcDbEntity
  8
0
  6
Continuous2
 62
     3
420
    65280
370
    -3
100
AcDbText
 10
-0.05
 20
10.0
 30
0.0
 40
0.15
  1
USER
 50
90.0
 41
0.8
  7
MCStick_A0.800000_S0.000000
100
AcDbText
  0
TEXT
  5
80
330
1F
100
AcDbEntity
  8
0
  6
Continuous2
 62
     3
420
    65280
370
    -3
100
AcDbText
 10
-0.05
 20
13.0
 30
0.0
 40
0.15
  1
REVDATE
 50
90.0
 41
0.8
  7
MCStick_A0.800000_S0.000000
100
AcDbText
  0
TEXT
  5
81
330
1F
100
AcDbEntity
  8
0
  6
Continuous2
 62
     3
420
    65280
370
    -3
100
AcDbText
 10
-0.05
 20
16.0
 30
0.0
 40
0.15
  1
FNAME
 50
90.0
 41
0.8
  7
MCStick_A0.800000_S0.000000
100
AcDbText
  0
TEXT
  5
82
330
1F
100
AcDbEntity
  8
0
  6
Continuous2
 62
     3
420
    65280
370
    -3
100
AcDbText
 10
15.16382532746627
 20
10.71252752908757
 30
0.0
 40
0.1
  1
A
 41
0.5
  7
MCStick_A0.500000_S0.000000
 72
     1
 11
15.18406342270436
 21
10.76252752908757
 31
0.0
100
AcDbText
 73
     2
  0
TEXT
  5
84
330
1F
100
AcDbEntity
  8
0
  6
Continuous2
 62
     3
420
    65280
370
    -3
100
AcDbText
 10
11.18683568995997
 20
10.69538007723129
 30
0.0
 40
0.1
  1
ANSI A
 41
0.5
  7
MCStick_A0.500000_S0.000000
 72
     1
 11
11.31302616615045
 21
10.74538007723129
 31
0.0
100
AcDbText
 73
     2
  0
TEXT
  5
85
330
1F
100
AcDbEntity
  8
0
  6
Continuous2
 62
     3
420
    65280
370
    -3
100
AcDbText
 10
11.77308409645472
 20
11.7213540930784
 30
0.0
 40
0.3
  1
Maddocks Engineering Ltd.
 41
0.5
  7
MCStick_A0.500000_S0.000000
 72
     1
 11
13.29808409645472
 21
11.8713540930784
 31
0.0
100
AcDbText
 73
     2
  0
TEXT
  5
86
330
1F
100
AcDbEntity
  8
0
  6
Continuous2
 62
     3
420
    65280
370
    -3
100
AcDbText
 10
14.38872218280596
 20
10.44604980800297
 30
0.0
 40
0.1
  1
1 OF 1
 41
0.5
  7
MCStick_A0.500000_S0.000000
 72
     1
 11
14.52324599232977
 21
10.49604980800297
 31
0.0
100
AcDbText
 73
     2
  0
TEXT
  5
87
330
1F
100
AcDbEntity
  8
0
  6
Continuous2
 62
     3
420
    65280
370
    -3
100
AcDbText
 10
9.309592245319058
 20
10.76239723765188
 30
0.0
 40
0.2
  1
DRAWN: RJC
 41
0.5
  7
MCStick_A0.500000_S0.000000
 72
     1
 11
9.766735102461915
 21
10.86239723765188
 31
0.0
100
AcDbText
 73
     2
  0
TEXT
  5
88
330
1F
100
AcDbEntity
  8
0
  6
Continuous2
 62
     3
420
    65280
370
    -3
100
AcDbText
 10
11.71419745961432
 20
10.45205550357099
 30
0.0
 40
0.1
  1
NA
 41
0.5
  7
MCStick_A0.500000_S0.000000
 72
     1
 11
11.76062603104289
 21
10.50205550357099
 31
0.0
100
AcDbText
 73
     2
  0
TEXT
  5
89
330
1F
100
AcDbEntity
  8
0
  6
Continuous2
 62
     3
420
    65280
370
    -3
100
AcDbText
 10
9.48048832126734
 20
10.46308967697908
 30
0.0
 40
0.15
  1
VRS RETREIVAL TOOLS
 41
0.5
  7
MCStick_A0.500000_S0.000000
 72
     1
 11
10.10905974983877
 21
10.53808967697907
 31
0.0
100
AcDbText
 73
     2
  0
TEXT
  5
8A
330
1F
100
AcDbEntity
  8
0
  6
Continuous2
 62
     3
420
    65280
370
    -3
100
AcDbText
 10
11.8116176832207
 20
10.69525582546689
 30
0.0
 40
0.25
  1
INCH
 41
0.5
  7
MCStick_A0.500000_S0.000000
 72
     1
 11
12.01697482607784
 21
10.82025582546689
 31
0.0
100
AcDbText
 73
     2
  0
MTEXT
  5
8B
330
1F
100
AcDbEntity
  8
0
  6
Continuous2
 62
     3
420
    65280
370
    -3
100
AcDbMText
 10
9.486439181680282
 20
11.03297051884482
 30
0.0
 40
0.14
 41
1.870533333333334
 46
0.2
 71
     7
 72
     1
  1
TOLERANCES^M\P Fractional ñ 1/16"^M\P X.X ñ 0.05^M\P X.XX ñ 0.01^M\P X.XXX ñ 0.005^M\P X.XXXX ñ 0.0005
  7
MCStick_A0.700000_S0.000000
 73
     1
 44
0.75
1001
ACAD
1000
ACAD_MTEXT_DEFINED_HEIGHT_BEGIN
1070
    46
1040
0.2
1000
ACAD_MTEXT_DEFINED_HEIGHT_END
  0
CIRCLE
  5
8D
330
1F
100
AcDbEntity
  8
0
  6
Continuous2
 62
     3
420
    65280
370
    -3
100
AcDbCircle
 10
5.5
 20
15.5
 30
0.0
 40
2.15
  0
CIRCLE
  5
92
330
1F
100
AcDbEntity
  8
0
  6
DASHED
 62
     3
420
    65280
370
    -3
100
AcDbCircle
 10
5.5
 20
15.5
 30
0.0
 40
2.015000000000001
  0
CIRCLE
  5
94
330
1F
100
AcDbEntity
  8
0
  6
DASHED
 62
     3
420
    65280
370
    -3
100
AcDbCircle
 10
5.5
 20
15.5
 30
0.0
 40
1.865
  0
CIRCLE
  5
96
330
1F
100
AcDbEntity
  8
0
  6
DASHED
 62
     3
420
    65280
370
    -3
100
AcDbCircle
 10
5.5
 20
15.5
 30
0.0
 40
1.83375
  0
CIRCLE
  5
98
330
1F
100
AcDbEntity
  8
0
  6
DASHED
 62
     3
420
    65280
370
    -3
100
AcDbCircle
 10
5.5
 20
15.5
 30
0.0
 40
0.9000000000000004
  0
POINT
  5
9A
330
1F
100
AcDbEntity
  8
0
  6
Continuous2
 62
     3
420
    65280
370
    -3
100
AcDbPoint
 10
5.5
 20
15.5
 30
0.0
  0
CIRCLE
  5
9C
330
1F
100
AcDbEntity
  8
0
  6
Continuous2
 62
     3
420
    65280
370
    -3
100
AcDbCircle
 10
5.5
 20
15.5
 30
0.0
 40
0.3949999999999996
  0
CIRCLE
  5
9E
330
1F
100
AcDbEntity
  8
0
  6
Continuous2
 62
     3
420
    65280
370
    -3
100
AcDbCircle
 10
5.5
 20
15.5
 30
0.0
 40
0.5300000000000002
  0
CIRCLE
  5
A0
330
1F
100
AcDbEntity
  8
0
  6
DASHED
 62
     3
420
    65280
370
    -3
100
AcDbCircle
 10
5.5
 20
15.5
 30
0.0
 40
0.7000000000000002
  0
LINE
  5
A2
330
1F
100
AcDbEntity
  8
0
  6
Continuous2
 62
     3
420
    65280
370
    -3
100
AcDbLine
 10
9.31
 20
16.0620806540878
 30
0.0
 11
9.31
 21
17.59
 31
0.0
  0
LINE
  5
A4
330
1F
100
AcDbEntity
  8
0
  6
Continuous2
 62
     3
420
    65280
370
    -3
100
AcDbLine
 10
9.370000000000001
 20
17.65
 30
0.0
 11
9.55
 21
17.65
 31
0.0
  0
LINE
  5
A6
330
1F
100
AcDbEntity
  8
0
  6
Continuous2
 62
     3
420
    65280
370
    -3
100
AcDbLine
 10
9.31
 20
17.59
 30
0.0
 11
9.370000000000001
 21
17.65
 31
0.0
  0
LINE
  5
A8
330
1F
100
AcDbEntity
  8
0
  6
Continuous2
 62
     3
420
    65280
370
    -3
100
AcDbLine
 10
9.559999999999999
 20
17.545
 30
0.0
 11
9.56
 21
17.64
 31
0.0
  0
LINE
  5
AA
330
1F
100
AcDbEntity
  8
0
  6
Continuous2
 62
     3
420
    65280
370
    -3
100
AcDbLine
 10
9.84
 20
17.33375
 30
0.0
 11
9.84
 21
16.43125
 31
0.0
  0
LINE
  5
AC
330
1F
100
AcDbEntity
  8
0
  6
Continuous2
 62
     3
420
    65280
370
    -3
100
AcDbLine
 10
10.115
 20
16.4
 30
0.0
 11
9.87125
 21
16.4
 31
0.0
  0
LINE
  5
AE
330
1F
100
AcDbEntity
  8
0
  6
Continuous2
 62
     3
420
    65280
370
    -3
100
AcDbLine
 10
10.145
 20
16.04403371016846
 30
0.0
 11
10.145
 21
16.37
 31
0.0
  0
LINE
  5
B0
330
1F
100
AcDbEntity
  8
0
  6
Continuous2
 62
     3
420
    65280
370
    -3
100
AcDbLine
 10
9.87125
 20
17.365
 30
0.0
 11
10.115
 21
17.365
 31
0.0
  0
LINE
  5
B2
330
1F
100
AcDbEntity
  8
0
  6
Continuous2
 62
     3
420
    65280
370
    -3
100
AcDbLine
 10
10.145
 20
17.395
 30
0.0
 11
10.145
 21
17.448
 31
0.0
  0
ARC
  5
B4
330
1F
100
AcDbEntity
  8
0
  6
Continuous2
 62
     3
420
    65280
370
    -3
100
AcDbCircle
 10
9.87125
 20
17.33375
 30
0.0
 40
0.03125
100
AcDbArc
 50
90.0
 51
180.0000000000004
  0
ARC
  5
B6
330
1F
100
AcDbEntity
  8
0
  6
Continuous2
 62
     3
420
    65280
370
    -3
100
AcDbCircle
 10
9.87125
 20
16.43125
 30
0.0
 40
0.03125
100
AcDbArc
 50
179.9999999999998
 51
269.9999999999999
  0
LINE
  5
B8
330
1F
100
AcDbEntity
  8
0
  6
Continuous2
 62
     3
420
    65280
370
    -3
100
AcDbLine
 10
10.115
 20
16.4
 30
0.0
 11
10.145
 21
16.37
 31
0.0
  0
LINE
  5
BA
330
1F
100
AcDbEntity
  8
0
  6
Continuous2
 62
     3
420
    65280
370
    -3
100
AcDbLine
 10
10.115
 20
17.365
 30
0.0
 11
10.145
 21
17.395
 31
0.0
  0
LINE
  5
BC
330
1F
100
AcDbEntity
  8
0
  6
Continuous2
 62
     3
420
    65280
370
    -3
100
AcDbLine
 10
10.145
 20
17.395
 30
0.0
 11
10.145
 21
16.37
 31
0.0
  0
LINE
  5
BE
330
1F
100
AcDbEntity
  8
0
  6
Continuous2
 62
     3
420
    65280
370
    -3
100
AcDbLine
 10
10.115
 20
17.365
 30
0.0
 11
10.115
 21
16.4
 31
0.0
  0
LINE
  5
C0
330
1F
100
AcDbEntity
  8
0
  6
Continuous2
 62
     3
420
    65280
370
    -3
100
AcDbLine
 10
9.50999994277954
 20
16.04500001072883
 30
0.0
 11
9.50999994277954
 21
16.05
 31
0.0
  0
LINE
  5
C2
330
1F
100
AcDbEntity
  8
0
  6
Continuous2
 62
     3
420
    65280
370
    -3
100
AcDbLine
 10
9.369985991116582
 20
16.00078417047387
 30
0.0
 11
10.08501400888342
 21
15.98533019378238
 31
0.0
  0
LINE
  5
C4
330
1F
100
AcDbEntity
  8
0
  6
Continuous2
 62
     3
420
    65280
370
    -3
100
AcDbLine
 10
9.309999999999999
 20
16.0620806540878
 30
0.0
 11
9.31
 21
14.9379193459122
 31
0.0
  0
LINE
  5
C6
330
1F
100
AcDbEntity
  8
0
  6
Continuous2
 62
     3
420
    65280
370
    -3
100
AcDbLine
 10
9.31
 20
16.0620806540878
 30
0.0
 11
9.369985991116582
 21
16.00078417047387
 31
0.0
  0
LINE
  5
C8
330
1F
100
AcDbEntity
  8
0
  6
Continuous2
 62
     3
420
    65280
370
    -3
100
AcDbLine
 10
9.369985991116582
 20
16.00078417047387
 30
0.0
 11
9.369985991116584
 21
14.99921582952613
 31
0.0
  0
LINE
  5
CA
330
1F
100
AcDbEntity
  8
0
  6
Continuous2
 62
     3
420
    65280
370
    -3
100
AcDbLine
 10
10.08501400888342
 20
15.98533019378238
 30
0.0
 11
10.145
 21
16.04403371016846
 31
0.0
  0
LINE
  5
CC
330
1F
100
AcDbEntity
  8
0
  6
Continuous2
 62
     3
420
    65280
370
    -3
100
AcDbLine
 10
10.08501400888342
 20
15.98533019378238
 30
0.0
 11
10.08501400888342
 21
15.01466980621762
 31
0.0
  0
LINE
  5
CE
330
1F
100
AcDbEntity
  8
0
  6
Continuous2
 62
     3
420
    65280
370
    -3
100
AcDbLine
 10
10.145
 20
14.95596628983154
 30
0.0
 11
10.145
 21
16.04403371016846
 31
0.0
  0
LINE
  5
D0
330
1F
100
AcDbEntity
  8
0
  6
Continuous2
 62
     3
420
    65280
370
    -3
100
AcDbLine
 10
10.1303
 20
17.4627
 30
0.0
 11
9.729
 21
17.4627
 31
0.0
  0
LINE
  5
D2
330
1F
100
AcDbEntity
  8
0
  6
Continuous2
 62
     3
420
    65280
370
    -3
100
AcDbLine
 10
10.095
 20
17.498
 30
0.0
 11
9.729
 21
17.498
 31
0.0
  0
LINE
  5
D4
330
1F
100
AcDbEntity
  8
0
  6
Continuous2
 62
     3
420
    65280
370
    -3
100
AcDbLine
 10
10.145
 20
17.448
 30
0.0
 11
10.095
 21
17.498
 31
0.0
  0
LINE
  5
D6
330
1F
100
AcDbEntity
  8
0
  6
Continuous2
 62
     3
420
    65280
370
    -3
100
AcDbLine
 10
9.59
 20
17.432
 30
0.0
 11
9.59
 21
17.52
 31
0.0
  0
LINE
  5
D8
330
1F
100
AcDbEntity
  8
0
  6
Continuous2
 62
     3
420
    65280
370
    -3
100
AcDbLine
 10
9.729
 20
17.498
 30
0.0
 11
9.729
 21
17.432
 31
0.0
  0
LINE
  5
DA
330
1F
100
AcDbEntity
  8
0
  6
Continuous2
 62
     3
420
    65280
370
    -3
100
AcDbLine
 10
9.71399999828905
 20
17.417
 30
0.0
 11
9.605
 21
17.417
 31
0.0
  0
ARC
  5
DC
330
1F
100
AcDbEntity
  8
0
  6
Continuous2
 62
     3
420
    65280
370
    -3
100
AcDbCircle
 10
9.605
 20
17.432
 30
0.0
 40
0.015
100
AcDbArc
 50
180.0
 51
269.9999999999999
  0
ARC
  5
DE
330
1F
100
AcDbEntity
  8
0
  6
Continuous2
 62
     3
420
    65280
370
    -3
100
AcDbCircle
 10
9.713999999999999
 20
17.432
 30
0.0
 40
0.015
100
AcDbArc
 50
269.9999999999999
 51
359.9999999999999
  0
LINE
  5
E0
330
1F
100
AcDbEntity
  8
0
  6
Continuous2
 62
     3
420
    65280
370
    -3
100
AcDbLine
 10
9.31
 20
14.9379193459122
 30
0.0
 11
9.31
 21
13.41
 31
0.0
  0
LINE
  5
E2
330
1F
100
AcDbEntity
  8
0
  6
Continuous2
 62
     3
420
    65280
370
    -3
100
AcDbLine
 10
9.370000000000001
 20
13.35
 30
0.0
 11
9.55
 21
13.35
 31
0.0
  0
LINE
  5
E4
330
1F
100
AcDbEntity
  8
0
  6
Continuous2
 62
     3
420
    65280
370
    -3
100
AcDbLine
 10
9.31
 20
13.41
 30
0.0
 11
9.370000000000001
 21
13.35
 31
0.0
  0
LINE
  5
E6
330
1F
100
AcDbEntity
  8
0
  6
Continuous2
 62
     3
420
    65280
370
    -3
100
AcDbLine
 10
9.84
 20
13.66625
 30
0.0
 11
9.84
 21
14.56875
 31
0.0
  0
LINE
  5
E8
330
1F
100
AcDbEntity
  8
0
  6
Continuous2
 62
     3
420
    65280
370
    -3
100
AcDbLine
 10
10.115
 20
14.6
 30
0.0
 11
9.87125
 21
14.6
 31
0.0
  0
LINE
  5
EA
330
1F
100
AcDbEntity
  8
0
  6
Continuous2
 62
     3
420
    65280
370
    -3
100
AcDbLine
 10
10.145
 20
14.95596628983154
 30
0.0
 11
10.145
 21
14.63
 31
0.0
  0
LINE
  5
EC
330
1F
100
AcDbEntity
  8
0
  6
Continuous2
 62
     3
420
    65280
370
    -3
100
AcDbLine
 10
9.87125
 20
13.635
 30
0.0
 11
10.115
 21
13.635
 31
0.0
  0
ARC
  5
EE
330
1F
100
AcDbEntity
  8
0
  6
Continuous2
 62
     3
420
    65280
370
    -3
100
AcDbCircle
 10
9.87125
 20
13.66625
 30
0.0
 40
0.0312499999999996
100
AcDbArc
 50
179.9999999999988
 51
270.0000000000007
  0
ARC
  5
F0
330
1F
100
AcDbEntity
  8
0
  6
Continuous2
 62
     3
420
    65280
370
    -3
100
AcDbCircle
 10
9.87125
 20
14.56875
 30
0.0
 40
0.0312499999999996
100
AcDbArc
 50
89.99999999999919
 51
180.0000000000012
  0
LINE
  5
F2
330
1F
100
AcDbEntity
  8
0
  6
Continuous2
 62
     3
420
    65280
370
    -3
100
AcDbLine
 10
10.115
 20
14.6
 30
0.0
 11
10.145
 21
14.63
 31
0.0
  0
LINE
  5
F4
330
1F
100
AcDbEntity
  8
0
  6
Continuous2
 62
     3
420
    65280
370
    -3
100
AcDbLine
 10
10.115
 20
13.635
 30
0.0
 11
10.145
 21
13.605
 31
0.0
  0
LINE
  5
F6
330
1F
100
AcDbEntity
  8
0
  6
Continuous2
 62
     3
420
    65280
370
    -3
100
AcDbLine
 10
10.145
 20
13.605
 30
0.0
 11
10.145
 21
14.63
 31
0.0
  0
LINE
  5
F8
330
1F
100
AcDbEntity
  8
0
  6
Continuous2
 62
     3
420
    65280
370
    -3
100
AcDbLine
 10
10.115
 20
13.635
 30
0.0
 11
10.115
 21
14.6
 31
0.0
  0
LINE
  5
FA
330
1F
100
AcDbEntity
  8
0
  6
Continuous2
 62
     3
420
    65280
370
    -3
100
AcDbLine
 10
9.50999994277954
 20
14.95499998927116
 30
0.0
 11
9.50999994277954
 21
14.95
 31
0.0
  0
LINE
  5
FC
330
1F
100
AcDbEntity
  8
0
  6
Continuous2
 62
     3
420
    65280
370
    -3
100
AcDbLine
 10
9.369985991116582
 20
14.99921582952613
 30
0.0
 11
10.08501400888342
 21
15.01466980621762
 31
0.0
  0
LINE
  5
FE
330
1F
100
AcDbEntity
  8
0
  6
Continuous2
 62
     3
420
    65280
370
    -3
100
AcDbLine
 10
9.31
 20
14.9379193459122
 30
0.0
 11
9.369985991116582
 21
14.99921582952613
 31
0.0
  0
LINE
  5
100
330
1F
100
AcDbEntity
  8
0
  6
Continuous2
 62
     3
420
    65280
370
    -3
100
AcDbLine
 10
10.08501400888342
 20
15.01466980621762
 30
0.0
 11
10.145
 21
14.95596628983154
 31
0.0
  0
LINE
  5
102
330
1F
100
AcDbEntity
  8
0
  6
Continuous2
 62
     3
420
    65280
370
    -3
100
AcDbLine
 10
10.145
 20
13.605
 30
0.0
 11
10.145
 21
13.552
 31
0.0
  0
LINE
  5
104
330
1F
100
AcDbEntity
  8
0
  6
Continuous2
 62
     3
420
    65280
370
    -3
100
AcDbLine
 10
10.145
 20
13.552
 30
0.0
 11
10.095
 21
13.502
 31
0.0
  0
LINE
  5
106
330
1F
100
AcDbEntity
  8
0
  6
Continuous2
 62
     3
420
    65280
370
    -3
100
AcDbLine
 10
10.1303
 20
13.5373
 30
0.0
 11
9.729
 21
13.5373
 31
0.0
  0
LINE
  5
108
330
1F
100
AcDbEntity
  8
0
  6
Continuous2
 62
     3
420
    65280
370
    -3
100
AcDbLine
 10
9.59
 20
13.568
 30
0.0
 11
9.59
 21
13.48
 31
0.0
  0
LINE
  5
10A
330
1F
100
AcDbEntity
  8
0
  6
Continuous2
 62
     3
420
    65280
370
    -3
100
AcDbLine
 10
9.71399999828905
 20
13.583
 30
0.0
 11
9.605
 21
13.583
 31
0.0
  0
ARC
  5
10C
330
1F
100
AcDbEntity
  8
0
  6
Continuous2
 62
     3
420
    65280
370
    -3
100
AcDbCircle
 10
9.604999999999999
 20
13.568
 30
0.0
 40
0.0149999999999997
100
AcDbArc
 50
89.9999999999983
 51
180.0000000000008
  0
ARC
  5
10E
330
1F
100
AcDbEntity
  8
0
  6
Continuous2
 62
     3
420
    65280
370
    -3
100
AcDbCircle
 10
9.713999999999999
 20
13.568
 30
0.0
 40
0.0149999999999997
100
AcDbArc
 50
359.9999999999991
 51
90.0000000000017
  0
LINE
  5
110
330
1F
100
AcDbEntity
  8
0
  6
Continuous2
 62
     3
420
    65280
370
    -3
100
AcDbLine
 10
9.559999999999999
 20
13.455
 30
0.0
 11
9.56
 21
13.36
 31
0.0
  0
LINE
  5
112
330
1F
100
AcDbEntity
  8
0
  6
Continuous2
 62
     3
420
    65280
370
    -3
100
AcDbLine
 10
10.095
 20
13.502
 30
0.0
 11
9.729
 21
13.502
 31
0.0
  0
LINE
  5
114
330
1F
100
AcDbEntity
  8
0
  6
Continuous2
 62
     3
420
    65280
370
    -3
100
AcDbLine
 10
9.729
 20
13.502
 30
0.0
 11
9.729
 21
13.568
 31
0.0
  0
LINE
  5
116
330
1F
100
AcDbEntity
  8
0
  6
Continuous2
 62
     3
420
    65280
370
    -3
100
AcDbLine
 10
9.55
 20
13.35
 30
0.0
 11
9.56
 21
13.36
 31
0.0
  0
LINE
  5
118
330
1F
100
AcDbEntity
  8
0
  6
Continuous2
 62
     3
420
    65280
370
    -3
100
AcDbLine
 10
9.56
 20
17.64
 30
0.0
 11
9.55
 21
17.65
 31
0.0
  0
LINE
  5
11A
330
1F
100
AcDbEntity
  8
0
  6
Continuous2
 62
     3
420
    65280
370
    -3
100
AcDbLine
 10
9.579999999999998
 20
17.53
 30
0.0
 11
9.575
 21
17.53
 31
0.0
  0
ARC
  5
11C
330
1F
100
AcDbEntity
  8
0
  6
Continuous2
 62
     3
420
    65280
370
    -3
100
AcDbCircle
 10
9.575
 20
17.545
 30
0.0
 40
0.015
100
AcDbArc
 50
180.0
 51
269.9999999999999
  0
LINE
  5
11E
330
1F
100
AcDbEntity
  8
0
  6
Continuous2
 62
     3
420
    65280
370
    -3
100
AcDbLine
 10
9.579999999999998
 20
17.53
 30
0.0
 11
9.59
 21
17.52
 31
0.0
  0
LINE
  5
120
330
1F
100
AcDbEntity
  8
0
  6
Continuous2
 62
     3
420
    65280
370
    -3
100
AcDbLine
 10
9.579999999999998
 20
13.47
 30
0.0
 11
9.575
 21
13.47
 31
0.0
  0
ARC
  5
122
330
1F
100
AcDbEntity
  8
0
  6
Continuous2
 62
     3
420
    65280
370
    -3
100
AcDbCircle
 10
9.575
 20
13.455
 30
0.0
 40
0.015
100
AcDbArc
 50
89.99999999999831
 51
180.0000000000016
  0
LINE
  5
124
330
1F
100
AcDbEntity
  8
0
  6
Continuous2
 62
     3
420
    65280
370
    -3
100
AcDbLine
 10
9.579999999999998
 20
13.47
 30
0.0
 11
9.59
 21
13.48
 31
0.0
  0
LINE
  5
126
330
1F
100
AcDbEntity
  8
0
  6
Continuous2
 62
     3
420
    65280
370
    -3
100
AcDbLine
 10
10.37036776794936
 20
14.34463223205063
 30
0.0
 11
10.18571067811865
 21
14.52928932188135
 31
0.0
  0
LINE
  5
127
330
1F
100
AcDbEntity
  8
0
  6
Continuous2
 62
     3
420
    65280
370
    -3
100
AcDbLine
 10
10.27607507867814
 20
14.29750356508455
 30
0.0
 11
10.33501242889004
 21
14.37998757110996
 31
0.0
  0
LINE
  5
128
330
1F
100
AcDbEntity
  8
0
  6
Continuous2
 62
     3
420
    65280
370
    -3
100
AcDbLine
 10
10.25252842286463
 20
14.32105022089806
 30
0.0
 11
10.33501242889004
 21
14.37998757110996
 31
0.0
  0
LINE
  5
129
330
1F
100
AcDbEntity
  8
0
  6
Continuous2
 62
     3
420
    65280
370
    -3
100
AcDbLine
 10
10.42394977910194
 20
14.49247157713537
 30
0.0
 11
10.36501242889004
 21
14.40998757110996
 31
0.0
  0
LINE
  5
12A
330
1F
100
AcDbEntity
  8
0
  6
Continuous2
 62
     3
420
    65280
370
    -3
100
AcDbLine
 10
10.44749643491545
 20
14.46892492132185
 30
0.0
 11
10.36501242889004
 21
14.40998757110996
 31
0.0
  0
LINE
  5
12B
330
1F
100
AcDbEntity
  8
0
  6
Continuous2
 62
     3
420
    65280
370
    -3
100
AcDbLine
 10
10.19359107265273
 20
14.23856621487265
 30
0.0
 11
10.33501242889004
 21
14.37998757110996
 31
0.0
  0
LINE
  5
12C
330
1F
100
AcDbEntity
  8
0
  6
Continuous2
 62
     3
420
    65280
370
    -3
100
AcDbLine
 10
10.27607507867814
 20
14.29750356508455
 30
0.0
 11
10.33501242889004
 21
14.37998757110996
 31
0.0
  0
LINE
  5
12D
330
1F
100
AcDbEntity
  8
0
  6
Continuous2
 62
     3
420
    65280
370
    -3
100
AcDbLine
 10
10.25252842286463
 20
14.32105022089806
 30
0.0
 11
10.33501242889004
 21
14.37998757110996
 31
0.0
  0
LINE
  5
12E
330
1F
100
AcDbEntity
  8
0
  6
Continuous2
 62
     3
420
    65280
370
    -3
100
AcDbLine
 10
10.42394977910194
 20
14.49247157713537
 30
0.0
 11
10.36501242889004
 21
14.40998757110996
 31
0.0
  0
LINE
  5
12F
330
1F
100
AcDbEntity
  8
0
  6
Continuous2
 62
     3
420
    65280
370
    -3
100
AcDbLine
 10
10.44749643491545
 20
14.46892492132185
 30
0.0
 11
10.36501242889004
 21
14.40998757110996
 31
0.0
  0
TEXT
  5
130
330
1F
100
AcDbEntity
  8
0
  6
Continuous2
 62
     3
420
    65280
370
    -3
100
AcDbText
 10
11.71153565039779
 20
15.46337079261768
 30
0.0
 40
0.1
  1
0.042
 41
0.5
  7
MCStick_A0.500000_S0.000000
100
AcDbText
  0
LINE
  5
131
330
1F
100
AcDbEntity
  8
0
  6
Continuous2
 62
     3
420
    65280
370
    -3
100
AcDbLine
 10
11.46839565039779
 20
15.51337079261768
 30
0.0
 11
10.36501242889004
 21
14.40998757110996
 31
0.0
  0
LINE
  5
132
330
1F
100
AcDbEntity
  8
0
  6
Continuous2
 62
     3
420
    65280
370
    -3
100
AcDbLine
 10
11.46839565039779
 20
15.51337079261768
 30
0.0
 11
11.66839565039779
 21
15.51337079261768
 31
0.0
  0
LINE
  5
133
330
1F
100
AcDbEntity
  8
0
  6
Continuous2
 62
     3
420
    65280
370
    -3
100
AcDbLine
 10
10.27607507867814
 20
14.29750356508455
 30
0.0
 11
10.33501242889004
 21
14.37998757110996
 31
0.0
  0
LINE
  5
134
330
1F
100
AcDbEntity
  8
0
  6
Continuous2
 62
     3
420
    65280
370
    -3
100
AcDbLine
 10
10.25252842286463
 20
14.32105022089806
 30
0.0
 11
10.33501242889004
 21
14.37998757110996
 31
0.0
  0
LINE
  5
135
330
1F
100
AcDbEntity
  8
0
  6
Continuous2
 62
     3
420
    65280
370
    -3
100
AcDbLine
 10
10.42394977910194
 20
14.49247157713537
 30
0.0
 11
10.36501242889004
 21
14.40998757110996
 31
0.0
  0
LINE
  5
136
330
1F
100
AcDbEntity
  8
0
  6
Continuous2
 62
     3
420
    65280
370
    -3
100
AcDbLine
 10
10.44749643491545
 20
14.46892492132185
 30
0.0
 11
10.36501242889004
 21
14.40998757110996
 31
0.0
  0
LINE
  5
137
330
1F
100
AcDbEntity
  8
0
  6
Continuous2
 62
     3
420
    65280
370
    -3
100
AcDbLine
 10
10.40036776794937
 20
14.37463223205063
 30
0.0
 11
10.21571067811866
 21
14.55928932188134
 31
0.0
  0
LINE
  5
138
330
1F
100
AcDbEntity
  8
0
  6
Continuous2
 62
     3
420
    65280
370
    -3
100
AcDbLine
 10
10.27607507867814
 20
14.29750356508455
 30
0.0
 11
10.33501242889004
 21
14.37998757110996
 31
0.0
  0
LINE
  5
139
330
1F
100
AcDbEntity
  8
0
  6
Continuous2
 62
     3
420
    65280
370
    -3
100
AcDbLine
 10
10.25252842286463
 20
14.32105022089806
 30
0.0
 11
10.33501242889004
 21
14.37998757110996
 31
0.0
  0
LINE
  5
13A
330
1F
100
AcDbEntity
  8
0
  6
Continuous2
 62
     3
420
    65280
370
    -3
100
AcDbLine
 10
10.42394977910194
 20
14.49247157713537
 30
0.0
 11
10.36501242889004
 21
14.40998757110996
 31
0.0
  0
LINE
  5
13B
330
1F
100
AcDbEntity
  8
0
  6
Continuous2
 62
     3
420
    65280
370
    -3
100
AcDbLine
 10
10.44749643491545
 20
14.46892492132185
 30
0.0
 11
10.36501242889004
 21
14.40998757110996
 31
0.0
  0
LINE
  5
13F
330
1F
100
AcDbEntity
  8
0
  6
Continuous2
 62
     3
420
    65280
370
    -3
100
AcDbLine
 10
10.37036776794936
 20
14.34463223205063
 30
0.0
 11
10.18571067811865
 21
14.52928932188135
 31
0.0
  0
LINE
  5
140
330
1F
100
AcDbEntity
  8
0
  6
Continuous2
 62
     3
420
    65280
370
    -3
100
AcDbLine
 10
10.27607507867814
 20
14.29750356508455
 30
0.0
 11
10.33501242889004
 21
14.37998757110996
 31
0.0
  0
LINE
  5
141
330
1F
100
AcDbEntity
  8
0
  6
Continuous2
 62
     3
420
    65280
370
    -3
100
AcDbLine
 10
10.25252842286463
 20
14.32105022089806
 30
0.0
 11
10.33501242889004
 21
14.37998757110996
 31
0.0
  0
LINE
  5
142
330
1F
100
AcDbEntity
  8
0
  6
Continuous2
 62
     3
420
    65280
370
    -3
100
AcDbLine
 10
10.42394977910194
 20
14.49247157713537
 30
0.0
 11
10.36501242889004
 21
14.40998757110996
 31
0.0
  0
LINE
  5
143
330
1F
100
AcDbEntity
  8
0
  6
Continuous2
 62
     3
420
    65280
370
    -3
100
AcDbLine
 10
10.44749643491545
 20
14.46892492132185
 30
0.0
 11
10.36501242889004
 21
14.40998757110996
 31
0.0
  0
LINE
  5
144
330
1F
100
AcDbEntity
  8
0
  6
Continuous2
 62
     3
420
    65280
370
    -3
100
AcDbLine
 10
10.19359107265273
 20
14.23856621487265
 30
0.0
 11
10.33501242889004
 21
14.37998757110996
 31
0.0
  0
LINE
  5
145
330
1F
100
AcDbEntity
  8
0
  6
Continuous2
 62
     3
420
    65280
370
    -3
100
AcDbLine
 10
10.27607507867814
 20
14.29750356508455
 30
0.0
 11
10.33501242889004
 21
14.37998757110996
 31
0.0
  0
LINE
  5
146
330
1F
100
AcDbEntity
  8
0
  6
Continuous2
 62
     3
420
    65280
370
    -3
100
AcDbLine
 10
10.25252842286463
 20
14.32105022089806
 30
0.0
 11
10.33501242889004
 21
14.37998757110996
 31
0.0
  0
LINE
  5
147
330
1F
100
AcDbEntity
  8
0
  6
Continuous2
 62
     3
420
    65280
370
    -3
100
AcDbLine
 10
10.42394977910194
 20
14.49247157713537
 30
0.0
 11
10.36501242889004
 21
14.40998757110996
 31
0.0
  0
LINE
  5
148
330
1F
100
AcDbEntity
  8
0
  6
Continuous2
 62
     3
420
    65280
370
    -3
100
AcDbLine
 10
10.44749643491545
 20
14.46892492132185
 30
0.0
 11
10.36501242889004
 21
14.40998757110996
 31
0.0
  0
TEXT
  5
149
330
1F
100
AcDbEntity
  8
0
  6
Continuous2
 62
     3
420
    65280
370
    -3
100
AcDbText
 10
11.71153565039779
 20
15.46337079261768
 30
0.0
 40
0.1
  1
0.042
 41
0.5
  7
MCStick_A0.500000_S0.000000
100
AcDbText
  0
LINE
  5
14A
330
1F
100
AcDbEntity
  8
0
  6
Continuous2
 62
     3
420
    65280
370
    -3
100
AcDbLine
 10
11.46839565039779
 20
15.51337079261768
 30
0.0
 11
10.36501242889004
 21
14.40998757110996
 31
0.0
  0
LINE
  5
14B
330
1F
100
AcDbEntity
  8
0
  6
Continuous2
 62
     3
420
    65280
370
    -3
100
AcDbLine
 10
11.46839565039779
 20
15.51337079261768
 30
0.0
 11
11.66839565039779
 21
15.51337079261768
 31
0.0
  0
LINE
  5
14C
330
1F
100
AcDbEntity
  8
0
  6
Continuous2
 62
     3
420
    65280
370
    -3
100
AcDbLine
 10
10.27607507867814
 20
14.29750356508455
 30
0.0
 11
10.33501242889004
 21
14.37998757110996
 31
0.0
  0
LINE
  5
14D
330
1F
100
AcDbEntity
  8
0
  6
Continuous2
 62
     3
420
    65280
370
    -3
100
AcDbLine
 10
10.25252842286463
 20
14.32105022089806
 30
0.0
 11
10.33501242889004
 21
14.37998757110996
 31
0.0
  0
LINE
  5
14E
330
1F
100
AcDbEntity
  8
0
  6
Continuous2
 62
     3
420
    65280
370
    -3
100
AcDbLine
 10
10.42394977910194
 20
14.49247157713537
 30
0.0
 11
10.36501242889004
 21
14.40998757110996
 31
0.0
  0
LINE
  5
14F
330
1F
100
AcDbEntity
  8
0
  6
Continuous2
 62
     3
420
    65280
370
    -3
100
AcDbLine
 10
10.44749643491545
 20
14.46892492132185
 30
0.0
 11
10.36501242889004
 21
14.40998757110996
 31
0.0
  0
LINE
  5
150
330
1F
100
AcDbEntity
  8
0
  6
Continuous2
 62
     3
420
    65280
370
    -3
100
AcDbLine
 10
10.40036776794937
 20
14.37463223205063
 30
0.0
 11
10.21571067811866
 21
14.55928932188134
 31
0.0
  0
LINE
  5
151
330
1F
100
AcDbEntity
  8
0
  6
Continuous2
 62
     3
420
    65280
370
    -3
100
AcDbLine
 10
10.27607507867814
 20
14.29750356508455
 30
0.0
 11
10.33501242889004
 21
14.37998757110996
 31
0.0
  0
LINE
  5
152
330
1F
100
AcDbEntity
  8
0
  6
Continuous2
 62
     3
420
    65280
370
    -3
100
AcDbLine
 10
10.25252842286463
 20
14.32105022089806
 30
0.0
 11
10.33501242889004
 21
14.37998757110996
 31
0.0
  0
LINE
  5
153
330
1F
100
AcDbEntity
  8
0
  6
Continuous2
 62
     3
420
    65280
370
    -3
100
AcDbLine
 10
10.42394977910194
 20
14.49247157713537
 30
0.0
 11
10.36501242889004
 21
14.40998757110996
 31
0.0
  0
LINE
  5
154
330
1F
100
AcDbEntity
  8
0
  6
Continuous2
 62
     3
420
    65280
370
    -3
100
AcDbLine
 10
10.44749643491545
 20
14.46892492132185
 30
0.0
 11
10.36501242889004
 21
14.40998757110996
 31
0.0
  0
LINE
  5
155
330
1F
100
AcDbEntity
  8
0
  6
Continuous2
 62
     3
420
    65280
370
    -3
100
AcDbLine
 10
5.5
 20
15.5
 30
0.0
 11
6.693247111624308
 21
17.28848017338752
 31
0.0
  0
LINE
  5
156
330
1F
100
AcDbEntity
  8
0
  6
Continuous2
 62
     3
420
    65280
370
    -3
100
AcDbLine
 10
5.5
 20
15.5
 30
0.0
 11
7.151282808143709
 21
17.97499996794505
 31
0.0
  0
LINE
  5
157
330
1F
100
AcDbEntity
  8
0
  6
Continuous2
 62
     3
420
    65280
370
    -3
100
AcDbLine
 10
7.151282808143709
 20
17.97499996794505
 30
0.0
 11
7.35128280814371
 21
17.97499996794505
 31
0.0
  0
LINE
  5
158
330
1F
100
AcDbEntity
  8
0
  6
Continuous2
 62
     3
420
    65280
370
    -3
100
AcDbLine
 10
6.651597569170574
 20
17.19605432141203
 30
0.0
 11
6.693247111624308
 21
17.28848017338752
 31
0.0
  0
LINE
  5
159
330
1F
100
AcDbEntity
  8
0
  6
Continuous2
 62
     3
420
    65280
370
    -3
100
AcDbLine
 10
6.623896922764153
 20
17.2145357766758
 30
0.0
 11
6.693247111624308
 21
17.28848017338752
 31
0.0
  0
LINE
  5
15A
330
1F
100
AcDbEntity
  8
0
  6
Continuous2
 62
     3
420
    65280
370
    -3
100
AcDbLine
 10
4.348402430829427
 20
13.80394567858797
 30
0.0
 11
4.306752888375692
 21
13.71151982661248
 31
0.0
  0
LINE
  5
15B
330
1F
100
AcDbEntity
  8
0
  6
Continuous2
 62
     3
420
    65280
370
    -3
100
AcDbLine
 10
4.376103077235848
 20
13.78546422332421
 30
0.0
 11
4.306752888375692
 21
13.71151982661248
 31
0.0
  0
TEXT
  5
15C
330
1F
100
AcDbEntity
  8
0
  6
Continuous2
 62
     3
420
    65280
370
    -3
100
AcDbText
 10
6.79177574932018
 20
17.92499996794505
 30
0.0
 40
0.1
  1
%%C 4.300{\H0.050000;%%P0.005}
 41
0.5
  7
MCStick_A0.500000_S0.000000
100
AcDbText
  0
TEXT
  5
15D
330
1F
100
AcDbEntity
  8
0
  6
Continuous2
 62
     3
420
    65280
370
    -3
100
AcDbText
 10
7.763443788535866
 20
17.94999996794505
 30
0.0
 40
0.05
  1
ñ0.005
 41
0.5
  7
MCStick_A0.500000_S0.000000
100
AcDbText
  0
LINE
  5
15E
330
1F
100
AcDbEntity
  8
0
  6
Continuous2
 62
     3
420
    65280
370
    -3
100
AcDbLine
 10
5.5
 20
15.5
 30
0.0
 11
4.306752888375692
 21
13.71151982661248
 31
0.0
  0
LINE
  5
15F
330
1F
100
AcDbEntity
  8
0
  6
Continuous2
 62
     3
420
    65280
370
    -3
100
AcDbLine
 10
6.651597569170574
 20
17.19605432141203
 30
0.0
 11
6.693247111624308
 21
17.28848017338752
 31
0.0
  0
LINE
  5
160
330
1F
100
AcDbEntity
  8
0
  6
Continuous2
 62
     3
420
    65280
370
    -3
100
AcDbLine
 10
6.623896922764153
 20
17.2145357766758
 30
0.0
 11
6.693247111624308
 21
17.28848017338752
 31
0.0
  0
LINE
  5
161
330
1F
100
AcDbEntity
  8
0
  6
Continuous2
 62
     3
420
    65280
370
    -3
100
AcDbLine
 10
4.348402430829427
 20
13.80394567858797
 30
0.0
 11
4.306752888375692
 21
13.71151982661248
 31
0.0
  0
LINE
  5
162
330
1F
100
AcDbEntity
  8
0
  6
Continuous2
 62
     3
420
    65280
370
    -3
100
AcDbLine
 10
4.376103077235848
 20
13.78546422332421
 30
0.0
 11
4.306752888375692
 21
13.71151982661248
 31
0.0
  0
LINE
  5
163
330
1F
100
AcDbEntity
  8
0
  6
Continuous2
 62
     3
420
    65280
370
    -3
100
AcDbLine
 10
5.5
 20
15.5
 30
0.0
 11
6.693247111624308
 21
17.28848017338752
 31
0.0
  0
LINE
  5
164
330
1F
100
AcDbEntity
  8
0
  6
Continuous2
 62
     3
420
    65280
370
    -3
100
AcDbLine
 10
5.5
 20
15.5
 30
0.0
 11
7.151282808143709
 21
17.97499996794505
 31
0.0
  0
LINE
  5
165
330
1F
100
AcDbEntity
  8
0
  6
Continuous2
 62
     3
420
    65280
370
    -3
100
AcDbLine
 10
7.151282808143709
 20
17.97499996794505
 30
0.0
 11
7.35128280814371
 21
17.97499996794505
 31
0.0
  0
LINE
  5
166
330
1F
100
AcDbEntity
  8
0
  6
Continuous2
 62
     3
420
    65280
370
    -3
100
AcDbLine
 10
6.651597569170574
 20
17.19605432141203
 30
0.0
 11
6.693247111624308
 21
17.28848017338752
 31
0.0
  0
LINE
  5
167
330
1F
100
AcDbEntity
  8
0
  6
Continuous2
 62
     3
420
    65280
370
    -3
100
AcDbLine
 10
6.623896922764153
 20
17.2145357766758
 30
0.0
 11
6.693247111624308
 21
17.28848017338752
 31
0.0
  0
LINE
  5
168
330
1F
100
AcDbEntity
  8
0
  6
Continuous2
 62
     3
420
    65280
370
    -3
100
AcDbLine
 10
4.348402430829427
 20
13.80394567858797
 30
0.0
 11
4.306752888375692
 21
13.71151982661248
 31
0.0
  0
LINE
  5
169
330
1F
100
AcDbEntity
  8
0
  6
Continuous2
 62
     3
420
    65280
370
    -3
100
AcDbLine
 10
4.376103077235848
 20
13.78546422332421
 30
0.0
 11
4.306752888375692
 21
13.71151982661248
 31
0.0
  0
TEXT
  5
16A
330
1F
100
AcDbEntity
  8
0
  6
Continuous2
 62
     3
420
    65280
370
    -3
100
AcDbText
 10
6.79177574932018
 20
17.92499996794505
 30
0.0
 40
0.1
  1
%%C 4.300{\H0.050000;%%P0.005}
 41
0.5
  7
MCStick_A0.500000_S0.000000
100
AcDbText
  0
TEXT
  5
16B
330
1F
100
AcDbEntity
  8
0
  6
Continuous2
 62
     3
420
    65280
370
    -3
100
AcDbText
 10
7.763443788535866
 20
17.94999996794505
 30
0.0
 40
0.05
  1
ñ0.005
 41
0.5
  7
MCStick_A0.500000_S0.000000
100
AcDbText
  0
LINE
  5
16C
330
1F
100
AcDbEntity
  8
0
  6
Continuous2
 62
     3
420
    65280
370
    -3
100
AcDbLine
 10
5.5
 20
15.5
 30
0.0
 11
4.306752888375692
 21
13.71151982661248
 31
0.0
  0
LINE
  5
16D
330
1F
100
AcDbEntity
  8
0
  6
Continuous2
 62
     3
420
    65280
370
    -3
100
AcDbLine
 10
6.651597569170574
 20
17.19605432141203
 30
0.0
 11
6.693247111624308
 21
17.28848017338752
 31
0.0
  0
LINE
  5
16E
330
1F
100
AcDbEntity
  8
0
  6
Continuous2
 62
     3
420
    65280
370
    -3
100
AcDbLine
 10
6.623896922764153
 20
17.2145357766758
 30
0.0
 11
6.693247111624308
 21
17.28848017338752
 31
0.0
  0
LINE
  5
16F
330
1F
100
AcDbEntity
  8
0
  6
Continuous2
 62
     3
420
    65280
370
    -3
100
AcDbLine
 10
4.348402430829427
 20
13.80394567858797
 30
0.0
 11
4.306752888375692
 21
13.71151982661248
 31
0.0
  0
LINE
  5
170
330
1F
100
AcDbEntity
  8
0
  6
Continuous2
 62
     3
420
    65280
370
    -3
100
AcDbLine
 10
4.376103077235848
 20
13.78546422332421
 30
0.0
 11
4.306752888375692
 21
13.71151982661248
 31
0.0
  0
TEXT
  5
171
330
1F
100
AcDbEntity
  8
0
  6
Continuous2
 62
     3
420
    65280
370
    -3
100
AcDbText
 10
6.914947296643762
 20
12.87345356762281
 30
0.0
 40
0.1
  1
3/4-14 NPT
 41
0.5
  7
MCStick_A0.500000_S0.000000
 72
     1
 11
7.161375868072333
 21
12.92345356762281
 31
0.0
100
AcDbText
 73
     2
  0
LEADER
  5
172
330
1F
100
AcDbEntity
  8
0
  6
Continuous2
 62
     3
420
    65280
370
    -3
100
AcDbLeader
  3
Standard
 76
     3
 10
5.5
 20
14.97
 30
0.0
 10
6.817256848464489
 20
12.91215549069973
 30
0.0
 10
6.86725684846449
 20
12.91215549069973
 30
0.0
  0
TEXT
  5
175
330
1F
100
AcDbEntity
  8
0
  6
Continuous2
 62
     3
420
    65280
370
    -3
100
AcDbText
 10
10.95360163511928
 20
17.29102381026162
 30
0.0
 40
0.1
  1
GROOVE 0.965 WD 0.305 DP
 41
0.5
  7
MCStick_A0.500000_S0.000000
 72
     1
 11
11.51431592083356
 21
17.34102381026162
 31
0.0
100
AcDbText
 73
     2
  0
LEADER
  5
176
330
1F
100
AcDbEntity
  8
0
  6
Continuous2
 62
     3
420
    65280
370
    -3
100
AcDbLeader
  3
Standard
 76
     3
 10
10.115
 20
16.8825
 30
0.0
 10
10.81029494044141
 20
17.32972573333854
 30
0.0
 10
10.86029494044141
 20
17.32972573333854
 30
0.0
  0
TEXT
  5
179
330
1F
100
AcDbEntity
  8
0
  6
Continuous2
 62
     3
420
    65280
370
    -3
100
AcDbText
 10
10.79109101695367
 20
18.56845016321586
 30
0.0
 40
0.1
  1
4"-16 UN THD
 41
0.5
  7
MCStick_A0.500000_S0.000000
 72
     1
 11
11.08156720742986
 21
18.61845016321586
 31
0.0
100
AcDbText
 73
     2
  0
LEADER
  5
17A
330
1F
100
AcDbEntity
  8
0
  6
Continuous2
 62
     3
420
    65280
370
    -3
100
AcDbLeader
  3
Standard
 76
     3
 10
9.912
 20
17.498
 30
0.0
 10
10.69989916821418
 20
18.60715208629279
 30
0.0
 10
10.74989916821418
 20
18.60715208629279
 30
0.0
  0
LINE
  5
17D
330
1F
100
AcDbEntity
  8
0
  6
Continuous2
 62
     3
420
    65280
370
    -3
100
AcDbLine
 10
9.59
 20
18.18674024183748
 30
0.0
 11
9.59
 21
17.576
 31
0.0
  0
LINE
  5
17E
330
1F
100
AcDbEntity
  8
0
  6
Continuous2
 62
     3
420
    65280
370
    -3
100
AcDbLine
 10
9.48999999999958
 20
18.12009024184002
 30
0.0
 11
9.59
 21
18.13674024183749
 31
0.0
  0
LINE
  5
17F
330
1F
100
AcDbEntity
  8
0
  6
Continuous2
 62
     3
420
    65280
370
    -3
100
AcDbLine
 10
9.490000000000421
 20
18.15339024184001
 30
0.0
 11
9.59
 21
18.13674024183749
 31
0.0
  0
LINE
  5
180
330
1F
100
AcDbEntity
  8
0
  6
Continuous2
 62
     3
420
    65280
370
    -3
100
AcDbLine
 10
9.828999999999999
 20
18.15339024183749
 30
0.0
 11
9.729
 21
18.13674024183749
 31
0.0
  0
LINE
  5
181
330
1F
100
AcDbEntity
  8
0
  6
Continuous2
 62
     3
420
    65280
370
    -3
100
AcDbLine
 10
9.828999999999999
 20
18.12009024183749
 30
0.0
 11
9.729
 21
18.13674024183749
 31
0.0
  0
LINE
  5
182
330
1F
100
AcDbEntity
  8
0
  6
Continuous2
 62
     3
420
    65280
370
    -3
100
AcDbLine
 10
9.5899
 20
18.13674024183749
 30
0.0
 11
9.59
 21
18.13674024183749
 31
0.0
  0
LINE
  5
183
330
1F
100
AcDbEntity
  8
0
  6
Continuous2
 62
     3
420
    65280
370
    -3
100
AcDbLine
 10
9.5899
 20
18.13674024183749
 30
0.0
 11
9.389899999999999
 21
18.13674024183749
 31
0.0
  0
LINE
  5
184
330
1F
100
AcDbEntity
  8
0
  6
Continuous2
 62
     3
420
    65280
370
    -3
100
AcDbLine
 10
9.48999999999958
 20
18.12009024184002
 30
0.0
 11
9.59
 21
18.13674024183749
 31
0.0
  0
LINE
  5
185
330
1F
100
AcDbEntity
  8
0
  6
Continuous2
 62
     3
420
    65280
370
    -3
100
AcDbLine
 10
9.490000000000421
 20
18.15339024184001
 30
0.0
 11
9.59
 21
18.13674024183749
 31
0.0
  0
LINE
  5
186
330
1F
100
AcDbEntity
  8
0
  6
Continuous2
 62
     3
420
    65280
370
    -3
100
AcDbLine
 10
9.828999999999999
 20
18.15339024183749
 30
0.0
 11
9.729
 21
18.13674024183749
 31
0.0
  0
LINE
  5
187
330
1F
100
AcDbEntity
  8
0
  6
Continuous2
 62
     3
420
    65280
370
    -3
100
AcDbLine
 10
9.828999999999999
 20
18.12009024183749
 30
0.0
 11
9.729
 21
18.13674024183749
 31
0.0
  0
TEXT
  5
188
330
1F
100
AcDbEntity
  8
0
  6
Continuous2
 62
     3
420
    65280
370
    -3
100
AcDbText
 10
9.124210980392157
 20
18.08674024183749
 30
0.0
 40
0.1
  1
0.139
 41
0.5
  7
MCStick_A0.500000_S0.000000
100
AcDbText
  0
LINE
  5
189
330
1F
100
AcDbEntity
  8
0
  6
Continuous2
 62
     3
420
    65280
370
    -3
100
AcDbLine
 10
9.928999999999998
 20
18.13674024183749
 30
0.0
 11
9.729
 21
18.13674024183749
 31
0.0
  0
LINE
  5
18A
330
1F
100
AcDbEntity
  8
0
  6
Continuous2
 62
     3
420
    65280
370
    -3
100
AcDbLine
 10
9.48999999999958
 20
18.12009024184002
 30
0.0
 11
9.59
 21
18.13674024183749
 31
0.0
  0
LINE
  5
18B
330
1F
100
AcDbEntity
  8
0
  6
Continuous2
 62
     3
420
    65280
370
    -3
100
AcDbLine
 10
9.490000000000421
 20
18.15339024184001
 30
0.0
 11
9.59
 21
18.13674024183749
 31
0.0
  0
LINE
  5
18C
330
1F
100
AcDbEntity
  8
0
  6
Continuous2
 62
     3
420
    65280
370
    -3
100
AcDbLine
 10
9.828999999999999
 20
18.15339024183749
 30
0.0
 11
9.729
 21
18.13674024183749
 31
0.0
  0
LINE
  5
18D
330
1F
100
AcDbEntity
  8
0
  6
Continuous2
 62
     3
420
    65280
370
    -3
100
AcDbLine
 10
9.828999999999999
 20
18.12009024183749
 30
0.0
 11
9.729
 21
18.13674024183749
 31
0.0
  0
LINE
  5
18E
330
1F
100
AcDbEntity
  8
0
  6
Continuous2
 62
     3
420
    65280
370
    -3
100
AcDbLine
 10
9.729
 20
18.18674024183748
 30
0.0
 11
9.729
 21
17.598
 31
0.0
  0
LINE
  5
18F
330
1F
100
AcDbEntity
  8
0
  6
Continuous2
 62
     3
420
    65280
370
    -3
100
AcDbLine
 10
9.48999999999958
 20
18.12009024184002
 30
0.0
 11
9.59
 21
18.13674024183749
 31
0.0
  0
LINE
  5
190
330
1F
100
AcDbEntity
  8
0
  6
Continuous2
 62
     3
420
    65280
370
    -3
100
AcDbLine
 10
9.490000000000421
 20
18.15339024184001
 30
0.0
 11
9.59
 21
18.13674024183749
 31
0.0
  0
LINE
  5
191
330
1F
100
AcDbEntity
  8
0
  6
Continuous2
 62
     3
420
    65280
370
    -3
100
AcDbLine
 10
9.828999999999999
 20
18.15339024183749
 30
0.0
 11
9.729
 21
18.13674024183749
 31
0.0
  0
LINE
  5
192
330
1F
100
AcDbEntity
  8
0
  6
Continuous2
 62
     3
420
    65280
370
    -3
100
AcDbLine
 10
9.828999999999999
 20
18.12009024183749
 30
0.0
 11
9.729
 21
18.13674024183749
 31
0.0
  0
LINE
  5
193
330
1F
100
AcDbEntity
  8
0
  6
Continuous2
 62
     3
420
    65280
370
    -3
100
AcDbLine
 10
9.59
 20
18.18674024183748
 30
0.0
 11
9.59
 21
17.576
 31
0.0
  0
LINE
  5
194
330
1F
100
AcDbEntity
  8
0
  6
Continuous2
 62
     3
420
    65280
370
    -3
100
AcDbLine
 10
9.48999999999958
 20
18.12009024184002
 30
0.0
 11
9.59
 21
18.13674024183749
 31
0.0
  0
LINE
  5
195
330
1F
100
AcDbEntity
  8
0
  6
Continuous2
 62
     3
420
    65280
370
    -3
100
AcDbLine
 10
9.490000000000421
 20
18.15339024184001
 30
0.0
 11
9.59
 21
18.13674024183749
 31
0.0
  0
LINE
  5
196
330
1F
100
AcDbEntity
  8
0
  6
Continuous2
 62
     3
420
    65280
370
    -3
100
AcDbLine
 10
9.828999999999999
 20
18.15339024183749
 30
0.0
 11
9.729
 21
18.13674024183749
 31
0.0
  0
LINE
  5
197
330
1F
100
AcDbEntity
  8
0
  6
Continuous2
 62
     3
420
    65280
370
    -3
100
AcDbLine
 10
9.828999999999999
 20
18.12009024183749
 30
0.0
 11
9.729
 21
18.13674024183749
 31
0.0
  0
LINE
  5
198
330
1F
100
AcDbEntity
  8
0
  6
Continuous2
 62
     3
420
    65280
370
    -3
100
AcDbLine
 10
9.5899
 20
18.13674024183749
 30
0.0
 11
9.59
 21
18.13674024183749
 31
0.0
  0
LINE
  5
199
330
1F
100
AcDbEntity
  8
0
  6
Continuous2
 62
     3
420
    65280
370
    -3
100
AcDbLine
 10
9.5899
 20
18.13674024183749
 30
0.0
 11
9.389899999999999
 21
18.13674024183749
 31
0.0
  0
LINE
  5
19A
330
1F
100
AcDbEntity
  8
0
  6
Continuous2
 62
     3
420
    65280
370
    -3
100
AcDbLine
 10
9.48999999999958
 20
18.12009024184002
 30
0.0
 11
9.59
 21
18.13674024183749
 31
0.0
  0
LINE
  5
19B
330
1F
100
AcDbEntity
  8
0
  6
Continuous2
 62
     3
420
    65280
370
    -3
100
AcDbLine
 10
9.490000000000421
 20
18.15339024184001
 30
0.0
 11
9.59
 21
18.13674024183749
 31
0.0
  0
LINE
  5
19C
330
1F
100
AcDbEntity
  8
0
  6
Continuous2
 62
     3
420
    65280
370
    -3
100
AcDbLine
 10
9.828999999999999
 20
18.15339024183749
 30
0.0
 11
9.729
 21
18.13674024183749
 31
0.0
  0
LINE
  5
19D
330
1F
100
AcDbEntity
  8
0
  6
Continuous2
 62
     3
420
    65280
370
    -3
100
AcDbLine
 10
9.828999999999999
 20
18.12009024183749
 30
0.0
 11
9.729
 21
18.13674024183749
 31
0.0
  0
TEXT
  5
19E
330
1F
100
AcDbEntity
  8
0
  6
Continuous2
 62
     3
420
    65280
370
    -3
100
AcDbText
 10
9.124210980392157
 20
18.08674024183749
 30
0.0
 40
0.1
  1
0.139
 41
0.5
  7
MCStick_A0.500000_S0.000000
100
AcDbText
  0
LINE
  5
19F
330
1F
100
AcDbEntity
  8
0
  6
Continuous2
 62
     3
420
    65280
370
    -3
100
AcDbLine
 10
9.928999999999998
 20
18.13674024183749
 30
0.0
 11
9.729
 21
18.13674024183749
 31
0.0
  0
LINE
  5
1A0
330
1F
100
AcDbEntity
  8
0
  6
Continuous2
 62
     3
420
    65280
370
    -3
100
AcDbLine
 10
9.48999999999958
 20
18.12009024184002
 30
0.0
 11
9.59
 21
18.13674024183749
 31
0.0
  0
LINE
  5
1A1
330
1F
100
AcDbEntity
  8
0
  6
Continuous2
 62
     3
420
    65280
370
    -3
100
AcDbLine
 10
9.490000000000421
 20
18.15339024184001
 30
0.0
 11
9.59
 21
18.13674024183749
 31
0.0
  0
LINE
  5
1A2
330
1F
100
AcDbEntity
  8
0
  6
Continuous2
 62
     3
420
    65280
370
    -3
100
AcDbLine
 10
9.828999999999999
 20
18.15339024183749
 30
0.0
 11
9.729
 21
18.13674024183749
 31
0.0
  0
LINE
  5
1A3
330
1F
100
AcDbEntity
  8
0
  6
Continuous2
 62
     3
420
    65280
370
    -3
100
AcDbLine
 10
9.828999999999999
 20
18.12009024183749
 30
0.0
 11
9.729
 21
18.13674024183749
 31
0.0
  0
LINE
  5
1A4
330
1F
100
AcDbEntity
  8
0
  6
Continuous2
 62
     3
420
    65280
370
    -3
100
AcDbLine
 10
9.729
 20
18.18674024183748
 30
0.0
 11
9.729
 21
17.598
 31
0.0
  0
LINE
  5
1A5
330
1F
100
AcDbEntity
  8
0
  6
Continuous2
 62
     3
420
    65280
370
    -3
100
AcDbLine
 10
9.48999999999958
 20
18.12009024184002
 30
0.0
 11
9.59
 21
18.13674024183749
 31
0.0
  0
LINE
  5
1A6
330
1F
100
AcDbEntity
  8
0
  6
Continuous2
 62
     3
420
    65280
370
    -3
100
AcDbLine
 10
9.490000000000421
 20
18.15339024184001
 30
0.0
 11
9.59
 21
18.13674024183749
 31
0.0
  0
LINE
  5
1A7
330
1F
100
AcDbEntity
  8
0
  6
Continuous2
 62
     3
420
    65280
370
    -3
100
AcDbLine
 10
9.828999999999999
 20
18.15339024183749
 30
0.0
 11
9.729
 21
18.13674024183749
 31
0.0
  0
LINE
  5
1A8
330
1F
100
AcDbEntity
  8
0
  6
Continuous2
 62
     3
420
    65280
370
    -3
100
AcDbLine
 10
9.828999999999999
 20
18.12009024183749
 30
0.0
 11
9.729
 21
18.13674024183749
 31
0.0
  0
LINE
  5
1A9
330
1F
100
AcDbEntity
  8
0
  6
Continuous2
 62
     3
420
    65280
370
    -3
100
AcDbLine
 10
8.986790217257905
 20
13.583
 30
0.0
 11
9.504999999999999
 21
13.583
 31
0.0
  0
LINE
  5
1AA
330
1F
100
AcDbEntity
  8
0
  6
Continuous2
 62
     3
420
    65280
370
    -3
100
AcDbLine
 10
9.020140217257907
 20
13.683
 30
0.0
 11
9.036790217257906
 21
13.583
 31
0.0
  0
LINE
  5
1AB
330
1F
100
AcDbEntity
  8
0
  6
Continuous2
 62
     3
420
    65280
370
    -3
100
AcDbLine
 10
9.053440217257908
 20
13.683
 30
0.0
 11
9.036790217257906
 21
13.583
 31
0.0
  0
LINE
  5
1AC
330
1F
100
AcDbEntity
  8
0
  6
Continuous2
 62
     3
420
    65280
370
    -3
100
AcDbLine
 10
9.053440217257908
 20
17.317
 30
0.0
 11
9.036790217257908
 21
17.417
 31
0.0
  0
LINE
  5
1AD
330
1F
100
AcDbEntity
  8
0
  6
Continuous2
 62
     3
420
    65280
370
    -3
100
AcDbLine
 10
9.020140217257907
 20
17.317
 30
0.0
 11
9.036790217257908
 21
17.417
 31
0.0
  0
LINE
  5
1AE
330
1F
100
AcDbEntity
  8
0
  6
Continuous2
 62
     3
420
    65280
370
    -3
100
AcDbLine
 10
9.036790217257906
 20
15.53102840031392
 30
0.0
 11
9.036790217257906
 21
13.583
 31
0.0
  0
LINE
  5
1AF
330
1F
100
AcDbEntity
  8
0
  6
Continuous2
 62
     3
420
    65280
370
    -3
100
AcDbLine
 10
9.020140217257907
 20
13.683
 30
0.0
 11
9.036790217257906
 21
13.583
 31
0.0
  0
LINE
  5
1B0
330
1F
100
AcDbEntity
  8
0
  6
Continuous2
 62
     3
420
    65280
370
    -3
100
AcDbLine
 10
9.053440217257908
 20
13.683
 30
0.0
 11
9.036790217257906
 21
13.583
 31
0.0
  0
LINE
  5
1B1
330
1F
100
AcDbEntity
  8
0
  6
Continuous2
 62
     3
420
    65280
370
    -3
100
AcDbLine
 10
9.053440217257908
 20
17.317
 30
0.0
 11
9.036790217257908
 21
17.417
 31
0.0
  0
LINE
  5
1B2
330
1F
100
AcDbEntity
  8
0
  6
Continuous2
 62
     3
420
    65280
370
    -3
100
AcDbLine
 10
9.020140217257907
 20
17.317
 30
0.0
 11
9.036790217257908
 21
17.417
 31
0.0
  0
TEXT
  5
1B3
330
1F
100
AcDbEntity
  8
0
  6
Continuous2
 62
     3
420
    65280
370
    -3
100
AcDbText
 10
8.913064727061828
 20
15.585466477237
 30
0.0
 40
0.1
  1
3.834
 41
0.5
  7
MCStick_A0.500000_S0.000000
100
AcDbText
  0
LINE
  5
1B4
330
1F
100
AcDbEntity
  8
0
  6
Continuous2
 62
     3
420
    65280
370
    -3
100
AcDbLine
 10
9.036790217257906
 20
15.73990455416008
 30
0.0
 11
9.036790217257908
 21
17.417
 31
0.0
  0
LINE
  5
1B5
330
1F
100
AcDbEntity
  8
0
  6
Continuous2
 62
     3
420
    65280
370
    -3
100
AcDbLine
 10
9.020140217257907
 20
13.683
 30
0.0
 11
9.036790217257906
 21
13.583
 31
0.0
  0
LINE
  5
1B6
330
1F
100
AcDbEntity
  8
0
  6
Continuous2
 62
     3
420
    65280
370
    -3
100
AcDbLine
 10
9.053440217257908
 20
13.683
 30
0.0
 11
9.036790217257906
 21
13.583
 31
0.0
  0
LINE
  5
1B7
330
1F
100
AcDbEntity
  8
0
  6
Continuous2
 62
     3
420
    65280
370
    -3
100
AcDbLine
 10
9.053440217257908
 20
17.317
 30
0.0
 11
9.036790217257908
 21
17.417
 31
0.0
  0
LINE
  5
1B8
330
1F
100
AcDbEntity
  8
0
  6
Continuous2
 62
     3
420
    65280
370
    -3
100
AcDbLine
 10
9.020140217257907
 20
17.317
 30
0.0
 11
9.036790217257908
 21
17.417
 31
0.0
  0
LINE
  5
1B9
330
1F
100
AcDbEntity
  8
0
  6
Continuous2
 62
     3
420
    65280
370
    -3
100
AcDbLine
 10
8.986790217257909
 20
17.417
 30
0.0
 11
9.504999999999999
 21
17.417
 31
0.0
  0
LINE
  5
1BA
330
1F
100
AcDbEntity
  8
0
  6
Continuous2
 62
     3
420
    65280
370
    -3
100
AcDbLine
 10
9.020140217257907
 20
13.683
 30
0.0
 11
9.036790217257906
 21
13.583
 31
0.0
  0
LINE
  5
1BB
330
1F
100
AcDbEntity
  8
0
  6
Continuous2
 62
     3
420
    65280
370
    -3
100
AcDbLine
 10
9.053440217257908
 20
13.683
 30
0.0
 11
9.036790217257906
 21
13.583
 31
0.0
  0
LINE
  5
1BC
330
1F
100
AcDbEntity
  8
0
  6
Continuous2
 62
     3
420
    65280
370
    -3
100
AcDbLine
 10
9.053440217257908
 20
17.317
 30
0.0
 11
9.036790217257908
 21
17.417
 31
0.0
  0
LINE
  5
1BD
330
1F
100
AcDbEntity
  8
0
  6
Continuous2
 62
     3
420
    65280
370
    -3
100
AcDbLine
 10
9.020140217257907
 20
17.317
 30
0.0
 11
9.036790217257908
 21
17.417
 31
0.0
  0
LINE
  5
1BE
330
1F
100
AcDbEntity
  8
0
  6
Continuous2
 62
     3
420
    65280
370
    -3
100
AcDbLine
 10
8.986790217257905
 20
13.583
 30
0.0
 11
9.504999999999999
 21
13.583
 31
0.0
  0
LINE
  5
1BF
330
1F
100
AcDbEntity
  8
0
  6
Continuous2
 62
     3
420
    65280
370
    -3
100
AcDbLine
 10
9.020140217257907
 20
13.683
 30
0.0
 11
9.036790217257906
 21
13.583
 31
0.0
  0
LINE
  5
1C0
330
1F
100
AcDbEntity
  8
0
  6
Continuous2
 62
     3
420
    65280
370
    -3
100
AcDbLine
 10
9.053440217257908
 20
13.683
 30
0.0
 11
9.036790217257906
 21
13.583
 31
0.0
  0
LINE
  5
1C1
330
1F
100
AcDbEntity
  8
0
  6
Continuous2
 62
     3
420
    65280
370
    -3
100
AcDbLine
 10
9.053440217257908
 20
17.317
 30
0.0
 11
9.036790217257908
 21
17.417
 31
0.0
  0
LINE
  5
1C2
330
1F
100
AcDbEntity
  8
0
  6
Continuous2
 62
     3
420
    65280
370
    -3
100
AcDbLine
 10
9.020140217257907
 20
17.317
 30
0.0
 11
9.036790217257908
 21
17.417
 31
0.0
  0
LINE
  5
1C3
330
1F
100
AcDbEntity
  8
0
  6
Continuous2
 62
     3
420
    65280
370
    -3
100
AcDbLine
 10
9.036790217257906
 20
15.53102840031392
 30
0.0
 11
9.036790217257906
 21
13.583
 31
0.0
  0
LINE
  5
1C4
330
1F
100
AcDbEntity
  8
0
  6
Continuous2
 62
     3
420
    65280
370
    -3
100
AcDbLine
 10
9.020140217257907
 20
13.683
 30
0.0
 11
9.036790217257906
 21
13.583
 31
0.0
  0
LINE
  5
1C5
330
1F
100
AcDbEntity
  8
0
  6
Continuous2
 62
     3
420
    65280
370
    -3
100
AcDbLine
 10
9.053440217257908
 20
13.683
 30
0.0
 11
9.036790217257906
 21
13.583
 31
0.0
  0
LINE
  5
1C6
330
1F
100
AcDbEntity
  8
0
  6
Continuous2
 62
     3
420
    65280
370
    -3
100
AcDbLine
 10
9.053440217257908
 20
17.317
 30
0.0
 11
9.036790217257908
 21
17.417
 31
0.0
  0
LINE
  5
1C7
330
1F
100
AcDbEntity
  8
0
  6
Continuous2
 62
     3
420
    65280
370
    -3
100
AcDbLine
 10
9.020140217257907
 20
17.317
 30
0.0
 11
9.036790217257908
 21
17.417
 31
0.0
  0
TEXT
  5
1C8
330
1F
100
AcDbEntity
  8
0
  6
Continuous2
 62
     3
420
    65280
370
    -3
100
AcDbText
 10
8.913064727061828
 20
15.585466477237
 30
0.0
 40
0.1
  1
3.834
 41
0.5
  7
MCStick_A0.500000_S0.000000
100
AcDbText
  0
LINE
  5
1C9
330
1F
100
AcDbEntity
  8
0
  6
Continuous2
 62
     3
420
    65280
370
    -3
100
AcDbLine
 10
9.036790217257906
 20
15.73990455416008
 30
0.0
 11
9.036790217257908
 21
17.417
 31
0.0
  0
LINE
  5
1CA
330
1F
100
AcDbEntity
  8
0
  6
Continuous2
 62
     3
420
    65280
370
    -3
100
AcDbLine
 10
9.020140217257907
 20
13.683
 30
0.0
 11
9.036790217257906
 21
13.583
 31
0.0
  0
LINE
  5
1CB
330
1F
100
AcDbEntity
  8
0
  6
Continuous2
 62
     3
420
    65280
370
    -3
100
AcDbLine
 10
9.053440217257908
 20
13.683
 30
0.0
 11
9.036790217257906
 21
13.583
 31
0.0
  0
LINE
  5
1CC
330
1F
100
AcDbEntity
  8
0
  6
Continuous2
 62
     3
420
    65280
370
    -3
100
AcDbLine
 10
9.053440217257908
 20
17.317
 30
0.0
 11
9.036790217257908
 21
17.417
 31
0.0
  0
LINE
  5
1CD
330
1F
100
AcDbEntity
  8
0
  6
Continuous2
 62
     3
420
    65280
370
    -3
100
AcDbLine
 10
9.020140217257907
 20
17.317
 30
0.0
 11
9.036790217257908
 21
17.417
 31
0.0
  0
LINE
  5
1CE
330
1F
100
AcDbEntity
  8
0
  6
Continuous2
 62
     3
420
    65280
370
    -3
100
AcDbLine
 10
8.986790217257909
 20
17.417
 30
0.0
 11
9.504999999999999
 21
17.417
 31
0.0
  0
LINE
  5
1CF
330
1F
100
AcDbEntity
  8
0
  6
Continuous2
 62
     3
420
    65280
370
    -3
100
AcDbLine
 10
9.020140217257907
 20
13.683
 30
0.0
 11
9.036790217257906
 21
13.583
 31
0.0
  0
LINE
  5
1D0
330
1F
100
AcDbEntity
  8
0
  6
Continuous2
 62
     3
420
    65280
370
    -3
100
AcDbLine
 10
9.053440217257908
 20
13.683
 30
0.0
 11
9.036790217257906
 21
13.583
 31
0.0
  0
LINE
  5
1D1
330
1F
100
AcDbEntity
  8
0
  6
Continuous2
 62
     3
420
    65280
370
    -3
100
AcDbLine
 10
9.053440217257908
 20
17.317
 30
0.0
 11
9.036790217257908
 21
17.417
 31
0.0
  0
LINE
  5
1D2
330
1F
100
AcDbEntity
  8
0
  6
Continuous2
 62
     3
420
    65280
370
    -3
100
AcDbLine
 10
9.020140217257907
 20
17.317
 30
0.0
 11
9.036790217257908
 21
17.417
 31
0.0
  0
LINE
  5
1D3
330
1F
100
AcDbEntity
  8
0
  6
Continuous2
 62
     3
420
    65280
370
    -3
100
AcDbLine
 10
9.729
 20
13.11044622012561
 30
0.0
 11
9.729
 21
13.402
 31
0.0
  0
LINE
  5
1D4
330
1F
100
AcDbEntity
  8
0
  6
Continuous2
 62
     3
420
    65280
370
    -3
100
AcDbLine
 10
9.828999999999999
 20
13.17709622012561
 30
0.0
 11
9.729
 21
13.16044622012561
 31
0.0
  0
LINE
  5
1D5
330
1F
100
AcDbEntity
  8
0
  6
Continuous2
 62
     3
420
    65280
370
    -3
100
AcDbLine
 10
9.828999999999999
 20
13.14379622012561
 30
0.0
 11
9.729
 21
13.16044622012561
 31
0.0
  0
LINE
  5
1D6
330
1F
100
AcDbEntity
  8
0
  6
Continuous2
 62
     3
420
    65280
370
    -3
100
AcDbLine
 10
10.045
 20
13.14379622012561
 30
0.0
 11
10.145
 21
13.16044622012561
 31
0.0
  0
LINE
  5
1D7
330
1F
100
AcDbEntity
  8
0
  6
Continuous2
 62
     3
420
    65280
370
    -3
100
AcDbLine
 10
10.045
 20
13.17709622012561
 30
0.0
 11
10.145
 21
13.16044622012561
 31
0.0
  0
LINE
  5
1D8
330
1F
100
AcDbEntity
  8
0
  6
Continuous2
 62
     3
420
    65280
370
    -3
100
AcDbLine
 10
9.937000000000001
 20
13.16044622012561
 30
0.0
 11
9.729
 21
13.16044622012561
 31
0.0
  0
LINE
  5
1D9
330
1F
100
AcDbEntity
  8
0
  6
Continuous2
 62
     3
420
    65280
370
    -3
100
AcDbLine
 10
9.828999999999999
 20
13.17709622012561
 30
0.0
 11
9.729
 21
13.16044622012561
 31
0.0
  0
LINE
  5
1DA
330
1F
100
AcDbEntity
  8
0
  6
Continuous2
 62
     3
420
    65280
370
    -3
100
AcDbLine
 10
9.828999999999999
 20
13.14379622012561
 30
0.0
 11
9.729
 21
13.16044622012561
 31
0.0
  0
LINE
  5
1DB
330
1F
100
AcDbEntity
  8
0
  6
Continuous2
 62
     3
420
    65280
370
    -3
100
AcDbLine
 10
10.045
 20
13.14379622012561
 30
0.0
 11
10.145
 21
13.16044622012561
 31
0.0
  0
LINE
  5
1DC
330
1F
100
AcDbEntity
  8
0
  6
Continuous2
 62
     3
420
    65280
370
    -3
100
AcDbLine
 10
10.045
 20
13.17709622012561
 30
0.0
 11
10.145
 21
13.16044622012561
 31
0.0
  0
TEXT
  5
1DD
330
1F
100
AcDbEntity
  8
0
  6
Continuous2
 62
     3
420
    65280
370
    -3
100
AcDbText
 10
10.16657
 20
13.11044622012561
 30
0.0
 40
0.1
  1
0.416
 41
0.5
  7
MCStick_A0.500000_S0.000000
100
AcDbText
  0
LINE
  5
1DE
330
1F
100
AcDbEntity
  8
0
  6
Continuous2
 62
     3
420
    65280
370
    -3
100
AcDbLine
 10
9.937000000000001
 20
13.16044622012561
 30
0.0
 11
10.145
 21
13.16044622012561
 31
0.0
  0
LINE
  5
1DF
330
1F
100
AcDbEntity
  8
0
  6
Continuous2
 62
     3
420
    65280
370
    -3
100
AcDbLine
 10
9.937000000000001
 20
13.16044622012561
 30
0.0
 11
9.923430000000002
 21
13.16044622012561
 31
0.0
  0
LINE
  5
1E0
330
1F
100
AcDbEntity
  8
0
  6
Continuous2
 62
     3
420
    65280
370
    -3
100
AcDbLine
 10
9.923430000000002
 20
13.16044622012561
 30
0.0
 11
10.12343
 21
13.16044622012561
 31
0.0
  0
LINE
  5
1E1
330
1F
100
AcDbEntity
  8
0
  6
Continuous2
 62
     3
420
    65280
370
    -3
100
AcDbLine
 10
9.828999999999999
 20
13.17709622012561
 30
0.0
 11
9.729
 21
13.16044622012561
 31
0.0
  0
LINE
  5
1E2
330
1F
100
AcDbEntity
  8
0
  6
Continuous2
 62
     3
420
    65280
370
    -3
100
AcDbLine
 10
9.828999999999999
 20
13.14379622012561
 30
0.0
 11
9.729
 21
13.16044622012561
 31
0.0
  0
LINE
  5
1E3
330
1F
100
AcDbEntity
  8
0
  6
Continuous2
 62
     3
420
    65280
370
    -3
100
AcDbLine
 10
10.045
 20
13.14379622012561
 30
0.0
 11
10.145
 21
13.16044622012561
 31
0.0
  0
LINE
  5
1E4
330
1F
100
AcDbEntity
  8
0
  6
Continuous2
 62
     3
420
    65280
370
    -3
100
AcDbLine
 10
10.045
 20
13.17709622012561
 30
0.0
 11
10.145
 21
13.16044622012561
 31
0.0
  0
LINE
  5
1E5
330
1F
100
AcDbEntity
  8
0
  6
Continuous2
 62
     3
420
    65280
370
    -3
100
AcDbLine
 10
10.145
 20
13.11044622012561
 30
0.0
 11
10.145
 21
13.452
 31
0.0
  0
LINE
  5
1E6
330
1F
100
AcDbEntity
  8
0
  6
Continuous2
 62
     3
420
    65280
370
    -3
100
AcDbLine
 10
9.828999999999999
 20
13.17709622012561
 30
0.0
 11
9.729
 21
13.16044622012561
 31
0.0
  0
LINE
  5
1E7
330
1F
100
AcDbEntity
  8
0
  6
Continuous2
 62
     3
420
    65280
370
    -3
100
AcDbLine
 10
9.828999999999999
 20
13.14379622012561
 30
0.0
 11
9.729
 21
13.16044622012561
 31
0.0
  0
LINE
  5
1E8
330
1F
100
AcDbEntity
  8
0
  6
Continuous2
 62
     3
420
    65280
370
    -3
100
AcDbLine
 10
10.045
 20
13.14379622012561
 30
0.0
 11
10.145
 21
13.16044622012561
 31
0.0
  0
LINE
  5
1E9
330
1F
100
AcDbEntity
  8
0
  6
Continuous2
 62
     3
420
    65280
370
    -3
100
AcDbLine
 10
10.045
 20
13.17709622012561
 30
0.0
 11
10.145
 21
13.16044622012561
 31
0.0
  0
LINE
  5
1EA
330
1F
100
AcDbEntity
  8
0
  6
Continuous2
 62
     3
420
    65280
370
    -3
100
AcDbLine
 10
9.729
 20
13.11044622012561
 30
0.0
 11
9.729
 21
13.402
 31
0.0
  0
LINE
  5
1EB
330
1F
100
AcDbEntity
  8
0
  6
Continuous2
 62
     3
420
    65280
370
    -3
100
AcDbLine
 10
9.828999999999999
 20
13.17709622012561
 30
0.0
 11
9.729
 21
13.16044622012561
 31
0.0
  0
LINE
  5
1EC
330
1F
100
AcDbEntity
  8
0
  6
Continuous2
 62
     3
420
    65280
370
    -3
100
AcDbLine
 10
9.828999999999999
 20
13.14379622012561
 30
0.0
 11
9.729
 21
13.16044622012561
 31
0.0
  0
LINE
  5
1ED
330
1F
100
AcDbEntity
  8
0
  6
Continuous2
 62
     3
420
    65280
370
    -3
100
AcDbLine
 10
10.045
 20
13.14379622012561
 30
0.0
 11
10.145
 21
13.16044622012561
 31
0.0
  0
LINE
  5
1EE
330
1F
100
AcDbEntity
  8
0
  6
Continuous2
 62
     3
420
    65280
370
    -3
100
AcDbLine
 10
10.045
 20
13.17709622012561
 30
0.0
 11
10.145
 21
13.16044622012561
 31
0.0
  0
LINE
  5
1EF
330
1F
100
AcDbEntity
  8
0
  6
Continuous2
 62
     3
420
    65280
370
    -3
100
AcDbLine
 10
9.937000000000001
 20
13.16044622012561
 30
0.0
 11
9.729
 21
13.16044622012561
 31
0.0
  0
LINE
  5
1F0
330
1F
100
AcDbEntity
  8
0
  6
Continuous2
 62
     3
420
    65280
370
    -3
100
AcDbLine
 10
9.828999999999999
 20
13.17709622012561
 30
0.0
 11
9.729
 21
13.16044622012561
 31
0.0
  0
LINE
  5
1F1
330
1F
100
AcDbEntity
  8
0
  6
Continuous2
 62
     3
420
    65280
370
    -3
100
AcDbLine
 10
9.828999999999999
 20
13.14379622012561
 30
0.0
 11
9.729
 21
13.16044622012561
 31
0.0
  0
LINE
  5
1F2
330
1F
100
AcDbEntity
  8
0
  6
Continuous2
 62
     3
420
    65280
370
    -3
100
AcDbLine
 10
10.045
 20
13.14379622012561
 30
0.0
 11
10.145
 21
13.16044622012561
 31
0.0
  0
LINE
  5
1F3
330
1F
100
AcDbEntity
  8
0
  6
Continuous2
 62
     3
420
    65280
370
    -3
100
AcDbLine
 10
10.045
 20
13.17709622012561
 30
0.0
 11
10.145
 21
13.16044622012561
 31
0.0
  0
TEXT
  5
1F4
330
1F
100
AcDbEntity
  8
0
  6
Continuous2
 62
     3
420
    65280
370
    -3
100
AcDbText
 10
10.16657
 20
13.11044622012561
 30
0.0
 40
0.1
  1
0.416
 41
0.5
  7
MCStick_A0.500000_S0.000000
100
AcDbText
  0
LINE
  5
1F5
330
1F
100
AcDbEntity
  8
0
  6
Continuous2
 62
     3
420
    65280
370
    -3
100
AcDbLine
 10
9.937000000000001
 20
13.16044622012561
 30
0.0
 11
10.145
 21
13.16044622012561
 31
0.0
  0
LINE
  5
1F6
330
1F
100
AcDbEntity
  8
0
  6
Continuous2
 62
     3
420
    65280
370
    -3
100
AcDbLine
 10
9.937000000000001
 20
13.16044622012561
 30
0.0
 11
9.923430000000002
 21
13.16044622012561
 31
0.0
  0
LINE
  5
1F7
330
1F
100
AcDbEntity
  8
0
  6
Continuous2
 62
     3
420
    65280
370
    -3
100
AcDbLine
 10
9.923430000000002
 20
13.16044622012561
 30
0.0
 11
10.12343
 21
13.16044622012561
 31
0.0
  0
LINE
  5
1F8
330
1F
100
AcDbEntity
  8
0
  6
Continuous2
 62
     3
420
    65280
370
    -3
100
AcDbLine
 10
9.828999999999999
 20
13.17709622012561
 30
0.0
 11
9.729
 21
13.16044622012561
 31
0.0
  0
LINE
  5
1F9
330
1F
100
AcDbEntity
  8
0
  6
Continuous2
 62
     3
420
    65280
370
    -3
100
AcDbLine
 10
9.828999999999999
 20
13.14379622012561
 30
0.0
 11
9.729
 21
13.16044622012561
 31
0.0
  0
LINE
  5
1FA
330
1F
100
AcDbEntity
  8
0
  6
Continuous2
 62
     3
420
    65280
370
    -3
100
AcDbLine
 10
10.045
 20
13.14379622012561
 30
0.0
 11
10.145
 21
13.16044622012561
 31
0.0
  0
LINE
  5
1FB
330
1F
100
AcDbEntity
  8
0
  6
Continuous2
 62
     3
420
    65280
370
    -3
100
AcDbLine
 10
10.045
 20
13.17709622012561
 30
0.0
 11
10.145
 21
13.16044622012561
 31
0.0
  0
LINE
  5
1FC
330
1F
100
AcDbEntity
  8
0
  6
Continuous2
 62
     3
420
    65280
370
    -3
100
AcDbLine
 10
10.145
 20
13.11044622012561
 30
0.0
 11
10.145
 21
13.452
 31
0.0
  0
LINE
  5
1FD
330
1F
100
AcDbEntity
  8
0
  6
Continuous2
 62
     3
420
    65280
370
    -3
100
AcDbLine
 10
9.828999999999999
 20
13.17709622012561
 30
0.0
 11
9.729
 21
13.16044622012561
 31
0.0
  0
LINE
  5
1FE
330
1F
100
AcDbEntity
  8
0
  6
Continuous2
 62
     3
420
    65280
370
    -3
100
AcDbLine
 10
9.828999999999999
 20
13.14379622012561
 30
0.0
 11
9.729
 21
13.16044622012561
 31
0.0
  0
LINE
  5
1FF
330
1F
100
AcDbEntity
  8
0
  6
Continuous2
 62
     3
420
    65280
370
    -3
100
AcDbLine
 10
10.045
 20
13.14379622012561
 30
0.0
 11
10.145
 21
13.16044622012561
 31
0.0
  0
LINE
  5
200
330
1F
100
AcDbEntity
  8
0
  6
Continuous2
 62
     3
420
    65280
370
    -3
100
AcDbLine
 10
10.045
 20
13.17709622012561
 30
0.0
 11
10.145
 21
13.16044622012561
 31
0.0
  0
LINE
  5
201
330
1F
100
AcDbEntity
  8
0
  6
Continuous2
 62
     3
420
    65280
370
    -3
100
AcDbLine
 10
11.44134731618306
 20
14.6
 30
0.0
 11
10.215
 21
14.6
 31
0.0
  0
LINE
  5
202
330
1F
100
AcDbEntity
  8
0
  6
Continuous2
 62
     3
420
    65280
370
    -3
100
AcDbLine
 10
11.37469731618306
 20
14.7
 30
0.0
 11
11.39134731618306
 21
14.6
 31
0.0
  0
LINE
  5
203
330
1F
100
AcDbEntity
  8
0
  6
Continuous2
 62
     3
420
    65280
370
    -3
100
AcDbLine
 10
11.40799731618306
 20
14.7
 30
0.0
 11
11.39134731618306
 21
14.6
 31
0.0
  0
LINE
  5
204
330
1F
100
AcDbEntity
  8
0
  6
Continuous2
 62
     3
420
    65280
370
    -3
100
AcDbLine
 10
11.40799731618306
 20
16.3
 30
0.0
 11
11.39134731618306
 21
16.4
 31
0.0
  0
LINE
  5
205
330
1F
100
AcDbEntity
  8
0
  6
Continuous2
 62
     3
420
    65280
370
    -3
100
AcDbLine
 10
11.37469731618306
 20
16.3
 30
0.0
 11
11.39134731618306
 21
16.4
 31
0.0
  0
LINE
  5
206
330
1F
100
AcDbEntity
  8
0
  6
Continuous2
 62
     3
420
    65280
370
    -3
100
AcDbLine
 10
11.39134731618306
 20
15.58466151728608
 30
0.0
 11
11.39134731618306
 21
14.6
 31
0.0
  0
LINE
  5
207
330
1F
100
AcDbEntity
  8
0
  6
Continuous2
 62
     3
420
    65280
370
    -3
100
AcDbLine
 10
11.37469731618306
 20
14.7
 30
0.0
 11
11.39134731618306
 21
14.6
 31
0.0
  0
LINE
  5
208
330
1F
100
AcDbEntity
  8
0
  6
Continuous2
 62
     3
420
    65280
370
    -3
100
AcDbLine
 10
11.40799731618306
 20
14.7
 30
0.0
 11
11.39134731618306
 21
14.6
 31
0.0
  0
LINE
  5
209
330
1F
100
AcDbEntity
  8
0
  6
Continuous2
 62
     3
420
    65280
370
    -3
100
AcDbLine
 10
11.40799731618306
 20
16.3
 30
0.0
 11
11.39134731618306
 21
16.4
 31
0.0
  0
LINE
  5
20A
330
1F
100
AcDbEntity
  8
0
  6
Continuous2
 62
     3
420
    65280
370
    -3
100
AcDbLine
 10
11.37469731618306
 20
16.3
 30
0.0
 11
11.39134731618306
 21
16.4
 31
0.0
  0
TEXT
  5
20B
330
1F
100
AcDbEntity
  8
0
  6
Continuous2
 62
     3
420
    65280
370
    -3
100
AcDbText
 10
11.28007280637914
 20
15.63909959420916
 30
0.0
 40
0.1
  1
1.800
 41
0.5
  7
MCStick_A0.500000_S0.000000
100
AcDbText
  0
LINE
  5
20C
330
1F
100
AcDbEntity
  8
0
  6
Continuous2
 62
     3
420
    65280
370
    -3
100
AcDbLine
 10
11.39134731618306
 20
15.79353767113223
 30
0.0
 11
11.39134731618306
 21
16.4
 31
0.0
  0
LINE
  5
20D
330
1F
100
AcDbEntity
  8
0
  6
Continuous2
 62
     3
420
    65280
370
    -3
100
AcDbLine
 10
11.37469731618306
 20
14.7
 30
0.0
 11
11.39134731618306
 21
14.6
 31
0.0
  0
LINE
  5
20E
330
1F
100
AcDbEntity
  8
0
  6
Continuous2
 62
     3
420
    65280
370
    -3
100
AcDbLine
 10
11.40799731618306
 20
14.7
 30
0.0
 11
11.39134731618306
 21
14.6
 31
0.0
  0
LINE
  5
20F
330
1F
100
AcDbEntity
  8
0
  6
Continuous2
 62
     3
420
    65280
370
    -3
100
AcDbLine
 10
11.40799731618306
 20
16.3
 30
0.0
 11
11.39134731618306
 21
16.4
 31
0.0
  0
LINE
  5
210
330
1F
100
AcDbEntity
  8
0
  6
Continuous2
 62
     3
420
    65280
370
    -3
100
AcDbLine
 10
11.37469731618306
 20
16.3
 30
0.0
 11
11.39134731618306
 21
16.4
 31
0.0
  0
LINE
  5
211
330
1F
100
AcDbEntity
  8
0
  6
Continuous2
 62
     3
420
    65280
370
    -3
100
AcDbLine
 10
11.44134731618306
 20
16.4
 30
0.0
 11
10.215
 21
16.4
 31
0.0
  0
LINE
  5
212
330
1F
100
AcDbEntity
  8
0
  6
Continuous2
 62
     3
420
    65280
370
    -3
100
AcDbLine
 10
11.37469731618306
 20
14.7
 30
0.0
 11
11.39134731618306
 21
14.6
 31
0.0
  0
LINE
  5
213
330
1F
100
AcDbEntity
  8
0
  6
Continuous2
 62
     3
420
    65280
370
    -3
100
AcDbLine
 10
11.40799731618306
 20
14.7
 30
0.0
 11
11.39134731618306
 21
14.6
 31
0.0
  0
LINE
  5
214
330
1F
100
AcDbEntity
  8
0
  6
Continuous2
 62
     3
420
    65280
370
    -3
100
AcDbLine
 10
11.40799731618306
 20
16.3
 30
0.0
 11
11.39134731618306
 21
16.4
 31
0.0
  0
LINE
  5
215
330
1F
100
AcDbEntity
  8
0
  6
Continuous2
 62
     3
420
    65280
370
    -3
100
AcDbLine
 10
11.37469731618306
 20
16.3
 30
0.0
 11
11.39134731618306
 21
16.4
 31
0.0
  0
LINE
  5
216
330
1F
100
AcDbEntity
  8
0
  6
Continuous2
 62
     3
420
    65280
370
    -3
100
AcDbLine
 10
11.44134731618306
 20
14.6
 30
0.0
 11
10.215
 21
14.6
 31
0.0
  0
LINE
  5
217
330
1F
100
AcDbEntity
  8
0
  6
Continuous2
 62
     3
420
    65280
370
    -3
100
AcDbLine
 10
11.37469731618306
 20
14.7
 30
0.0
 11
11.39134731618306
 21
14.6
 31
0.0
  0
LINE
  5
218
330
1F
100
AcDbEntity
  8
0
  6
Continuous2
 62
     3
420
    65280
370
    -3
100
AcDbLine
 10
11.40799731618306
 20
14.7
 30
0.0
 11
11.39134731618306
 21
14.6
 31
0.0
  0
LINE
  5
219
330
1F
100
AcDbEntity
  8
0
  6
Continuous2
 62
     3
420
    65280
370
    -3
100
AcDbLine
 10
11.40799731618306
 20
16.3
 30
0.0
 11
11.39134731618306
 21
16.4
 31
0.0
  0
LINE
  5
21A
330
1F
100
AcDbEntity
  8
0
  6
Continuous2
 62
     3
420
    65280
370
    -3
100
AcDbLine
 10
11.37469731618306
 20
16.3
 30
0.0
 11
11.39134731618306
 21
16.4
 31
0.0
  0
LINE
  5
21B
330
1F
100
AcDbEntity
  8
0
  6
Continuous2
 62
     3
420
    65280
370
    -3
100
AcDbLine
 10
11.39134731618306
 20
15.58466151728608
 30
0.0
 11
11.39134731618306
 21
14.6
 31
0.0
  0
LINE
  5
21C
330
1F
100
AcDbEntity
  8
0
  6
Continuous2
 62
     3
420
    65280
370
    -3
100
AcDbLine
 10
11.37469731618306
 20
14.7
 30
0.0
 11
11.39134731618306
 21
14.6
 31
0.0
  0
LINE
  5
21D
330
1F
100
AcDbEntity
  8
0
  6
Continuous2
 62
     3
420
    65280
370
    -3
100
AcDbLine
 10
11.40799731618306
 20
14.7
 30
0.0
 11
11.39134731618306
 21
14.6
 31
0.0
  0
LINE
  5
21E
330
1F
100
AcDbEntity
  8
0
  6
Continuous2
 62
     3
420
    65280
370
    -3
100
AcDbLine
 10
11.40799731618306
 20
16.3
 30
0.0
 11
11.39134731618306
 21
16.4
 31
0.0
  0
LINE
  5
21F
330
1F
100
AcDbEntity
  8
0
  6
Continuous2
 62
     3
420
    65280
370
    -3
100
AcDbLine
 10
11.37469731618306
 20
16.3
 30
0.0
 11
11.39134731618306
 21
16.4
 31
0.0
  0
TEXT
  5
220
330
1F
100
AcDbEntity
  8
0
  6
Continuous2
 62
     3
420
    65280
370
    -3
100
AcDbText
 10
11.28007280637914
 20
15.63909959420916
 30
0.0
 40
0.1
  1
1.800
 41
0.5
  7
MCStick_A0.500000_S0.000000
100
AcDbText
  0
LINE
  5
221
330
1F
100
AcDbEntity
  8
0
  6
Continuous2
 62
     3
420
    65280
370
    -3
100
AcDbLine
 10
11.39134731618306
 20
15.79353767113223
 30
0.0
 11
11.39134731618306
 21
16.4
 31
0.0
  0
LINE
  5
222
330
1F
100
AcDbEntity
  8
0
  6
Continuous2
 62
     3
420
    65280
370
    -3
100
AcDbLine
 10
11.37469731618306
 20
14.7
 30
0.0
 11
11.39134731618306
 21
14.6
 31
0.0
  0
LINE
  5
223
330
1F
100
AcDbEntity
  8
0
  6
Continuous2
 62
     3
420
    65280
370
    -3
100
AcDbLine
 10
11.40799731618306
 20
14.7
 30
0.0
 11
11.39134731618306
 21
14.6
 31
0.0
  0
LINE
  5
224
330
1F
100
AcDbEntity
  8
0
  6
Continuous2
 62
     3
420
    65280
370
    -3
100
AcDbLine
 10
11.40799731618306
 20
16.3
 30
0.0
 11
11.39134731618306
 21
16.4
 31
0.0
  0
LINE
  5
225
330
1F
100
AcDbEntity
  8
0
  6
Continuous2
 62
     3
420
    65280
370
    -3
100
AcDbLine
 10
11.37469731618306
 20
16.3
 30
0.0
 11
11.39134731618306
 21
16.4
 31
0.0
  0
LINE
  5
226
330
1F
100
AcDbEntity
  8
0
  6
Continuous2
 62
     3
420
    65280
370
    -3
100
AcDbLine
 10
11.44134731618306
 20
16.4
 30
0.0
 11
10.215
 21
16.4
 31
0.0
  0
LINE
  5
227
330
1F
100
AcDbEntity
  8
0
  6
Continuous2
 62
     3
420
    65280
370
    -3
100
AcDbLine
 10
11.37469731618306
 20
14.7
 30
0.0
 11
11.39134731618306
 21
14.6
 31
0.0
  0
LINE
  5
228
330
1F
100
AcDbEntity
  8
0
  6
Continuous2
 62
     3
420
    65280
370
    -3
100
AcDbLine
 10
11.40799731618306
 20
14.7
 30
0.0
 11
11.39134731618306
 21
14.6
 31
0.0
  0
LINE
  5
229
330
1F
100
AcDbEntity
  8
0
  6
Continuous2
 62
     3
420
    65280
370
    -3
100
AcDbLine
 10
11.40799731618306
 20
16.3
 30
0.0
 11
11.39134731618306
 21
16.4
 31
0.0
  0
LINE
  5
22A
330
1F
100
AcDbEntity
  8
0
  6
Continuous2
 62
     3
420
    65280
370
    -3
100
AcDbLine
 10
11.37469731618306
 20
16.3
 30
0.0
 11
11.39134731618306
 21
16.4
 31
0.0
  0
LINE
  5
22B
330
1F
100
AcDbEntity
  8
0
  6
Continuous2
 62
     3
420
    65280
370
    -3
100
AcDbLine
 10
9.31
 20
17.92460080125488
 30
0.0
 11
9.31
 21
17.69
 31
0.0
  0
LINE
  5
22C
330
1F
100
AcDbEntity
  8
0
  6
Continuous2
 62
     3
420
    65280
370
    -3
100
AcDbLine
 10
9.41
 20
17.89125080125487
 30
0.0
 11
9.31
 21
17.87460080125487
 31
0.0
  0
LINE
  5
22D
330
1F
100
AcDbEntity
  8
0
  6
Continuous2
 62
     3
420
    65280
370
    -3
100
AcDbLine
 10
9.41
 20
17.85795080125488
 30
0.0
 11
9.31
 21
17.87460080125487
 31
0.0
  0
LINE
  5
22E
330
1F
100
AcDbEntity
  8
0
  6
Continuous2
 62
     3
420
    65280
370
    -3
100
AcDbLine
 10
9.46
 20
17.85795080125488
 30
0.0
 11
9.56
 21
17.87460080125487
 31
0.0
  0
LINE
  5
22F
330
1F
100
AcDbEntity
  8
0
  6
Continuous2
 62
     3
420
    65280
370
    -3
100
AcDbLine
 10
9.46
 20
17.89125080125487
 30
0.0
 11
9.56
 21
17.87460080125487
 31
0.0
  0
LINE
  5
230
330
1F
100
AcDbEntity
  8
0
  6
Continuous2
 62
     3
420
    65280
370
    -3
100
AcDbLine
 10
9.435
 20
17.87460080125487
 30
0.0
 11
9.31
 21
17.87460080125487
 31
0.0
  0
LINE
  5
231
330
1F
100
AcDbEntity
  8
0
  6
Continuous2
 62
     3
420
    65280
370
    -3
100
AcDbLine
 10
9.435
 20
17.87460080125487
 30
0.0
 11
9.36828036535936
 21
17.87460080125487
 31
0.0
  0
LINE
  5
232
330
1F
100
AcDbEntity
  8
0
  6
Continuous2
 62
     3
420
    65280
370
    -3
100
AcDbLine
 10
9.36828036535936
 20
17.87460080125487
 30
0.0
 11
9.16828036535936
 21
17.87460080125487
 31
0.0
  0
LINE
  5
233
330
1F
100
AcDbEntity
  8
0
  6
Continuous2
 62
     3
420
    65280
370
    -3
100
AcDbLine
 10
9.41
 20
17.89125080125487
 30
0.0
 11
9.31
 21
17.87460080125487
 31
0.0
  0
LINE
  5
234
330
1F
100
AcDbEntity
  8
0
  6
Continuous2
 62
     3
420
    65280
370
    -3
100
AcDbLine
 10
9.41
 20
17.85795080125488
 30
0.0
 11
9.31
 21
17.87460080125487
 31
0.0
  0
LINE
  5
235
330
1F
100
AcDbEntity
  8
0
  6
Continuous2
 62
     3
420
    65280
370
    -3
100
AcDbLine
 10
9.46
 20
17.85795080125488
 30
0.0
 11
9.56
 21
17.87460080125487
 31
0.0
  0
LINE
  5
236
330
1F
100
AcDbEntity
  8
0
  6
Continuous2
 62
     3
420
    65280
370
    -3
100
AcDbLine
 10
9.46
 20
17.89125080125487
 30
0.0
 11
9.56
 21
17.87460080125487
 31
0.0
  0
TEXT
  5
237
330
1F
100
AcDbEntity
  8
0
  6
Continuous2
 62
     3
420
    65280
370
    -3
100
AcDbText
 10
8.877689384967203
 20
17.82460080125487
 30
0.0
 40
0.1
  1
0.250
 41
0.5
  7
MCStick_A0.500000_S0.000000
100
AcDbText
  0
LINE
  5
238
330
1F
100
AcDbEntity
  8
0
  6
Continuous2
 62
     3
420
    65280
370
    -3
100
AcDbLine
 10
9.435
 20
17.87460080125487
 30
0.0
 11
9.56
 21
17.87460080125487
 31
0.0
  0
LINE
  5
239
330
1F
100
AcDbEntity
  8
0
  6
Continuous2
 62
     3
420
    65280
370
    -3
100
AcDbLine
 10
9.41
 20
17.89125080125487
 30
0.0
 11
9.31
 21
17.87460080125487
 31
0.0
  0
LINE
  5
23A
330
1F
100
AcDbEntity
  8
0
  6
Continuous2
 62
     3
420
    65280
370
    -3
100
AcDbLine
 10
9.41
 20
17.85795080125488
 30
0.0
 11
9.31
 21
17.87460080125487
 31
0.0
  0
LINE
  5
23B
330
1F
100
AcDbEntity
  8
0
  6
Continuous2
 62
     3
420
    65280
370
    -3
100
AcDbLine
 10
9.46
 20
17.85795080125488
 30
0.0
 11
9.56
 21
17.87460080125487
 31
0.0
  0
LINE
  5
23C
330
1F
100
AcDbEntity
  8
0
  6
Continuous2
 62
     3
420
    65280
370
    -3
100
AcDbLine
 10
9.46
 20
17.89125080125487
 30
0.0
 11
9.56
 21
17.87460080125487
 31
0.0
  0
LINE
  5
23D
330
1F
100
AcDbEntity
  8
0
  6
Continuous2
 62
     3
420
    65280
370
    -3
100
AcDbLine
 10
9.56
 20
17.92460080125488
 30
0.0
 11
9.56
 21
17.74
 31
0.0
  0
LINE
  5
23E
330
1F
100
AcDbEntity
  8
0
  6
Continuous2
 62
     3
420
    65280
370
    -3
100
AcDbLine
 10
9.41
 20
17.89125080125487
 30
0.0
 11
9.31
 21
17.87460080125487
 31
0.0
  0
LINE
  5
23F
330
1F
100
AcDbEntity
  8
0
  6
Continuous2
 62
     3
420
    65280
370
    -3
100
AcDbLine
 10
9.41
 20
17.85795080125488
 30
0.0
 11
9.31
 21
17.87460080125487
 31
0.0
  0
LINE
  5
240
330
1F
100
AcDbEntity
  8
0
  6
Continuous2
 62
     3
420
    65280
370
    -3
100
AcDbLine
 10
9.46
 20
17.85795080125488
 30
0.0
 11
9.56
 21
17.87460080125487
 31
0.0
  0
LINE
  5
241
330
1F
100
AcDbEntity
  8
0
  6
Continuous2
 62
     3
420
    65280
370
    -3
100
AcDbLine
 10
9.46
 20
17.89125080125487
 30
0.0
 11
9.56
 21
17.87460080125487
 31
0.0
  0
LINE
  5
242
330
1F
100
AcDbEntity
  8
0
  6
Continuous2
 62
     3
420
    65280
370
    -3
100
AcDbLine
 10
9.31
 20
17.92460080125488
 30
0.0
 11
9.31
 21
17.69
 31
0.0
  0
LINE
  5
243
330
1F
100
AcDbEntity
  8
0
  6
Continuous2
 62
     3
420
    65280
370
    -3
100
AcDbLine
 10
9.41
 20
17.89125080125487
 30
0.0
 11
9.31
 21
17.87460080125487
 31
0.0
  0
LINE
  5
244
330
1F
100
AcDbEntity
  8
0
  6
Continuous2
 62
     3
420
    65280
370
    -3
100
AcDbLine
 10
9.41
 20
17.85795080125488
 30
0.0
 11
9.31
 21
17.87460080125487
 31
0.0
  0
LINE
  5
245
330
1F
100
AcDbEntity
  8
0
  6
Continuous2
 62
     3
420
    65280
370
    -3
100
AcDbLine
 10
9.46
 20
17.85795080125488
 30
0.0
 11
9.56
 21
17.87460080125487
 31
0.0
  0
LINE
  5
246
330
1F
100
AcDbEntity
  8
0
  6
Continuous2
 62
     3
420
    65280
370
    -3
100
AcDbLine
 10
9.46
 20
17.89125080125487
 30
0.0
 11
9.56
 21
17.87460080125487
 31
0.0
  0
LINE
  5
247
330
1F
100
AcDbEntity
  8
0
  6
Continuous2
 62
     3
420
    65280
370
    -3
100
AcDbLine
 10
9.435
 20
17.87460080125487
 30
0.0
 11
9.31
 21
17.87460080125487
 31
0.0
  0
LINE
  5
248
330
1F
100
AcDbEntity
  8
0
  6
Continuous2
 62
     3
420
    65280
370
    -3
100
AcDbLine
 10
9.435
 20
17.87460080125487
 30
0.0
 11
9.36828036535936
 21
17.87460080125487
 31
0.0
  0
LINE
  5
249
330
1F
100
AcDbEntity
  8
0
  6
Continuous2
 62
     3
420
    65280
370
    -3
100
AcDbLine
 10
9.36828036535936
 20
17.87460080125487
 30
0.0
 11
9.16828036535936
 21
17.87460080125487
 31
0.0
  0
LINE
  5
24A
330
1F
100
AcDbEntity
  8
0
  6
Continuous2
 62
     3
420
    65280
370
    -3
100
AcDbLine
 10
9.41
 20
17.89125080125487
 30
0.0
 11
9.31
 21
17.87460080125487
 31
0.0
  0
LINE
  5
24B
330
1F
100
AcDbEntity
  8
0
  6
Continuous2
 62
     3
420
    65280
370
    -3
100
AcDbLine
 10
9.41
 20
17.85795080125488
 30
0.0
 11
9.31
 21
17.87460080125487
 31
0.0
  0
LINE
  5
24C
330
1F
100
AcDbEntity
  8
0
  6
Continuous2
 62
     3
420
    65280
370
    -3
100
AcDbLine
 10
9.46
 20
17.85795080125488
 30
0.0
 11
9.56
 21
17.87460080125487
 31
0.0
  0
LINE
  5
24D
330
1F
100
AcDbEntity
  8
0
  6
Continuous2
 62
     3
420
    65280
370
    -3
100
AcDbLine
 10
9.46
 20
17.89125080125487
 30
0.0
 11
9.56
 21
17.87460080125487
 31
0.0
  0
TEXT
  5
24E
330
1F
100
AcDbEntity
  8
0
  6
Continuous2
 62
     3
420
    65280
370
    -3
100
AcDbText
 10
8.877689384967203
 20
17.82460080125487
 30
0.0
 40
0.1
  1
0.250
 41
0.5
  7
MCStick_A0.500000_S0.000000
100
AcDbText
  0
LINE
  5
24F
330
1F
100
AcDbEntity
  8
0
  6
Continuous2
 62
     3
420
    65280
370
    -3
100
AcDbLine
 10
9.435
 20
17.87460080125487
 30
0.0
 11
9.56
 21
17.87460080125487
 31
0.0
  0
LINE
  5
250
330
1F
100
AcDbEntity
  8
0
  6
Continuous2
 62
     3
420
    65280
370
    -3
100
AcDbLine
 10
9.41
 20
17.89125080125487
 30
0.0
 11
9.31
 21
17.87460080125487
 31
0.0
  0
LINE
  5
251
330
1F
100
AcDbEntity
  8
0
  6
Continuous2
 62
     3
420
    65280
370
    -3
100
AcDbLine
 10
9.41
 20
17.85795080125488
 30
0.0
 11
9.31
 21
17.87460080125487
 31
0.0
  0
LINE
  5
252
330
1F
100
AcDbEntity
  8
0
  6
Continuous2
 62
     3
420
    65280
370
    -3
100
AcDbLine
 10
9.46
 20
17.85795080125488
 30
0.0
 11
9.56
 21
17.87460080125487
 31
0.0
  0
LINE
  5
253
330
1F
100
AcDbEntity
  8
0
  6
Continuous2
 62
     3
420
    65280
370
    -3
100
AcDbLine
 10
9.46
 20
17.89125080125487
 30
0.0
 11
9.56
 21
17.87460080125487
 31
0.0
  0
LINE
  5
254
330
1F
100
AcDbEntity
  8
0
  6
Continuous2
 62
     3
420
    65280
370
    -3
100
AcDbLine
 10
9.56
 20
17.92460080125488
 30
0.0
 11
9.56
 21
17.74
 31
0.0
  0
LINE
  5
255
330
1F
100
AcDbEntity
  8
0
  6
Continuous2
 62
     3
420
    65280
370
    -3
100
AcDbLine
 10
9.41
 20
17.89125080125487
 30
0.0
 11
9.31
 21
17.87460080125487
 31
0.0
  0
LINE
  5
256
330
1F
100
AcDbEntity
  8
0
  6
Continuous2
 62
     3
420
    65280
370
    -3
100
AcDbLine
 10
9.41
 20
17.85795080125488
 30
0.0
 11
9.31
 21
17.87460080125487
 31
0.0
  0
LINE
  5
257
330
1F
100
AcDbEntity
  8
0
  6
Continuous2
 62
     3
420
    65280
370
    -3
100
AcDbLine
 10
9.46
 20
17.85795080125488
 30
0.0
 11
9.56
 21
17.87460080125487
 31
0.0
  0
LINE
  5
258
330
1F
100
AcDbEntity
  8
0
  6
Continuous2
 62
     3
420
    65280
370
    -3
100
AcDbLine
 10
9.46
 20
17.89125080125487
 30
0.0
 11
9.56
 21
17.87460080125487
 31
0.0
  0
TEXT
  5
259
330
1F
100
AcDbEntity
  8
0
  6
Continuous2
 62
     3
420
    65280
370
    -3
100
AcDbText
 10
9.937853551050617
 20
12.65333846255363
 30
0.0
 40
0.1
  1
CHAM 0.010 x 45 DEG.
 41
0.5
  7
MCStick_A0.500000_S0.000000
 72
     1
 11
10.393805932003
 21
12.70333846255363
 31
0.0
100
AcDbText
 73
     2
  0
LEADER
  5
25A
330
1F
100
AcDbEntity
  8
0
  6
Continuous2
 62
     3
420
    65280
370
    -3
100
AcDbLeader
  3
Standard
 76
     3
 10
9.59
 20
13.48
 30
0.0
 10
9.822235932002997
 20
12.69204038563055
 30
0.0
 10
9.872235932002997
 20
12.69204038563055
 30
0.0
  0
TEXT
  5
25D
330
1F
100
AcDbEntity
  8
0
  6
Continuous2
 62
     3
420
    65280
370
    -3
100
AcDbText
 10
8.66603024211948
 20
13.23531761595686
 30
0.0
 40
0.1
  1
R 0.015
 41
0.5
  7
MCStick_A0.500000_S0.000000
 72
     1
 11
8.819601670690908
 21
13.28531761595686
 31
0.0
100
AcDbText
 73
     2
  0
LEADER
  5
25E
330
1F
100
AcDbEntity
  8
0
  6
Continuous2
 62
     3
420
    65280
370
    -3
100
AcDbLeader
  3
Standard
 76
     3
 10
9.559999999999999
 20
13.455
 30
0.0
 10
9.05244618049483
 20
13.27401953903378
 30
0.0
 10
9.00244618049483
 20
13.27401953903378
 30
0.0
  0
TEXT
  5
261
330
1F
100
AcDbEntity
  8
0
  6
Continuous2
 62
     3
420
    65280
370
    -3
100
AcDbText
 10
9.378364689395156
 20
13.97514805238235
 30
0.0
 40
0.1
  1
R 0.032
 41
0.5
  7
MCStick_A0.500000_S0.000000
 72
     1
 11
9.531936117966584
 21
14.02514805238235
 31
0.0
100
AcDbText
 73
     2
  0
LEADER
  5
262
330
1F
100
AcDbEntity
  8
0
  6
Continuous2
 62
     3
420
    65280
370
    -3
100
AcDbLeader
  3
Standard
 76
     3
 10
9.713999999999999
 20
13.583
 30
0.0
 10
9.777231608162662
 20
14.01384997545927
 30
0.0
 10
9.727231608162661
 20
14.01384997545927
 30
0.0
  0
TEXT
  5
265
330
1F
100
AcDbEntity
  8
0
  6
Continuous2
 62
     3
420
    65280
370
    -3
100
AcDbText
 10
11.1016204392574
 20
16.80226309082615
 30
0.0
 40
0.1
  1
TYP.
 41
0.5
  7
MCStick_A0.500000_S0.000000
 72
     1
 11
11.17423948687645
 21
16.85226309082615
 31
0.0
100
AcDbText
 73
     2
  0
TEXT
  5
267
330
1F
100
AcDbEntity
  8
0
  6
Continuous2
 62
     3
420
    65280
370
    -3
100
AcDbText
 10
10.70033952340084
 20
16.8112936792928
 30
0.0
 40
0.1
  1
R 0.030
 41
0.5
  7
MCStick_A0.500000_S0.000000
 72
     1
 11
10.85391095197227
 21
16.8612936792928
 31
0.0
100
AcDbText
 73
     2
  0
LEADER
  5
268
330
1F
100
AcDbEntity
  8
0
  6
Continuous2
 62
     3
420
    65280
370
    -3
100
AcDbLeader
  3
Standard
 76
     3
 10
9.87125
 20
16.43125
 30
0.0
 10
10.60861546177619
 20
16.84999560236973
 30
0.0
 10
10.65861546177619
 20
16.84999560236973
 30
0.0
  0
TEXT
  5
26B
330
1F
100
AcDbEntity
  8
0
  6
Continuous2
 62
     3
420
    65280
370
    -3
100
AcDbText
 10
11.73096344111969
 20
11.10827702702703
 30
0.0
 40
0.4
  1
THREADED ENDCAP
 41
0.5
  7
MCStick_A0.500000_S0.000000
 72
     1
 11
13.14524915540541
 21
11.30827702702703
 31
0.0
100
AcDbText
 73
     2
  0
TEXT
  5
26C
330
1F
100
AcDbEntity
  8
0
  6
Continuous2
 62
     3
420
    65280
370
    -3
100
AcDbText
 10
13.47309161840412
 20
10.7316089527027
 30
0.0
 40
0.2
  1
1751012
 41
0.5
  7
MCStick_A0.500000_S0.000000
 72
     1
 11
13.7992820945946
 21
10.8316089527027
 31
0.0
100
AcDbText
 73
     2
  0
ENDSEC
  0
SECTION
  2
OBJECTS
  0
DICTIONARY
  5
C
330
0
100
AcDbDictionary
281
     1
  3
ACAD_GROUP
350
D
  3
ACAD_LAYOUT
350
1A
  3
ACAD_MATERIAL
350
3B
  3
ACAD_MLEADERSTYLE
350
28E
  3
ACAD_MLINESTYLE
350
17
  3
ACAD_PLOTSETTINGS
350
19
  3
ACAD_PLOTSTYLENAME
350
E
  3
ACAD_TABLESTYLE
350
28D
  3
ACAD_VISUALSTYLE
350
2A
  0
DICTIONARY
  5
D
102
{ACAD_REACTORS
330
C
102
}
330
C
100
AcDbDictionary
281
     1
  0
DICTIONARY
  5
1A
102
{ACAD_REACTORS
330
C
102
}
330
C
100
AcDbDictionary
281
     1
  3
Layout1
350
1E
  3
Layout2
350
26
  3
Model
350
22
  0
DICTIONARY
  5
3B
102
{ACAD_REACTORS
330
C
102
}
330
C
100
AcDbDictionary
281
     1
  3
ByBlock
350
3D
  3
ByLayer
350
3C
  3
Global
350
3E
  0
DICTIONARY
  5
28E
102
{ACAD_REACTORS
330
C
102
}
330
C
100
AcDbDictionary
281
     1
  0
DICTIONARY
  5
17
102
{ACAD_REACTORS
330
C
102
}
330
C
100
AcDbDictionary
281
     1
  3
Standard
350
18
  0
DICTIONARY
  5
19
102
{ACAD_REACTORS
330
C
102
}
330
C
100
AcDbDictionary
281
     1
  0
ACDBDICTIONARYWDFLT
  5
E
102
{ACAD_REACTORS
330
C
102
}
330
C
100
AcDbDictionary
281
     1
  3
Normal
350
F
100
AcDbDictionaryWithDefault
340
F
  0
DICTIONARY
  5
28D
102
{ACAD_REACTORS
330
C
102
}
330
C
100
AcDbDictionary
281
     1
  0
DICTIONARY
  5
2A
102
{ACAD_REACTORS
330
C
102
}
330
C
100
AcDbDictionary
281
     1
  3
2dWireframe
350
2F
  3
3D Hidden
350
31
  3
3dWireframe
350
30
  3
Basic
350
32
  3
Brighten
350
36
  3
ColorChange
350
3A
  3
Conceptual
350
34
  3
Dim
350
35
  3
Facepattern
350
39
  3
Flat
350
2B
  3
FlatWithEdges
350
2C
  3
Gouraud
350
2D
  3
GouraudWithEdges
350
2E
  3
Linepattern
350
38
  3
Realistic
350
33
  3
Thicken
350
37
  0
LAYOUT
  5
1E
102
{ACAD_REACTORS
330
1A
102
}
330
1A
100
AcDbPlotSettings
  1

  2
none_device
  4

  6

 40
0.0
 41
0.0
 42
0.0
 43
0.0
 44
0.0
 45
0.0
 46
0.0
 47
0.0
 48
0.0
 49
0.0
140
0.0
141
0.0
142
1.0
143
1.0
 70
   688
 72
     0
 73
     0
 74
     5
  7

 75
    16
 76
     0
 77
     2
 78
   300
147
1.0
148
0.0
149
0.0
100
AcDbLayout
  1
Layout1
 70
     1
 71
     1
 10
0.0
 20
0.0
 11
12.0
 21
9.0
 12
0.0
 22
0.0
 32
0.0
 14
1.000000000000000E+20
 24
1.000000000000000E+20
 34
1.000000000000000E+20
 15
-1.000000000000000E+20
 25
-1.000000000000000E+20
 35
-1.000000000000000E+20
146
0.0
 13
0.0
 23
0.0
 33
0.0
 16
1.0
 26
0.0
 36
0.0
 17
0.0
 27
1.0
 37
0.0
 76
     0
330
1B
  0
LAYOUT
  5
26
102
{ACAD_REACTORS
330
1A
102
}
330
1A
100
AcDbPlotSettings
  1

  2
none_device
  4

  6

 40
0.0
 41
0.0
 42
0.0
 43
0.0
 44
0.0
 45
0.0
 46
0.0
 47
0.0
 48
0.0
 49
0.0
140
0.0
141
0.0
142
1.0
143
1.0
 70
   688
 72
     0
 73
     0
 74
     5
  7

 75
    16
 76
     0
 77
     2
 78
   300
147
1.0
148
0.0
149
0.0
100
AcDbLayout
  1
Layout2
 70
     1
 71
     2
 10
0.0
 20
0.0
 11
0.0
 21
0.0
 12
0.0
 22
0.0
 32
0.0
 14
0.0
 24
0.0
 34
0.0
 15
0.0
 25
0.0
 35
0.0
146
0.0
 13
0.0
 23
0.0
 33
0.0
 16
1.0
 26
0.0
 36
0.0
 17
0.0
 27
1.0
 37
0.0
 76
     0
330
23
  0
LAYOUT
  5
22
102
{ACAD_REACTORS
330
1A
102
}
330
1A
100
AcDbPlotSettings
  1

  2
none_device
  4

  6

 40
0.0
 41
0.0
 42
0.0
 43
0.0
 44
0.0
 45
0.0
 46
0.0
 47
0.0
 48
0.0
 49
0.0
140
0.0
141
0.0
142
1.0
143
1.0
 70
  1712
 72
     0
 73
     0
 74
     0
  7

 75
     0
 76
     0
 77
     2
 78
   300
147
1.0
148
0.0
149
0.0
100
AcDbLayout
  1
Model
 70
     1
 71
     0
 10
0.0
 20
0.0
 11
12.0
 21
9.0
 12
0.0
 22
0.0
 32
0.0
 14
-0.1999999999999986
 24
10.0
 34
0.0
 15
16.0
 25
20.0
 35
0.0
146
0.0
 13
0.0
 23
0.0
 33
0.0
 16
1.0
 26
0.0
 36
0.0
 17
0.0
 27
1.0
 37
0.0
 76
     0
330
1F
331
29
  0
MATERIAL
  5
3D
102
{ACAD_REACTORS
330
3B
102
}
330
3B
100
AcDbMaterial
  1
ByBlock
 72
     1
 94
      127
  0
MATERIAL
  5
3C
102
{ACAD_REACTORS
330
3B
102
}
330
3B
100
AcDbMaterial
  1
ByLayer
 72
     1
 94
      127
  0
MATERIAL
  5
3E
102
{ACAD_REACTORS
330
3B
102
}
330
3B
100
AcDbMaterial
  1
Global
 72
     1
 94
      127
  0
MLINESTYLE
  5
18
102
{ACAD_REACTORS
330
17
102
}
330
17
100
AcDbMlineStyle
  2
Standard
 70
     0
  3

 62
   256
 51
90.0
 52
90.0
 71
     2
 49
0.5
 62
   256
  6
BYLAYER
 49
-0.5
 62
   256
  6
BYLAYER
  0
ACDBPLACEHOLDER
  5
F
102
{ACAD_REACTORS
330
E
102
}
330
E
  0
VISUALSTYLE
  5
2F
102
{ACAD_REACTORS
330
2A
102
}
102
{ACAD_XDICTIONARY
360
275
102
}
330
2A
100
AcDbVisualStyle
  2
2dWireframe
 70
     4
 71
     0
 72
     2
 73
     0
 90
        0
 40
-0.6
 41
-30.0
 62
     5
 63
     7
421
 16777215
 74
     1
 91
        4
 64
     7
 65
   257
 75
     1
175
     1
 42
1.0
 92
        0
 66
   257
 43
1.0
 76
     1
 77
     6
 78
     2
 67
     7
 79
     5
170
     0
171
     0
290
     0
174
     0
 93
        1
 44
0.0
173
     0
291
     0
 45
0.0
  0
VISUALSTYLE
  5
31
102
{ACAD_REACTORS
330
2A
102
}
102
{ACAD_XDICTIONARY
360
279
102
}
330
2A
100
AcDbVisualStyle
  2
3D Hidden
 70
     6
 71
     1
 72
     2
 73
     2
 90
        0
 40
-0.6
 41
-30.0
 62
     5
 63
     7
421
 16777215
 74
     2
 91
        2
 64
     7
 65
   257
 75
     2
175
     1
 42
40.0
 92
        0
 66
   257
 43
1.0
 76
     1
 77
     6
 78
     2
 67
     7
 79
     3
170
     0
171
     0
290
     0
174
     0
 93
        1
 44
0.0
173
     0
291
     0
 45
0.0
  0
VISUALSTYLE
  5
30
102
{ACAD_REACTORS
330
2A
102
}
102
{ACAD_XDICTIONARY
360
277
102
}
330
2A
100
AcDbVisualStyle
  2
3dWireframe
 70
     5
 71
     0
 72
     2
 73
     0
 90
        0
 40
-0.6
 41
-30.0
 62
     5
 63
     7
421
 16777215
 74
     1
 91
        4
 64
     7
 65
   257
 75
     1
175
     1
 42
1.0
 92
        0
 66
   257
 43
1.0
 76
     1
 77
     6
 78
     2
 67
     7
 79
     5
170
     0
171
     0
290
     0
174
     0
 93
        1
 44
0.0
173
     0
291
     0
 45
0.0
  0
VISUALSTYLE
  5
32
102
{ACAD_REACTORS
330
2A
102
}
102
{ACAD_XDICTIONARY
360
27B
102
}
330
2A
100
AcDbVisualStyle
  2
Basic
 70
     7
 71
     1
 72
     0
 73
     1
 90
        0
 40
-0.6
 41
-30.0
 62
     5
 63
     7
421
 16777215
 74
     0
 91
        4
 64
     7
 65
   257
 75
     1
175
     1
 42
1.0
 92
        8
 66
     7
 43
1.0
 76
     1
 77
     6
 78
     2
 67
     7
 79
     5
170
     0
171
     0
290
     0
174
     0
 93
        1
 44
0.0
173
     0
291
     1
 45
0.0
  0
VISUALSTYLE
  5
36
102
{ACAD_REACTORS
330
2A
102
}
102
{ACAD_XDICTIONARY
360
283
102
}
330
2A
100
AcDbVisualStyle
  2
Brighten
 70
    12
 71
     2
 72
     2
 73
     0
 90
        0
 40
-0.6
 41
-30.0
 62
     5
 63
     7
421
 16777215
 74
     1
 91
        4
 64
     7
 65
   257
 75
     1
175
     1
 42
1.0
 92
        8
 66
     7
 43
1.0
 76
     1
 77
     6
 78
     2
 67
     7
 79
     5
170
     0
171
     0
290
     0
174
     0
 93
        1
 44
50.0
173
     0
291
     1
 45
0.0
  0
VISUALSTYLE
  5
3A
102
{ACAD_REACTORS
330
2A
102
}
102
{ACAD_XDICTIONARY
360
28B
102
}
330
2A
100
AcDbVisualStyle
  2
ColorChange
 70
    16
 71
     2
 72
     2
 73
     3
 90
        0
 40
-0.6
 41
-30.0
 62
     5
 63
     8
421
  8421504
 74
     1
 91
        4
 64
     7
 65
   257
 75
     1
175
     1
 42
1.0
 92
        8
 66
     8
424
  8421504
 43
1.0
 76
     1
 77
     6
 78
     2
 67
     7
 79
     5
170
     0
171
     0
290
     0
174
     0
 93
        1
 44
0.0
173
     0
291
     1
 45
0.0
  0
VISUALSTYLE
  5
34
102
{ACAD_REACTORS
330
2A
102
}
102
{ACAD_XDICTIONARY
360
27F
102
}
330
2A
100
AcDbVisualStyle
  2
Conceptual
 70
     9
 71
     3
 72
     2
 73
     0
 90
        0
 40
-0.6
 41
-30.0
 62
     5
 63
     7
421
 16777215
 74
     2
 91
        2
 64
     7
 65
   257
 75
     1
175
     1
 42
40.0
 92
        8
 66
     7
 43
1.0
 76
     1
 77
     6
 78
     2
 67
     7
 79
     3
170
     0
171
     0
290
     0
174
     0
 93
        1
 44
0.0
173
     0
291
     0
 45
0.0
  0
VISUALSTYLE
  5
35
102
{ACAD_REACTORS
330
2A
102
}
102
{ACAD_XDICTIONARY
360
281
102
}
330
2A
100
AcDbVisualStyle
  2
Dim
 70
    11
 71
     2
 72
     2
 73
     0
 90
        0
 40
-0.6
 41
-30.0
 62
     5
 63
     7
421
 16777215
 74
     1
 91
        4
 64
     7
 65
   257
 75
     1
175
     1
 42
1.0
 92
        8
 66
     7
 43
1.0
 76
     1
 77
     6
 78
     2
 67
     7
 79
     5
170
     0
171
     0
290
     0
174
     0
 93
        1
 44
-50.0
173
     0
291
     1
 45
0.0
  0
VISUALSTYLE
  5
39
102
{ACAD_REACTORS
330
2A
102
}
102
{ACAD_XDICTIONARY
360
289
102
}
330
2A
100
AcDbVisualStyle
  2
Facepattern
 70
    15
 71
     2
 72
     2
 73
     0
 90
        0
 40
-0.6
 41
-30.0
 62
     5
 63
     7
421
 16777215
 74
     1
 91
        4
 64
     7
 65
   257
 75
     1
175
     1
 42
1.0
 92
        8
 66
     7
 43
1.0
 76
     1
 77
     6
 78
     2
 67
     7
 79
     5
170
     0
171
     0
290
     0
174
     0
 93
        1
 44
0.0
173
     0
291
     1
 45
0.0
  0
VISUALSTYLE
  5
2B
102
{ACAD_REACTORS
330
2A
102
}
102
{ACAD_XDICTIONARY
360
26D
102
}
330
2A
100
AcDbVisualStyle
  2
Flat
 70
     0
 71
     2
 72
     1
 73
     1
 90
        2
 40
-0.6
 41
30.0
 62
     5
 63
     7
421
 16777215
 74
     0
 91
        4
 64
     7
 65
   257
 75
     1
175
     1
 42
1.0
 92
        8
 66
     7
 43
1.0
 76
     1
 77
     6
 78
     2
 67
     7
 79
     5
170
     0
171
     0
290
     0
174
     0
 93
       13
 44
0.0
173
     0
291
     1
 45
0.0
  0
VISUALSTYLE
  5
2C
102
{ACAD_REACTORS
330
2A
102
}
102
{ACAD_XDICTIONARY
360
26F
102
}
330
2A
100
AcDbVisualStyle
  2
FlatWithEdges
 70
     1
 71
     2
 72
     1
 73
     1
 90
        2
 40
-0.6
 41
30.0
 62
     5
 63
     7
421
 16777215
 74
     1
 91
        4
 64
     7
 65
   257
 75
     1
175
     1
 42
1.0
 92
        0
 66
   257
 43
1.0
 76
     1
 77
     6
 78
     2
 67
     7
 79
     5
170
     0
171
     0
290
     0
174
     0
 93
       13
 44
0.0
173
     0
291
     1
 45
0.0
  0
VISUALSTYLE
  5
2D
102
{ACAD_REACTORS
330
2A
102
}
102
{ACAD_XDICTIONARY
360
271
102
}
330
2A
100
AcDbVisualStyle
  2
Gouraud
 70
     2
 71
     2
 72
     2
 73
     1
 90
        2
 40
-0.6
 41
30.0
 62
     5
 63
     7
421
 16777215
 74
     0
 91
        4
 64
     7
 65
   257
 75
     1
175
     1
 42
1.0
 92
        0
 66
     7
 43
1.0
 76
     1
 77
     6
 78
     2
 67
     7
 79
     5
170
     0
171
     0
290
     0
174
     0
 93
       13
 44
0.0
173
     0
291
     1
 45
0.0
  0
VISUALSTYLE
  5
2E
102
{ACAD_REACTORS
330
2A
102
}
102
{ACAD_XDICTIONARY
360
273
102
}
330
2A
100
AcDbVisualStyle
  2
GouraudWithEdges
 70
     3
 71
     2
 72
     2
 73
     1
 90
        2
 40
-0.6
 41
30.0
 62
     5
 63
     7
421
 16777215
 74
     1
 91
        4
 64
     7
 65
   257
 75
     1
175
     1
 42
1.0
 92
        0
 66
   257
 43
1.0
 76
     1
 77
     6
 78
     2
 67
     7
 79
     5
170
     0
171
     0
290
     0
174
     0
 93
       13
 44
0.0
173
     0
291
     1
 45
0.0
  0
VISUALSTYLE
  5
38
102
{ACAD_REACTORS
330
2A
102
}
102
{ACAD_XDICTIONARY
360
287
102
}
330
2A
100
AcDbVisualStyle
  2
Linepattern
 70
    14
 71
     2
 72
     2
 73
     0
 90
        0
 40
-0.6
 41
-30.0
 62
     5
 63
     7
421
 16777215
 74
     1
 91
        4
 64
     7
 65
   257
 75
     7
175
     7
 42
1.0
 92
        8
 66
     7
 43
1.0
 76
     1
 77
     6
 78
     2
 67
     7
 79
     5
170
     0
171
     0
290
     0
174
     0
 93
        1
 44
0.0
173
     0
291
     1
 45
0.0
  0
VISUALSTYLE
  5
33
102
{ACAD_REACTORS
330
2A
102
}
102
{ACAD_XDICTIONARY
360
27D
102
}
330
2A
100
AcDbVisualStyle
  2
Realistic
 70
     8
 71
     2
 72
     2
 73
     0
 90
        0
 40
-0.6
 41
-30.0
 62
     5
 63
     7
421
 16777215
 74
     1
 91
        0
 64
     7
 65
   257
 75
     1
175
     1
 42
1.0
 92
        8
 66
     8
424
  7895160
 43
1.0
 76
     1
 77
     6
 78
     2
 67
     7
 79
     5
170
     0
171
     0
290
     0
174
     0
 93
       13
 44
0.0
173
     0
291
     0
 45
0.0
  0
VISUALSTYLE
  5
37
102
{ACAD_REACTORS
330
2A
102
}
102
{ACAD_XDICTIONARY
360
285
102
}
330
2A
100
AcDbVisualStyle
  2
Thicken
 70
    13
 71
     2
 72
     2
 73
     0
 90
        0
 40
-0.6
 41
-30.0
 62
     5
 63
     7
421
 16777215
 74
     1
 91
        4
 64
     7
 65
   257
 75
     1
175
     1
 42
1.0
 92
       12
 66
     7
 43
1.0
 76
     1
 77
     6
 78
     2
 67
     7
 79
     5
170
     0
171
     0
290
     0
174
     0
 93
        1
 44
0.0
173
     0
291
     1
 45
0.0
  0
DICTIONARY
  5
275
330
2F
100
AcDbDictionary
280
     1
281
     1
  3
ACAD_XREC_ROUNDTRIP
360
276
  0
DICTIONARY
  5
279
330
31
100
AcDbDictionary
280
     1
281
     1
  3
ACAD_XREC_ROUNDTRIP
360
27A
  0
DICTIONARY
  5
277
330
30
100
AcDbDictionary
280
     1
281
     1
  3
ACAD_XREC_ROUNDTRIP
360
278
  0
DICTIONARY
  5
27B
330
32
100
AcDbDictionary
280
     1
281
     1
  3
ACAD_XREC_ROUNDTRIP
360
27C
  0
DICTIONARY
  5
283
330
36
100
AcDbDictionary
280
     1
281
     1
  3
ACAD_XREC_ROUNDTRIP
360
284
  0
DICTIONARY
  5
28B
330
3A
100
AcDbDictionary
280
     1
281
     1
  3
ACAD_XREC_ROUNDTRIP
360
28C
  0
DICTIONARY
  5
27F
330
34
100
AcDbDictionary
280
     1
281
     1
  3
ACAD_XREC_ROUNDTRIP
360
280
  0
DICTIONARY
  5
281
330
35
100
AcDbDictionary
280
     1
281
     1
  3
ACAD_XREC_ROUNDTRIP
360
282
  0
DICTIONARY
  5
289
330
39
100
AcDbDictionary
280
     1
281
     1
  3
ACAD_XREC_ROUNDTRIP
360
28A
  0
DICTIONARY
  5
26D
330
2B
100
AcDbDictionary
280
     1
281
     1
  3
ACAD_XREC_ROUNDTRIP
360
26E
  0
DICTIONARY
  5
26F
330
2C
100
AcDbDictionary
280
     1
281
     1
  3
ACAD_XREC_ROUNDTRIP
360
270
  0
DICTIONARY
  5
271
330
2D
100
AcDbDictionary
280
     1
281
     1
  3
ACAD_XREC_ROUNDTRIP
360
272
  0
DICTIONARY
  5
273
330
2E
100
AcDbDictionary
280
     1
281
     1
  3
ACAD_XREC_ROUNDTRIP
360
274
  0
DICTIONARY
  5
287
330
38
100
AcDbDictionary
280
     1
281
     1
  3
ACAD_XREC_ROUNDTRIP
360
288
  0
DICTIONARY
  5
27D
330
33
100
AcDbDictionary
280
     1
281
     1
  3
ACAD_XREC_ROUNDTRIP
360
27E
  0
DICTIONARY
  5
285
330
37
100
AcDbDictionary
280
     1
281
     1
  3
ACAD_XREC_ROUNDTRIP
360
286
  0
XRECORD
  5
276
102
{ACAD_REACTORS
330
275
102
}
330
275
100
AcDbXrecord
280
     1
102
RTVSPropertyOp0
 70
     1
102
RTVSPropertyOp1
 70
     1
102
RTVSPropertyOp2
 70
     1
102
RTVSPropertyOp3
 70
     1
102
RTVSPropertyOp4
 70
     1
102
RTVSPropertyOp5
 70
     1
102
RTVSPropertyOp6
 70
     1
102
RTVSPropertyOp7
 70
     1
102
RTVSPropertyOp8
 70
     1
102
RTVSPropertyOp9
 70
     1
102
RTVSPropertyOp10
 70
     1
102
RTVSPropertyOp11
 70
     1
102
RTVSPropertyOp12
 70
     1
102
RTVSPropertyOp13
 70
     1
102
RTVSPropertyOp14
 70
     1
102
RTVSPropertyOp15
 70
     1
102
RTVSPropertyOp16
 70
     1
102
RTVSPropertyOp17
 70
     1
102
RTVSPropertyOp18
 70
     1
102
RTVSPropertyOp19
 70
     1
102
RTVSPropertyOp20
 70
     1
102
RTVSPropertyOp21
 70
     1
102
RTVSPropertyOp22
 70
     1
102
RTVSPropertyOp23
 70
     1
102
RTVSPropertyOp24
 70
     1
102
RTVSPropertyOp25
 70
     1
102
RTVSPropertyOp26
 70
     1
102
RTVSPropertyOp27
 70
     1
  0
XRECORD
  5
27A
102
{ACAD_REACTORS
330
279
102
}
330
279
100
AcDbXrecord
280
     1
102
RTVSPropertyOp0
 70
     1
102
RTVSPropertyOp1
 70
     1
102
RTVSPropertyOp2
 70
     1
102
RTVSPropertyOp3
 70
     1
102
RTVSPropertyOp4
 70
     1
102
RTVSPropertyOp5
 70
     1
102
RTVSPropertyOp6
 70
     1
102
RTVSPropertyOp7
 70
     1
102
RTVSPropertyOp8
 70
     1
102
RTVSPropertyOp9
 70
     1
102
RTVSPropertyOp10
 70
     1
102
RTVSPropertyOp11
 70
     1
102
RTVSPropertyOp12
 70
     1
102
RTVSPropertyOp13
 70
     1
102
RTVSPropertyOp14
 70
     1
102
RTVSPropertyOp15
 70
     1
102
RTVSPropertyOp16
 70
     1
102
RTVSPropertyOp17
 70
     1
102
RTVSPropertyOp18
 70
     1
102
RTVSPropertyOp19
 70
     1
102
RTVSPropertyOp20
 70
     1
102
RTVSPropertyOp21
 70
     1
102
RTVSPropertyOp22
 70
     1
102
RTVSPropertyOp23
 70
     1
102
RTVSPropertyOp24
 70
     1
102
RTVSPropertyOp25
 70
     1
102
RTVSPropertyOp26
 70
     1
102
RTVSPropertyOp27
 70
     1
  0
XRECORD
  5
278
102
{ACAD_REACTORS
330
277
102
}
330
277
100
AcDbXrecord
280
     1
102
RTVSPropertyOp0
 70
     1
102
RTVSPropertyOp1
 70
     1
102
RTVSPropertyOp2
 70
     1
102
RTVSPropertyOp3
 70
     1
102
RTVSPropertyOp4
 70
     1
102
RTVSPropertyOp5
 70
     1
102
RTVSPropertyOp6
 70
     1
102
RTVSPropertyOp7
 70
     1
102
RTVSPropertyOp8
 70
     1
102
RTVSPropertyOp9
 70
     1
102
RTVSPropertyOp10
 70
     1
102
RTVSPropertyOp11
 70
     1
102
RTVSPropertyOp12
 70
     1
102
RTVSPropertyOp13
 70
     1
102
RTVSPropertyOp14
 70
     1
102
RTVSPropertyOp15
 70
     1
102
RTVSPropertyOp16
 70
     1
102
RTVSPropertyOp17
 70
     1
102
RTVSPropertyOp18
 70
     1
102
RTVSPropertyOp19
 70
     1
102
RTVSPropertyOp20
 70
     1
102
RTVSPropertyOp21
 70
     1
102
RTVSPropertyOp22
 70
     1
102
RTVSPropertyOp23
 70
     1
102
RTVSPropertyOp24
 70
     1
102
RTVSPropertyOp25
 70
     1
102
RTVSPropertyOp26
 70
     1
102
RTVSPropertyOp27
 70
     1
  0
XRECORD
  5
27C
102
{ACAD_REACTORS
330
27B
102
}
330
27B
100
AcDbXrecord
280
     1
102
RTVSPropertyOp0
 70
     1
102
RTVSPropertyOp1
 70
     1
102
RTVSPropertyOp2
 70
     1
102
RTVSPropertyOp3
 70
     1
102
RTVSPropertyOp4
 70
     1
102
RTVSPropertyOp5
 70
     1
102
RTVSPropertyOp6
 70
     1
102
RTVSPropertyOp7
 70
     1
102
RTVSPropertyOp8
 70
     1
102
RTVSPropertyOp9
 70
     1
102
RTVSPropertyOp10
 70
     1
102
RTVSPropertyOp11
 70
     1
102
RTVSPropertyOp12
 70
     1
102
RTVSPropertyOp13
 70
     1
102
RTVSPropertyOp14
 70
     1
102
RTVSPropertyOp15
 70
     1
102
RTVSPropertyOp16
 70
     1
102
RTVSPropertyOp17
 70
     1
102
RTVSPropertyOp18
 70
     1
102
RTVSPropertyOp19
 70
     1
102
RTVSPropertyOp20
 70
     1
102
RTVSPropertyOp21
 70
     1
102
RTVSPropertyOp22
 70
     1
102
RTVSPropertyOp23
 70
     1
102
RTVSPropertyOp24
 70
     1
102
RTVSPropertyOp25
 70
     1
102
RTVSPropertyOp26
 70
     1
102
RTVSPropertyOp27
 70
     1
  0
XRECORD
  5
284
102
{ACAD_REACTORS
330
283
102
}
330
283
100
AcDbXrecord
280
     1
102
RTVSPropertyOp0
 70
     1
102
RTVSPropertyOp1
 70
     1
102
RTVSPropertyOp2
 70
     1
102
RTVSPropertyOp3
 70
     1
102
RTVSPropertyOp4
 70
     1
102
RTVSPropertyOp5
 70
     1
102
RTVSPropertyOp6
 70
     1
102
RTVSPropertyOp7
 70
     1
102
RTVSPropertyOp8
 70
     1
102
RTVSPropertyOp9
 70
     1
102
RTVSPropertyOp10
 70
     1
102
RTVSPropertyOp11
 70
     1
102
RTVSPropertyOp12
 70
     1
102
RTVSPropertyOp13
 70
     1
102
RTVSPropertyOp14
 70
     1
102
RTVSPropertyOp15
 70
     1
102
RTVSPropertyOp16
 70
     1
102
RTVSPropertyOp17
 70
     1
102
RTVSPropertyOp18
 70
     1
102
RTVSPropertyOp19
 70
     1
102
RTVSPropertyOp20
 70
     1
102
RTVSPropertyOp21
 70
     1
102
RTVSPropertyOp22
 70
     1
102
RTVSPropertyOp23
 70
     1
102
RTVSPropertyOp24
 70
     1
102
RTVSPropertyOp25
 70
     1
102
RTVSPropertyOp26
 70
     1
102
RTVSPropertyOp27
 70
     1
  0
XRECORD
  5
28C
102
{ACAD_REACTORS
330
28B
102
}
330
28B
100
AcDbXrecord
280
     1
102
RTVSPropertyOp0
 70
     1
102
RTVSPropertyOp1
 70
     1
102
RTVSPropertyOp2
 70
     1
102
RTVSPropertyOp3
 70
     1
102
RTVSPropertyOp4
 70
     1
102
RTVSPropertyOp5
 70
     1
102
RTVSPropertyOp6
 70
     1
102
RTVSPropertyOp7
 70
     1
102
RTVSPropertyOp8
 70
     1
102
RTVSPropertyOp9
 70
     1
102
RTVSPropertyOp10
 70
     1
102
RTVSPropertyOp11
 70
     1
102
RTVSPropertyOp12
 70
     1
102
RTVSPropertyOp13
 70
     1
102
RTVSPropertyOp14
 70
     1
102
RTVSPropertyOp15
 70
     1
102
RTVSPropertyOp16
 70
     1
102
RTVSPropertyOp17
 70
     1
102
RTVSPropertyOp18
 70
     1
102
RTVSPropertyOp19
 70
     1
102
RTVSPropertyOp20
 70
     1
102
RTVSPropertyOp21
 70
     1
102
RTVSPropertyOp22
 70
     1
102
RTVSPropertyOp23
 70
     1
102
RTVSPropertyOp24
 70
     1
102
RTVSPropertyOp25
 70
     1
102
RTVSPropertyOp26
 70
     1
102
RTVSPropertyOp27
 70
     1
  0
XRECORD
  5
280
102
{ACAD_REACTORS
330
27F
102
}
330
27F
100
AcDbXrecord
280
     1
102
RTVSPropertyOp0
 70
     1
102
RTVSPropertyOp1
 70
     1
102
RTVSPropertyOp2
 70
     1
102
RTVSPropertyOp3
 70
     1
102
RTVSPropertyOp4
 70
     1
102
RTVSPropertyOp5
 70
     1
102
RTVSPropertyOp6
 70
     1
102
RTVSPropertyOp7
 70
     1
102
RTVSPropertyOp8
 70
     1
102
RTVSPropertyOp9
 70
     1
102
RTVSPropertyOp10
 70
     1
102
RTVSPropertyOp11
 70
     1
102
RTVSPropertyOp12
 70
     1
102
RTVSPropertyOp13
 70
     1
102
RTVSPropertyOp14
 70
     1
102
RTVSPropertyOp15
 70
     1
102
RTVSPropertyOp16
 70
     1
102
RTVSPropertyOp17
 70
     1
102
RTVSPropertyOp18
 70
     1
102
RTVSPropertyOp19
 70
     1
102
RTVSPropertyOp20
 70
     1
102
RTVSPropertyOp21
 70
     1
102
RTVSPropertyOp22
 70
     1
102
RTVSPropertyOp23
 70
     1
102
RTVSPropertyOp24
 70
     1
102
RTVSPropertyOp25
 70
     1
102
RTVSPropertyOp26
 70
     1
102
RTVSPropertyOp27
 70
     1
  0
XRECORD
  5
282
102
{ACAD_REACTORS
330
281
102
}
330
281
100
AcDbXrecord
280
     1
102
RTVSPropertyOp0
 70
     1
102
RTVSPropertyOp1
 70
     1
102
RTVSPropertyOp2
 70
     1
102
RTVSPropertyOp3
 70
     1
102
RTVSPropertyOp4
 70
     1
102
RTVSPropertyOp5
 70
     1
102
RTVSPropertyOp6
 70
     1
102
RTVSPropertyOp7
 70
     1
102
RTVSPropertyOp8
 70
     1
102
RTVSPropertyOp9
 70
     1
102
RTVSPropertyOp10
 70
     1
102
RTVSPropertyOp11
 70
     1
102
RTVSPropertyOp12
 70
     1
102
RTVSPropertyOp13
 70
     1
102
RTVSPropertyOp14
 70
     1
102
RTVSPropertyOp15
 70
     1
102
RTVSPropertyOp16
 70
     1
102
RTVSPropertyOp17
 70
     1
102
RTVSPropertyOp18
 70
     1
102
RTVSPropertyOp19
 70
     1
102
RTVSPropertyOp20
 70
     1
102
RTVSPropertyOp21
 70
     1
102
RTVSPropertyOp22
 70
     1
102
RTVSPropertyOp23
 70
     1
102
RTVSPropertyOp24
 70
     1
102
RTVSPropertyOp25
 70
     1
102
RTVSPropertyOp26
 70
     1
102
RTVSPropertyOp27
 70
     1
  0
XRECORD
  5
28A
102
{ACAD_REACTORS
330
289
102
}
330
289
100
AcDbXrecord
280
     1
102
RTVSPropertyOp0
 70
     1
102
RTVSPropertyOp1
 70
     1
102
RTVSPropertyOp2
 70
     1
102
RTVSPropertyOp3
 70
     1
102
RTVSPropertyOp4
 70
     1
102
RTVSPropertyOp5
 70
     1
102
RTVSPropertyOp6
 70
     1
102
RTVSPropertyOp7
 70
     1
102
RTVSPropertyOp8
 70
     1
102
RTVSPropertyOp9
 70
     1
102
RTVSPropertyOp10
 70
     1
102
RTVSPropertyOp11
 70
     1
102
RTVSPropertyOp12
 70
     1
102
RTVSPropertyOp13
 70
     1
102
RTVSPropertyOp14
 70
     1
102
RTVSPropertyOp15
 70
     1
102
RTVSPropertyOp16
 70
     1
102
RTVSPropertyOp17
 70
     1
102
RTVSPropertyOp18
 70
     1
102
RTVSPropertyOp19
 70
     1
102
RTVSPropertyOp20
 70
     1
102
RTVSPropertyOp21
 70
     1
102
RTVSPropertyOp22
 70
     1
102
RTVSPropertyOp23
 70
     1
102
RTVSPropertyOp24
 70
     1
102
RTVSPropertyOp25
 70
     1
102
RTVSPropertyOp26
 70
     1
102
RTVSPropertyOp27
 70
     1
  0
XRECORD
  5
26E
102
{ACAD_REACTORS
330
26D
102
}
330
26D
100
AcDbXrecord
280
     1
102
RTVSPropertyOp0
 70
     1
102
RTVSPropertyOp1
 70
     1
102
RTVSPropertyOp2
 70
     1
102
RTVSPropertyOp3
 70
     1
102
RTVSPropertyOp4
 70
     1
102
RTVSPropertyOp5
 70
     1
102
RTVSPropertyOp6
 70
     1
102
RTVSPropertyOp7
 70
     1
102
RTVSPropertyOp8
 70
     1
102
RTVSPropertyOp9
 70
     1
102
RTVSPropertyOp10
 70
     1
102
RTVSPropertyOp11
 70
     1
102
RTVSPropertyOp12
 70
     1
102
RTVSPropertyOp13
 70
     1
102
RTVSPropertyOp14
 70
     1
102
RTVSPropertyOp15
 70
     1
102
RTVSPropertyOp16
 70
     1
102
RTVSPropertyOp17
 70
     1
102
RTVSPropertyOp18
 70
     1
102
RTVSPropertyOp19
 70
     1
102
RTVSPropertyOp20
 70
     1
102
RTVSPropertyOp21
 70
     1
102
RTVSPropertyOp22
 70
     1
102
RTVSPropertyOp23
 70
     1
102
RTVSPropertyOp24
 70
     1
102
RTVSPropertyOp25
 70
     1
102
RTVSPropertyOp26
 70
     1
102
RTVSPropertyOp27
 70
     1
  0
XRECORD
  5
270
102
{ACAD_REACTORS
330
26F
102
}
330
26F
100
AcDbXrecord
280
     1
102
RTVSPropertyOp0
 70
     1
102
RTVSPropertyOp1
 70
     1
102
RTVSPropertyOp2
 70
     1
102
RTVSPropertyOp3
 70
     1
102
RTVSPropertyOp4
 70
     1
102
RTVSPropertyOp5
 70
     1
102
RTVSPropertyOp6
 70
     1
102
RTVSPropertyOp7
 70
     1
102
RTVSPropertyOp8
 70
     1
102
RTVSPropertyOp9
 70
     1
102
RTVSPropertyOp10
 70
     1
102
RTVSPropertyOp11
 70
     1
102
RTVSPropertyOp12
 70
     1
102
RTVSPropertyOp13
 70
     1
102
RTVSPropertyOp14
 70
     1
102
RTVSPropertyOp15
 70
     1
102
RTVSPropertyOp16
 70
     1
102
RTVSPropertyOp17
 70
     1
102
RTVSPropertyOp18
 70
     1
102
RTVSPropertyOp19
 70
     1
102
RTVSPropertyOp20
 70
     1
102
RTVSPropertyOp21
 70
     1
102
RTVSPropertyOp22
 70
     1
102
RTVSPropertyOp23
 70
     1
102
RTVSPropertyOp24
 70
     1
102
RTVSPropertyOp25
 70
     1
102
RTVSPropertyOp26
 70
     1
102
RTVSPropertyOp27
 70
     1
  0
XRECORD
  5
272
102
{ACAD_REACTORS
330
271
102
}
330
271
100
AcDbXrecord
280
     1
102
RTVSPropertyOp0
 70
     1
102
RTVSPropertyOp1
 70
     1
102
RTVSPropertyOp2
 70
     1
102
RTVSPropertyOp3
 70
     1
102
RTVSPropertyOp4
 70
     1
102
RTVSPropertyOp5
 70
     1
102
RTVSPropertyOp6
 70
     1
102
RTVSPropertyOp7
 70
     1
102
RTVSPropertyOp8
 70
     1
102
RTVSPropertyOp9
 70
     1
102
RTVSPropertyOp10
 70
     1
102
RTVSPropertyOp11
 70
     1
102
RTVSPropertyOp12
 70
     1
102
RTVSPropertyOp13
 70
     1
102
RTVSPropertyOp14
 70
     1
102
RTVSPropertyOp15
 70
     1
102
RTVSPropertyOp16
 70
     1
102
RTVSPropertyOp17
 70
     1
102
RTVSPropertyOp18
 70
     1
102
RTVSPropertyOp19
 70
     1
102
RTVSPropertyOp20
 70
     1
102
RTVSPropertyOp21
 70
     1
102
RTVSPropertyOp22
 70
     1
102
RTVSPropertyOp23
 70
     1
102
RTVSPropertyOp24
 70
     1
102
RTVSPropertyOp25
 70
     1
102
RTVSPropertyOp26
 70
     1
102
RTVSPropertyOp27
 70
     1
  0
XRECORD
  5
274
102
{ACAD_REACTORS
330
273
102
}
330
273
100
AcDbXrecord
280
     1
102
RTVSPropertyOp0
 70
     1
102
RTVSPropertyOp1
 70
     1
102
RTVSPropertyOp2
 70
     1
102
RTVSPropertyOp3
 70
     1
102
RTVSPropertyOp4
 70
     1
102
RTVSPropertyOp5
 70
     1
102
RTVSPropertyOp6
 70
     1
102
RTVSPropertyOp7
 70
     1
102
RTVSPropertyOp8
 70
     1
102
RTVSPropertyOp9
 70
     1
102
RTVSPropertyOp10
 70
     1
102
RTVSPropertyOp11
 70
     1
102
RTVSPropertyOp12
 70
     1
102
RTVSPropertyOp13
 70
     1
102
RTVSPropertyOp14
 70
     1
102
RTVSPropertyOp15
 70
     1
102
RTVSPropertyOp16
 70
     1
102
RTVSPropertyOp17
 70
     1
102
RTVSPropertyOp18
 70
     1
102
RTVSPropertyOp19
 70
     1
102
RTVSPropertyOp20
 70
     1
102
RTVSPropertyOp21
 70
     1
102
RTVSPropertyOp22
 70
     1
102
RTVSPropertyOp23
 70
     1
102
RTVSPropertyOp24
 70
     1
102
RTVSPropertyOp25
 70
     1
102
RTVSPropertyOp26
 70
     1
102
RTVSPropertyOp27
 70
     1
  0
XRECORD
  5
288
102
{ACAD_REACTORS
330
287
102
}
330
287
100
AcDbXrecord
280
     1
102
RTVSPropertyOp0
 70
     1
102
RTVSPropertyOp1
 70
     1
102
RTVSPropertyOp2
 70
     1
102
RTVSPropertyOp3
 70
     1
102
RTVSPropertyOp4
 70
     1
102
RTVSPropertyOp5
 70
     1
102
RTVSPropertyOp6
 70
     1
102
RTVSPropertyOp7
 70
     1
102
RTVSPropertyOp8
 70
     1
102
RTVSPropertyOp9
 70
     1
102
RTVSPropertyOp10
 70
     1
102
RTVSPropertyOp11
 70
     1
102
RTVSPropertyOp12
 70
     1
102
RTVSPropertyOp13
 70
     1
102
RTVSPropertyOp14
 70
     1
102
RTVSPropertyOp15
 70
     1
102
RTVSPropertyOp16
 70
     1
102
RTVSPropertyOp17
 70
     1
102
RTVSPropertyOp18
 70
     1
102
RTVSPropertyOp19
 70
     1
102
RTVSPropertyOp20
 70
     1
102
RTVSPropertyOp21
 70
     1
102
RTVSPropertyOp22
 70
     1
102
RTVSPropertyOp23
 70
     1
102
RTVSPropertyOp24
 70
     1
102
RTVSPropertyOp25
 70
     1
102
RTVSPropertyOp26
 70
     1
102
RTVSPropertyOp27
 70
     1
  0
XRECORD
  5
27E
102
{ACAD_REACTORS
330
27D
102
}
330
27D
100
AcDbXrecord
280
     1
102
RTVSPropertyOp0
 70
     1
102
RTVSPropertyOp1
 70
     1
102
RTVSPropertyOp2
 70
     1
102
RTVSPropertyOp3
 70
     1
102
RTVSPropertyOp4
 70
     1
102
RTVSPropertyOp5
 70
     1
102
RTVSPropertyOp6
 70
     1
102
RTVSPropertyOp7
 70
     1
102
RTVSPropertyOp8
 70
     1
102
RTVSPropertyOp9
 70
     1
102
RTVSPropertyOp10
 70
     1
102
RTVSPropertyOp11
 70
     1
102
RTVSPropertyOp12
 70
     1
102
RTVSPropertyOp13
 70
     1
102
RTVSPropertyOp14
 70
     1
102
RTVSPropertyOp15
 70
     1
102
RTVSPropertyOp16
 70
     1
102
RTVSPropertyOp17
 70
     1
102
RTVSPropertyOp18
 70
     1
102
RTVSPropertyOp19
 70
     1
102
RTVSPropertyOp20
 70
     1
102
RTVSPropertyOp21
 70
     1
102
RTVSPropertyOp22
 70
     1
102
RTVSPropertyOp23
 70
     1
102
RTVSPropertyOp24
 70
     1
102
RTVSPropertyOp25
 70
     1
102
RTVSPropertyOp26
 70
     1
102
RTVSPropertyOp27
 70
     1
  0
XRECORD
  5
286
102
{ACAD_REACTORS
330
285
102
}
330
285
100
AcDbXrecord
280
     1
102
RTVSPropertyOp0
 70
     1
102
RTVSPropertyOp1
 70
     1
102
RTVSPropertyOp2
 70
     1
102
RTVSPropertyOp3
 70
     1
102
RTVSPropertyOp4
 70
     1
102
RTVSPropertyOp5
 70
     1
102
RTVSPropertyOp6
 70
     1
102
RTVSPropertyOp7
 70
     1
102
RTVSPropertyOp8
 70
     1
102
RTVSPropertyOp9
 70
     1
102
RTVSPropertyOp10
 70
     1
102
RTVSPropertyOp11
 70
     1
102
RTVSPropertyOp12
 70
     1
102
RTVSPropertyOp13
 70
     1
102
RTVSPropertyOp14
 70
     1
102
RTVSPropertyOp15
 70
     1
102
RTVSPropertyOp16
 70
     1
102
RTVSPropertyOp17
 70
     1
102
RTVSPropertyOp18
 70
     1
102
RTVSPropertyOp19
 70
     1
102
RTVSPropertyOp20
 70
     1
102
RTVSPropertyOp21
 70
     1
102
RTVSPropertyOp22
 70
     1
102
RTVSPropertyOp23
 70
     1
102
RTVSPropertyOp24
 70
     1
102
RTVSPropertyOp25
 70
     1
102
RTVSPropertyOp26
 70
     1
102
RTVSPropertyOp27
 70
     1
  0
ENDSEC
  0
EOF
